<?xml version="1.0" encoding="utf-8"?>
<!-- Generator: Adobe Illustrator 21.0.2, SVG Export Plug-In . SVG Version: 6.00 Build 0)  -->
<svg version="1.1" id="Layer_1" xmlns="http://www.w3.org/2000/svg" xmlns:xlink="http://www.w3.org/1999/xlink" x="0px" y="0px"
	 viewBox="0 0 51 30.6" style="enable-background:new 0 0 51 30.6;" xml:space="preserve">
<style type="text/css">
	.st0{fill:#333333;}
</style>
<path class="st0" d="M10.2,5.1c0,2.8,2.3,5.1,5.1,5.1s5.1,2.3,5.1,5.1s2.3,5.1,5.1,5.1s5.1-2.3,5.1-5.1s2.3-5.1,5.1-5.1
	s5.1-2.3,5.1-5.1S43.1,0,45.9,0C48.7,0,51,2.3,51,5.1s-2.3,5.1-5.1,5.1s-5.1,2.3-5.1,5.1s-2.3,5.1-5.1,5.1s-5.1,2.3-5.1,5.1
	s-2.3,5.1-5.1,5.1s-5.1-2.3-5.1-5.1s-2.3-5.1-5.1-5.1s-5.1-2.3-5.1-5.1s-2.3-5.1-5.1-5.1C2.3,10.2,0,7.9,0,5.1S2.3,0,5.1,0
	S10.2,2.3,10.2,5.1z"/>
</svg>
