<?xml version="1.0" encoding="utf-8"?>
<!-- Generator: Adobe Illustrator 21.0.2, SVG Export Plug-In . SVG Version: 6.00 Build 0)  -->
<svg version="1.1" id="Layer_1" xmlns="http://www.w3.org/2000/svg" xmlns:xlink="http://www.w3.org/1999/xlink" x="0px" y="0px"
	 viewBox="0 0 328.4 498.2" style="enable-background:new 0 0 328.4 498.2;" xml:space="preserve">
<style type="text/css">
	.st0{fill:#FFD200;}
	.st1{fill:none;stroke:#FFD200;stroke-width:18.171;stroke-linecap:round;stroke-linejoin:round;stroke-miterlimit:10;}
	.st2{fill:#FBD00D;}
	.st3{fill:#FFFFFF;}
	.st4{fill:#F5C319;}
</style>
<g>
	<g>
		<g>
			
				<ellipse transform="matrix(0.115 -0.9934 0.9934 0.115 -52.3489 341.1667)" class="st0" cx="165.3" cy="200" rx="79.7" ry="79.7"/>
			<g>
				<path class="st0" d="M244.6,209.6c-1.7,14.4-7.3,27.4-15.5,38.2c-8.4,11.1-19.6,20-32.4,25.5c-12.4,5.3-26.4,7.4-40.9,5.6
					c-14.4-1.7-27.5-7.1-38.4-15.2c-11.2-8.4-20-19.6-25.5-32.4c-5.4-12.4-7.8-26.4-6.1-40.8c1.7-14.4,7.3-27.4,15.5-38.2
					c8.4-11.1,19.6-20,32.4-25.5c12.4-5.3,26.4-7.4,40.9-5.6c14.4,1.7,27.5,7.1,38.4,15.2c11.2,8.4,20,19.6,25.5,32.4
					C244,181.3,246.3,195.2,244.6,209.6z"/>
			</g>
			<g>
				<path class="st0" d="M244.8,210.2c-1.8,14.4-7.5,27.3-15.8,38c-8.5,11.1-19.6,19.9-32.5,25.3c-12.5,5.2-26.5,7-40.9,5.2
					s-27.6-7.1-38.4-15.2c-11.2-8.4-19.9-19.7-25.4-32.5c-5.4-12.5-7.9-26.4-6.1-40.8c1.8-14.4,7.5-27.3,15.8-38
					c8.5-11.1,19.6-19.9,32.5-25.3c12.5-5.2,26.5-7,40.9-5.2s27.6,7.1,38.4,15.2c11.2,8.4,19.9,19.7,25.4,32.5
					C244.1,181.9,246.6,195.8,244.8,210.2z"/>
			</g>
			<g>
				<path class="st0" d="M245,211c-1.8,14.4-7.8,27.2-16.1,37.9c-8.5,11-19.7,19.9-32.6,25.1c-12.5,5.1-26.5,6.7-40.9,4.9
					c-14.4-1.9-27.6-7.1-38.4-15.2c-11.2-8.4-19.8-19.8-25.3-32.6c-5.4-12.5-8-26.4-6.2-40.8c1.8-14.4,7.8-27.2,16.1-37.9
					c8.5-11,19.7-19.9,32.6-25.1c12.5-5.1,26.5-6.7,40.9-4.9c14.4,1.9,27.6,7.1,38.4,15.2c11.2,8.4,19.8,19.8,25.3,32.6
					C244.2,182.7,246.8,196.6,245,211z"/>
			</g>
			<g>
				<path class="st0" d="M245.2,211.8c-1.9,14.4-8,27.1-16.4,37.7c-8.6,10.9-19.7,19.8-32.7,25c-12.5,5-26.5,6.4-40.9,4.5
					s-27.6-7-38.4-15.2c-11.2-8.4-19.7-20-25.2-32.7c-5.4-12.5-8.1-26.4-6.2-40.8c1.9-14.4,8-27.1,16.4-37.7
					c8.6-10.9,19.7-19.8,32.7-25c12.5-5,26.5-6.4,40.9-4.5c14.4,1.9,27.6,7,38.4,15.2c11.2,8.4,19.7,20,25.2,32.7
					C244.4,183.6,247,197.5,245.2,211.8z"/>
			</g>
			<g>
				<path class="st0" d="M245.4,212.8c-1.9,14.3-8.2,27-16.7,37.6c-8.6,10.8-19.7,19.7-32.8,24.8c-12.5,4.9-26.6,6.1-41,4.1
					s-27.6-7-38.4-15.2c-11.2-8.5-19.6-20.1-25.1-32.8c-5.4-12.5-8.2-26.4-6.3-40.8c1.9-14.3,8.2-27,16.7-37.6
					c8.6-10.8,19.7-19.7,32.8-24.8c12.5-4.9,26.6-6.1,41-4.1s27.6,7,38.4,15.2c11.2,8.5,19.6,20.1,25.1,32.8
					C244.5,184.6,247.3,198.5,245.4,212.8z"/>
			</g>
			<g>
				<path class="st0" d="M245.5,214c-2,14.3-8.5,26.9-17,37.4c-8.7,10.7-19.8,19.6-32.9,24.6c-12.5,4.8-26.6,5.8-41,3.7
					c-14.4-2.1-27.7-7-38.4-15.2c-11.2-8.5-19.5-20.2-25-32.9c-5.4-12.5-8.3-26.4-6.3-40.8c2-14.3,8.5-26.9,17-37.4
					c8.7-10.7,19.8-19.6,32.9-24.6c12.5-4.8,26.6-5.8,41-3.7c14.4,2.1,27.7,7,38.4,15.2c11.2,8.5,19.5,20.2,25,32.9
					C244.6,185.7,247.5,199.6,245.5,214z"/>
			</g>
			<g>
				<path class="st0" d="M245.7,215.2c-2,14.3-8.7,26.8-17.3,37.2c-8.8,10.7-19.8,19.6-33,24.5c-12.5,4.7-26.6,5.5-41,3.3
					c-14.4-2.1-27.7-7-38.5-15.2c-11.2-8.5-19.4-20.3-24.8-33c-5.4-12.5-8.4-26.4-6.4-40.8c2-14.3,8.7-26.8,17.3-37.2
					c8.8-10.7,19.8-19.6,33-24.5c12.5-4.7,26.6-5.5,41-3.3c14.4,2.1,27.7,7,38.5,15.2c11.2,8.5,19.4,20.3,24.8,33
					C244.7,187,247.7,200.9,245.7,215.2z"/>
			</g>
			<g>
				<path class="st0" d="M245.9,216.6c-2.1,14.3-8.9,26.6-17.6,37c-8.8,10.6-19.9,19.5-33.1,24.3c-12.6,4.6-26.7,5.2-41,3
					c-14.4-2.2-27.7-7-38.5-15.2c-11.2-8.5-19.3-20.4-24.7-33.1c-5.4-12.6-8.5-26.5-6.4-40.8s8.9-26.6,17.6-37
					c8.8-10.6,19.9-19.5,33.1-24.3c12.6-4.6,26.7-5.2,41-3c14.4,2.2,27.7,7,38.5,15.2c11.2,8.5,19.3,20.4,24.7,33.1
					C244.9,188.4,248,202.3,245.9,216.6z"/>
			</g>
			<g>
				<path class="st0" d="M246.1,218.1c-2.1,14.3-9.1,26.5-17.9,36.9c-8.9,10.5-19.9,19.4-33.2,24.2c-12.6,4.5-26.7,4.8-41,2.6
					c-14.4-2.3-27.8-7-38.5-15.2c-11.2-8.6-19.2-20.5-24.6-33.2c-5.4-12.6-8.6-26.5-6.5-40.8s9.1-26.5,17.9-36.9
					c8.9-10.5,19.9-19.4,33.2-24.2c12.6-4.5,26.7-4.8,41-2.6c14.4,2.3,27.8,7,38.5,15.2c11.2,8.6,19.2,20.5,24.6,33.2
					C245,189.9,248.2,203.8,246.1,218.1z"/>
			</g>
			<g>
				<path class="st0" d="M246.3,219.7c-2.2,14.3-9.4,26.4-18.2,36.7c-8.9,10.4-20,19.4-33.3,24c-12.6,4.4-26.7,4.5-41,2.2
					c-14.4-2.3-27.8-7-38.5-15.1c-11.3-8.6-19.1-20.6-24.5-33.3c-5.4-12.6-8.7-26.5-6.5-40.7c2.2-14.3,9.4-26.4,18.2-36.7
					c8.9-10.4,20-19.4,33.3-24c12.6-4.4,26.7-4.5,41-2.2c14.4,2.3,27.8,7,38.5,15.1c11.3,8.6,19.1,20.6,24.5,33.3
					C245.1,191.5,248.4,205.4,246.3,219.7z"/>
			</g>
			<g>
				<path class="st0" d="M246.4,221.4c-2.2,14.2-9.6,26.3-18.5,36.5c-9,10.3-20,19.3-33.4,23.8c-12.6,4.3-26.7,4.2-41,1.8
					c-14.4-2.4-27.8-6.9-38.5-15.1c-11.3-8.6-19-20.7-24.4-33.4c-5.4-12.6-8.8-26.5-6.6-40.7c2.2-14.2,9.6-26.3,18.5-36.5
					c9-10.3,20-19.3,33.4-23.8c12.6-4.3,26.7-4.2,41-1.8c14.4,2.4,27.8,6.9,38.5,15.1c11.3,8.6,19,20.7,24.4,33.4
					C245.2,193.2,248.6,207.1,246.4,221.4z"/>
			</g>
			<g>
				<path class="st0" d="M246.6,223.2c-2.3,14.2-9.8,26.2-18.8,36.3c-9.1,10.2-20.1,19.2-33.5,23.7c-12.6,4.2-26.7,3.9-41.1,1.4
					c-14.3-2.5-27.9-6.9-38.6-15.1c-11.3-8.6-18.9-20.8-24.3-33.5c-5.4-12.6-8.9-26.5-6.6-40.7s9.8-26.2,18.8-36.3
					c9.1-10.2,20.1-19.2,33.5-23.7c12.6-4.2,26.7-3.9,41.1-1.4c14.3,2.5,27.9,6.9,38.6,15.1c11.3,8.6,18.9,20.8,24.3,33.5
					C245.4,195.1,248.9,208.9,246.6,223.2z"/>
			</g>
			<g>
				<path class="st0" d="M246.8,225.1c-2.3,14.2-10.1,26.1-19.1,36.2c-9.1,10.2-20.1,19.2-33.6,23.5c-12.6,4.1-26.8,3.6-41.1,1.1
					s-27.9-6.9-38.6-15.1c-11.3-8.7-18.8-20.9-24.2-33.6c-5.4-12.7-9-26.5-6.7-40.7s10.1-26.1,19.1-36.2
					c9.1-10.2,20.1-19.2,33.6-23.5c12.6-4.1,26.8-3.6,41.1-1.1c14.3,2.5,27.9,6.9,38.6,15.1c11.3,8.7,18.8,20.9,24.2,33.6
					C245.5,197,249.1,210.9,246.8,225.1z"/>
			</g>
			<g>
				<path class="st0" d="M246.9,227.1c-2.4,14.2-10.3,25.9-19.4,36c-9.2,10.1-20.2,19.1-33.7,23.4c-12.7,4-26.8,3.3-41.1,0.7
					c-14.3-2.6-27.9-6.9-38.6-15.1c-11.3-8.7-18.7-21-24-33.7c-5.4-12.7-9.1-26.5-6.8-40.7c2.4-14.2,10.3-25.9,19.4-36
					c9.2-10.1,20.2-19.1,33.7-23.4c12.7-4,26.8-3.3,41.1-0.7c14.3,2.6,27.9,6.9,38.6,15.1c11.3,8.7,18.7,21,24,33.7
					C245.6,199,249.3,212.9,246.9,227.1z"/>
			</g>
			<g>
				<path class="st0" d="M247.1,229.2c-2.4,14.2-10.5,25.8-19.7,35.8c-9.2,10-20.2,19.1-33.8,23.2c-12.7,3.9-26.8,3-41.1,0.3
					s-28-6.9-38.6-15.1c-11.3-8.7-18.6-21.2-23.9-33.8c-5.4-12.7-9.2-26.5-6.8-40.7c2.4-14.2,10.5-25.8,19.7-35.8
					s20.2-19.1,33.8-23.2c12.7-3.9,26.8-3,41.1-0.3c14.3,2.7,28,6.9,38.6,15.1c11.3,8.7,18.6,21.2,23.9,33.8
					C245.7,201.2,249.5,215,247.1,229.2z"/>
			</g>
			<g>
				<path class="st0" d="M247.3,231.4c-2.5,14.2-10.8,25.7-20.1,35.6s-20.3,19-33.9,23c-12.7,3.8-26.8,2.6-41.1-0.1
					s-28-6.9-38.6-15.1c-11.3-8.7-18.5-21.3-23.8-33.9c-5.4-12.7-9.3-26.5-6.9-40.7c2.5-14.2,10.8-25.7,20.1-35.6s20.3-19,33.9-23
					c12.7-3.8,26.8-2.6,41.1,0.1c14.3,2.7,28,6.9,38.6,15.1c11.3,8.7,18.5,21.3,23.8,33.9C245.8,203.4,249.7,217.2,247.3,231.4z"/>
			</g>
			<g>
				<path class="st0" d="M247.4,233.7c-2.5,14.1-11,25.6-20.4,35.4c-9.3,9.8-20.4,18.9-34,22.9c-12.7,3.7-26.8,2.3-41.1-0.4
					c-14.3-2.8-28-6.8-38.7-15.1c-11.3-8.8-18.3-21.4-23.7-34c-5.4-12.7-9.4-26.6-6.9-40.7c2.5-14.1,11-25.6,20.4-35.4
					c9.3-9.8,20.4-18.9,34-22.9c12.7-3.7,26.8-2.3,41.1,0.4c14.3,2.8,28,6.8,38.7,15.1c11.3,8.8,18.3,21.4,23.7,34
					C245.9,205.7,249.9,219.5,247.4,233.7z"/>
			</g>
			<g>
				<path class="st0" d="M247.6,236c-2.6,14.1-11.2,25.4-20.7,35.2c-9.4,9.7-20.4,18.9-34.1,22.7c-12.7,3.6-26.8,2-41.1-0.8
					s-28.1-6.8-38.7-15.1c-11.3-8.8-18.2-21.5-23.6-34.1c-5.4-12.8-9.5-26.6-7-40.7c2.6-14.1,11.2-25.4,20.7-35.2
					c9.4-9.7,20.4-18.9,34.1-22.7c12.7-3.6,26.8-2,41.1,0.8s28.1,6.8,38.7,15.1c11.3,8.8,18.2,21.5,23.6,34.1
					C246,208.1,250.1,221.9,247.6,236z"/>
			</g>
			<g>
				<path class="st0" d="M247.7,238.5c-2.6,14.1-11.4,25.3-21,35c-9.5,9.6-20.5,18.8-34.2,22.6c-12.7,3.5-26.8,1.7-41.1-1.2
					c-14.3-2.9-28.1-6.8-38.7-15.1c-11.3-8.8-18.1-21.6-23.5-34.2c-5.4-12.8-9.6-26.6-7-40.7c2.6-14.1,11.4-25.3,21-35
					c9.5-9.6,20.5-18.8,34.2-22.6c12.7-3.5,26.8-1.7,41.1,1.2s28.1,6.8,38.7,15.1c11.3,8.8,18.1,21.6,23.5,34.2
					C246.1,210.5,250.3,224.4,247.7,238.5z"/>
			</g>
			<g>
				<path class="st0" d="M247.8,241c-2.7,14.1-11.7,25.2-21.3,34.8c-9.5,9.6-20.5,18.8-34.3,22.4c-12.7,3.4-26.8,1.4-41.1-1.6
					c-14.3-3-28.2-6.8-38.7-15.1c-11.3-8.8-18-21.7-23.3-34.3c-5.4-12.8-9.8-26.6-7.1-40.7c2.7-14.1,11.7-25.2,21.3-34.8
					c9.5-9.6,20.5-18.8,34.3-22.4c12.7-3.4,26.8-1.4,41.1,1.6s28.2,6.8,38.7,15.1c11.3,8.8,18,21.7,23.3,34.3
					C246.2,213.1,250.5,226.9,247.8,241z"/>
			</g>
			<g>
				<path class="st0" d="M248,243.6c-2.7,14.1-11.9,25.1-21.6,34.6c-9.6,9.5-20.6,18.7-34.4,22.3c-12.8,3.3-26.8,1.1-41.1-1.9
					s-28.2-6.7-38.8-15c-11.3-8.9-17.9-21.8-23.2-34.4c-5.4-12.8-9.9-26.6-7.2-40.7c2.7-14.1,11.9-25.1,21.6-34.6
					c9.6-9.5,20.6-18.7,34.4-22.3c12.8-3.3,26.8-1.1,41.1,1.9c14.3,3,28.2,6.7,38.8,15c11.3,8.9,17.9,21.8,23.2,34.4
					C246.2,215.7,250.7,229.5,248,243.6z"/>
			</g>
			<g>
				<path class="st0" d="M248.1,246.3c-2.8,14-12.1,24.9-21.9,34.4c-9.6,9.4-20.7,18.6-34.5,22.1c-12.8,3.2-26.8,0.8-41-2.3
					c-14.3-3.1-28.3-6.7-38.8-15c-11.3-8.9-17.8-21.9-23.1-34.5c-5.4-12.8-10-26.7-7.2-40.7s12.1-24.9,21.9-34.4
					c9.6-9.4,20.7-18.6,34.5-22.1c12.8-3.2,26.8-0.8,41,2.3c14.3,3.1,28.3,6.7,38.8,15c11.3,8.9,17.8,21.9,23.1,34.5
					C246.3,218.4,250.9,232.2,248.1,246.3z"/>
			</g>
			<g>
				<path class="st0" d="M248.2,249c-2.8,14-12.4,24.8-22.2,34.2c-9.7,9.3-20.7,18.6-34.6,22c-12.8,3.1-26.8,0.4-41-2.7
					c-14.3-3.2-28.3-6.7-38.8-15c-11.3-8.9-17.7-22-23-34.6c-5.4-12.9-10.1-26.7-7.3-40.7c2.8-14,12.4-24.8,22.2-34.2
					c9.7-9.3,20.7-18.6,34.6-22c12.8-3.1,26.8-0.4,41,2.7c14.3,3.2,28.3,6.7,38.8,15c11.3,8.9,17.7,22,23,34.6
					C246.4,221.2,251,235,248.2,249z"/>
			</g>
			<g>
				<path class="st0" d="M248.3,251.9c-2.9,14-12.6,24.6-22.6,34c-9.7,9.2-20.8,18.5-34.7,21.8c-12.8,3-26.8,0.1-41-3.1
					c-14.3-3.2-28.3-6.7-38.9-15c-11.3-9-17.6-22.2-22.9-34.7c-5.4-12.9-10.2-26.7-7.3-40.7c2.9-14,12.6-24.6,22.6-34
					c9.7-9.2,20.8-18.5,34.7-21.8c12.8-3,26.8-0.1,41,3.1c14.3,3.2,28.3,6.7,38.9,15c11.3,9,17.6,22.2,22.9,34.7
					C246.4,224,251.2,237.8,248.3,251.9z"/>
			</g>
			<g>
				<path class="st0" d="M248.5,254.7c-2.9,14-12.8,24.5-22.9,33.8c-9.8,9.1-20.8,18.5-34.8,21.7c-12.8,2.9-26.8-0.2-41-3.4
					c-14.3-3.3-28.4-6.7-38.9-15c-11.3-9-17.5-22.3-22.7-34.8c-5.4-12.9-10.3-26.7-7.4-40.7s12.8-24.5,22.9-33.8
					c9.8-9.1,20.8-18.5,34.8-21.7c12.8-2.9,26.8,0.2,41,3.4c14.3,3.3,28.4,6.7,38.9,15c11.3,9,17.5,22.3,22.7,34.8
					C246.5,226.9,251.4,240.7,248.5,254.7z"/>
			</g>
			<g>
				<path class="st0" d="M248.6,257.7c-3,14-13.1,24.4-23.2,33.6c-9.9,9-20.9,18.4-34.9,21.5c-12.8,2.8-26.8-0.5-41-3.8
					s-28.4-6.6-38.9-15c-11.3-9-17.4-22.4-22.6-34.9c-5.4-12.9-10.4-26.7-7.4-40.7s13.1-24.4,23.2-33.6c9.9-9,20.9-18.4,34.9-21.5
					c12.8-2.8,26.8,0.5,41,3.8s28.4,6.6,38.9,15c11.3,9,17.4,22.4,22.6,34.9C246.5,229.8,251.5,243.7,248.6,257.7z"/>
			</g>
			<g>
				<path class="st0" d="M248.7,260.7c-3,14-13.3,24.2-23.5,33.4c-9.9,9-21,18.4-35,21.4c-12.8,2.8-26.8-0.8-41-4.2
					c-14.2-3.4-28.5-6.6-39-15c-11.3-9-17.3-22.5-22.5-35c-5.4-12.9-10.5-26.8-7.5-40.7c3-14,13.3-24.2,23.5-33.4
					c9.9-9,21-18.4,35-21.4c12.8-2.8,26.8,0.8,41,4.2s28.5,6.6,39,15c11.3,9,17.3,22.5,22.5,35C246.6,232.8,251.7,246.7,248.7,260.7
					z"/>
			</g>
			<g>
				<path class="st0" d="M248.7,263.7c-3.1,13.9-13.5,24.1-23.8,33.2c-10,8.9-21,18.3-35.1,21.2c-12.9,2.7-26.8-1.1-41-4.5
					c-14.2-3.5-28.5-6.6-39-14.9c-11.3-9.1-17.2-22.6-22.4-35.1c-5.4-13-10.6-26.8-7.6-40.7c3.1-13.9,13.5-24.1,23.8-33.2
					c10-8.9,21-18.3,35.1-21.2c12.9-2.7,26.8,1.1,41,4.5c14.2,3.5,28.5,6.6,39,14.9c11.3,9.1,17.2,22.6,22.4,35.1
					C246.6,235.9,251.8,249.7,248.7,263.7z"/>
			</g>
			<g>
				<path class="st0" d="M248.8,266.8c-3.1,13.9-13.8,23.9-24.1,33c-10,8.8-21.1,18.3-35.2,21.1c-12.9,2.6-26.8-1.4-40.9-4.9
					c-14.2-3.5-28.6-6.5-39-14.9c-11.3-9.1-17-22.7-22.3-35.2c-5.4-13-10.7-26.8-7.6-40.8c3.1-13.9,13.8-23.9,24.1-33
					c10-8.8,21.1-18.3,35.2-21.1c12.9-2.6,26.8,1.4,40.9,4.9c14.2,3.5,28.6,6.5,39,14.9c11.3,9.1,17,22.7,22.3,35.2
					C246.6,239,252,252.8,248.8,266.8z"/>
			</g>
			<g>
				<path class="st0" d="M248.9,269.9c-3.2,13.9-14,23.8-24.4,32.8c-10.1,8.7-21.2,18.2-35.3,20.9c-12.9,2.5-26.8-1.7-40.9-5.3
					c-14.2-3.6-28.6-6.5-39.1-14.9c-11.3-9.1-16.9-22.8-22.1-35.3c-5.4-13-10.9-26.8-7.7-40.8c3.2-13.9,14-23.8,24.4-32.8
					c10.1-8.7,21.2-18.2,35.3-20.9c12.9-2.5,26.8,1.7,40.9,5.3c14.2,3.6,28.6,6.5,39.1,14.9c11.3,9.1,16.9,22.8,22.1,35.3
					C246.7,242.2,252.1,256,248.9,269.9z"/>
			</g>
			<g>
				<path class="st0" d="M249,273.1c-3.2,13.9-14.2,23.6-24.8,32.6c-10.1,8.6-21.2,18.2-35.4,20.8c-12.9,2.4-26.8-2-40.9-5.6
					c-14.2-3.6-28.7-6.5-39.1-14.9c-11.3-9.1-16.8-23-22-35.4c-5.4-13-11-26.9-7.7-40.8c3.2-13.9,14.2-23.6,24.8-32.6
					c10.1-8.6,21.2-18.2,35.4-20.8c12.9-2.4,26.8,2,40.9,5.6c14.2,3.6,28.7,6.5,39.1,14.9c11.3,9.1,16.8,23,22,35.4
					C246.7,245.3,252.2,259.2,249,273.1z"/>
			</g>
			<g>
				<path class="st0" d="M249,276.3c-3.3,13.9-14.5,23.5-25.1,32.3c-10.2,8.5-21.3,18.1-35.5,20.7c-12.9,2.3-26.8-2.3-40.9-6
					c-14.2-3.7-28.7-6.5-39.1-14.9c-11.3-9.2-16.7-23.1-21.9-35.5c-5.4-13-11.1-26.9-7.8-40.8c3.3-13.9,14.5-23.5,25.1-32.3
					c10.2-8.5,21.3-18.1,35.5-20.7c12.9-2.3,26.8,2.3,40.9,6c14.2,3.7,28.7,6.5,39.1,14.9c11.3,9.2,16.7,23.1,21.9,35.5
					C246.7,248.6,252.3,262.4,249,276.3z"/>
			</g>
			<g>
				<path class="st0" d="M249.1,279.6c-3.3,13.9-14.7,23.3-25.4,32.1c-10.3,8.4-21.4,18.1-35.7,20.5c-12.9,2.2-26.7-2.6-40.9-6.4
					c-14.2-3.7-28.8-6.4-39.2-14.9c-11.3-9.2-16.6-23.2-21.8-35.6c-5.4-13.1-11.2-26.9-7.8-40.8c3.3-13.9,14.7-23.3,25.4-32.1
					c10.3-8.4,21.4-18.1,35.7-20.5c12.9-2.2,26.7,2.6,40.9,6.4c14.2,3.7,28.8,6.4,39.2,14.9c11.3,9.2,16.6,23.2,21.8,35.6
					C246.7,251.8,252.4,265.7,249.1,279.6z"/>
			</g>
			<g>
				<path class="st0" d="M249.1,282.8c-3.4,13.8-14.9,23.2-25.7,31.9c-10.3,8.3-21.5,18-35.8,20.4c-12.9,2.1-26.7-3-40.8-6.7
					c-14.2-3.8-28.8-6.4-39.2-14.8c-11.3-9.2-16.5-23.3-21.6-35.7c-5.4-13.1-11.3-26.9-7.9-40.8c3.4-13.8,14.9-23.2,25.7-31.9
					c10.3-8.3,21.5-18,35.8-20.4c12.9-2.1,26.7,3,40.8,6.7c14.2,3.8,28.8,6.4,39.2,14.8c11.3,9.2,16.5,23.3,21.6,35.7
					C246.7,255.1,252.5,269,249.1,282.8z"/>
			</g>
			<g>
				<path class="st0" d="M249.2,286.2c-3.5,13.8-15.2,23-26,31.6c-10.4,8.2-21.5,18-35.9,20.2c-12.9,2-26.7-3.3-40.8-7.1
					c-14.2-3.9-28.9-6.4-39.3-14.8c-11.4-9.2-16.4-23.4-21.5-35.8c-5.4-13.1-11.4-27-8-40.8c3.5-13.8,15.2-23,26-31.6
					c10.4-8.2,21.5-18,35.9-20.2c12.9-2,26.7,3.3,40.8,7.1c14.2,3.9,28.9,6.4,39.3,14.8c11.4,9.2,16.4,23.4,21.5,35.8
					C246.6,258.5,252.6,272.3,249.2,286.2z"/>
			</g>
			<g>
				<path class="st0" d="M249.2,289.5c-3.5,13.8-15.4,22.8-26.4,31.4c-10.4,8.2-21.6,18-36,20.1c-13,1.9-26.7-3.6-40.8-7.5
					c-14.2-3.9-29-6.3-39.3-14.8c-11.4-9.3-16.2-23.5-21.4-35.9c-5.5-13.1-11.5-27-8-40.8s15.4-22.8,26.4-31.4
					c10.4-8.2,21.6-18,36-20.1c13-1.9,26.7,3.6,40.8,7.5c14.2,3.9,29,6.3,39.3,14.8c11.4,9.3,16.2,23.5,21.4,35.9
					C246.6,261.8,252.7,275.7,249.2,289.5z"/>
			</g>
			<g>
				<path class="st0" d="M249.2,292.9c-3.6,13.8-15.6,22.7-26.7,31.2c-10.5,8.1-21.7,17.9-36.1,20c-13,1.9-26.7-3.9-40.8-7.8
					c-14.2-4-29-6.3-39.4-14.8c-11.4-9.3-16.1-23.7-21.3-36c-5.5-13.2-11.7-27-8.1-40.8c3.6-13.8,15.6-22.7,26.7-31.2
					c10.5-8.1,21.7-17.9,36.1-20c13-1.9,26.7,3.9,40.8,7.8c14.2,4,29,6.3,39.4,14.8c11.4,9.3,16.1,23.7,21.3,36
					C246.6,265.2,252.8,279.1,249.2,292.9z"/>
			</g>
			<g>
				<path class="st0" d="M249.2,296.2c-3.6,13.8-15.9,22.5-27,30.9c-10.5,8-21.8,17.9-36.2,19.8c-13,1.8-26.6-4.2-40.7-8.2
					c-14.2-4-29.1-6.3-39.4-14.8c-11.4-9.3-16-23.8-21.1-36.1c-5.5-13.2-11.8-27.1-8.1-40.8c3.6-13.8,15.9-22.5,27-30.9
					c10.5-8,21.8-17.9,36.2-19.8c13-1.8,26.6,4.2,40.7,8.2c14.2,4,29.1,6.3,39.4,14.8c11.4,9.3,16,23.8,21.1,36.1
					C246.5,268.6,252.8,282.5,249.2,296.2z"/>
			</g>
			<g>
				<path class="st0" d="M249.2,299.6c-3.7,13.7-16.1,22.3-27.3,30.7c-10.6,7.9-21.9,17.8-36.3,19.7c-13,1.7-26.6-4.5-40.7-8.6
					c-14.1-4.1-29.1-6.2-39.4-14.7c-11.4-9.4-15.9-23.9-21-36.3c-5.5-13.2-11.9-27.1-8.2-40.8c3.7-13.7,16.1-22.3,27.3-30.7
					c10.6-7.9,21.9-17.8,36.3-19.7c13-1.7,26.6,4.5,40.7,8.6c14.1,4.1,29.1,6.2,39.4,14.7c11.4,9.4,15.9,23.9,21,36.3
					C246.4,272,252.9,285.9,249.2,299.6z"/>
			</g>
			<g>
				<path class="st0" d="M249.2,303c-3.7,13.7-16.3,22.2-27.6,30.5c-10.6,7.8-21.9,17.8-36.4,19.6c-13,1.6-26.6-4.8-40.7-8.9
					c-14.1-4.2-29.2-6.2-39.5-14.7c-11.4-9.4-15.8-24-20.9-36.4c-5.5-13.2-12-27.1-8.3-40.9c3.7-13.7,16.3-22.2,27.6-30.5
					c10.6-7.8,21.9-17.8,36.4-19.6c13-1.6,26.6,4.8,40.7,8.9c14.1,4.2,29.2,6.2,39.5,14.7c11.4,9.4,15.8,24,20.9,36.4
					C246.4,275.4,252.9,289.3,249.2,303z"/>
			</g>
			<g>
				<path class="st0" d="M249.1,306.4c-3.8,13.7-16.6,22-27.9,30.2c-10.7,7.7-22,17.7-36.6,19.4c-13,1.5-26.6-5.1-40.6-9.3
					c-14.1-4.2-29.2-6.2-39.5-14.7c-11.4-9.4-15.7-24.1-20.8-36.5c-5.5-13.2-12.1-27.2-8.3-40.9c3.8-13.7,16.6-22,27.9-30.2
					c10.7-7.7,22-17.7,36.6-19.4c13-1.5,26.6,5.1,40.6,9.3c14.1,4.2,29.2,6.2,39.5,14.7c11.4,9.4,15.7,24.1,20.8,36.5
					C246.3,278.8,252.9,292.7,249.1,306.4z"/>
			</g>
			<g>
				<path class="st0" d="M249.1,309.9c-3.8,13.7-16.8,21.8-28.3,30c-10.7,7.6-22.1,17.7-36.7,19.3c-13,1.4-26.5-5.4-40.6-9.6
					c-14.1-4.3-29.3-6.1-39.6-14.7c-11.4-9.4-15.5-24.2-20.6-36.6c-5.4-13.3-12.2-27.3-8.3-41c3.8-13.7,16.8-21.8,28.3-30
					c10.7-7.6,22.1-17.7,36.7-19.3c13-1.4,26.5,5.4,40.6,9.6c14.1,4.3,29.3,6.1,39.6,14.7c11.4,9.4,15.5,24.2,20.6,36.6
					C246.2,282.2,252.9,296.2,249.1,309.9z"/>
			</g>
			<g>
				<path class="st0" d="M249.1,313.3c-3.9,13.7-17,21.6-28.6,29.7c-10.8,7.5-22.2,17.7-36.8,19.2c-13,1.3-26.5-5.7-40.6-10
					c-14.1-4.3-29.4-6.1-39.6-14.7C92.1,328,88.1,313.1,83,300.8c-5.5-13.3-12.4-27.2-8.5-40.9s17-21.6,28.6-29.7
					c10.8-7.5,22.2-17.7,36.8-19.2c13-1.3,26.5,5.7,40.6,10c14.1,4.3,29.4,6.1,39.6,14.7c11.4,9.5,15.4,24.4,20.5,36.7
					C246.1,285.7,253,299.6,249.1,313.3z"/>
			</g>
			<g>
				<path class="st0" d="M249,316.7c-4,13.6-17.2,21.5-28.9,29.5c-10.8,7.4-22.3,17.6-36.9,19c-13.1,1.3-26.5-6-40.5-10.4
					c-14.1-4.4-29.4-6.1-39.7-14.6c-11.4-9.5-15.3-24.5-20.4-36.8c-5.5-13.3-12.5-27.3-8.5-40.9c4-13.6,17.2-21.5,28.9-29.5
					c10.8-7.4,22.3-17.6,36.9-19c13.1-1.3,26.5,6,40.5,10.4c14.1,4.4,29.4,6.1,39.7,14.6c11.4,9.5,15.3,24.5,20.4,36.8
					C246,289.1,252.9,303.1,249,316.7z"/>
			</g>
			<g>
				<path class="st0" d="M248.9,320.1c-4,13.6-17.5,21.3-29.2,29.2c-10.9,7.3-22.3,17.6-37,18.9c-13.1,1.2-26.5-6.3-40.5-10.7
					c-14.1-4.4-29.5-6-39.7-14.6c-11.4-9.5-15.2-24.6-20.2-36.9c-5.5-13.3-12.6-27.3-8.6-40.9c4-13.6,17.5-21.3,29.2-29.2
					c10.9-7.3,22.3-17.6,37-18.9c13.1-1.2,26.5,6.3,40.5,10.7c14.1,4.4,29.5,6,39.7,14.6c11.4,9.5,15.2,24.6,20.2,36.9
					C245.8,292.5,252.9,306.5,248.9,320.1z"/>
			</g>
			<g>
				<path class="st0" d="M248.8,323.5c-4.1,13.6-17.7,21.1-29.5,28.9c-10.9,7.3-22.4,17.6-37.1,18.8c-13.1,1.1-26.4-6.6-40.4-11.1
					c-14.1-4.5-29.6-6-39.8-14.6c-11.4-9.5-15.1-24.7-20.1-37c-5.5-13.4-12.7-27.3-8.6-41c4.1-13.6,17.7-21.1,29.5-28.9
					c10.9-7.3,22.4-17.6,37.1-18.8c13.1-1.1,26.4,6.6,40.4,11.1c14.1,4.5,29.6,6,39.8,14.6c11.4,9.5,15.1,24.7,20.1,37
					C245.7,295.9,252.9,309.9,248.8,323.5z"/>
			</g>
			<g>
				<path class="st0" d="M248.7,326.9c-4.1,13.6-17.9,20.9-29.8,28.7c-11,7.2-22.5,17.5-37.3,18.7c-13.1,1-26.4-6.9-40.4-11.4
					c-14.1-4.5-29.6-6-39.8-14.6c-11.4-9.6-14.9-24.8-20-37.1c-5.5-13.4-12.8-27.4-8.7-41c4.1-13.6,17.9-20.9,29.8-28.7
					c11-7.2,22.5-17.5,37.3-18.7c13.1-1,26.4,6.9,40.4,11.4c14.1,4.5,29.6,6,39.8,14.6c11.4,9.6,14.9,24.8,20,37.1
					C245.5,299.4,252.9,313.3,248.7,326.9z"/>
			</g>
			<g>
				<path class="st0" d="M248.6,330.3c-4.2,13.6-18.2,20.7-30.2,28.4c-11,7.1-22.6,17.5-37.4,18.5c-13.1,0.9-26.4-7.2-40.4-11.8
					c-14.1-4.6-29.7-5.9-39.9-14.5C89.4,341.4,86,326,81,313.7c-5.5-13.4-12.9-27.4-8.8-41c4.2-13.6,18.2-20.7,30.2-28.4
					c11-7.1,22.6-17.5,37.4-18.5c13.1-0.9,26.4,7.2,40.4,11.8c14.1,4.6,29.7,5.9,39.9,14.5c11.4,9.6,14.8,25,19.8,37.2
					C245.4,302.7,252.8,316.7,248.6,330.3z"/>
			</g>
			<g>
				<path class="st0" d="M248.5,333.7c-4.2,13.5-18.4,20.5-30.5,28.2c-11.1,7-22.7,17.5-37.5,18.4c-13.1,0.8-26.3-7.5-40.3-12.1
					c-14.1-4.7-29.8-5.9-40-14.5c-11.4-9.6-14.7-25.1-19.7-37.4c-5.5-13.4-13.1-27.5-8.8-41c4.2-13.5,18.4-20.5,30.5-28.2
					c11.1-7,22.7-17.5,37.5-18.4c13.1-0.8,26.3,7.5,40.3,12.1c14.1,4.7,29.8,5.9,40,14.5c11.4,9.6,14.7,25.1,19.7,37.4
					C245.2,306.1,252.7,320.1,248.5,333.7z"/>
			</g>
			<g>
				<path class="st0" d="M248.4,337c-4.3,13.5-18.6,20.3-30.8,27.9c-11.1,6.9-22.8,17.4-37.6,18.3c-13.1,0.8-26.3-7.8-40.3-12.5
					c-14.1-4.7-29.8-5.9-40-14.5c-11.4-9.7-14.6-25.2-19.6-37.5c-5.5-13.5-13.2-27.5-8.9-41c4.3-13.5,18.6-20.3,30.8-27.9
					c11.1-6.9,22.8-17.4,37.6-18.3c13.1-0.8,26.3,7.8,40.3,12.5c14.1,4.7,29.8,5.9,40,14.5c11.4,9.7,14.6,25.2,19.6,37.5
					C245,309.5,252.7,323.5,248.4,337z"/>
			</g>
			<g>
				<path class="st0" d="M248.2,340.3c-4.4,13.5-18.8,20.2-31.1,27.6c-11.2,6.8-22.9,17.4-37.8,18.2c-13.2,0.7-26.2-8.1-40.2-12.9
					s-29.9-5.8-40.1-14.5c-11.4-9.7-14.4-25.3-19.4-37.6c-5.5-13.5-13.3-27.6-8.9-41.1s18.8-20.2,31.1-27.6
					c11.2-6.8,22.9-17.4,37.8-18.2c13.2-0.7,26.2,8.1,40.2,12.9c14,4.8,29.9,5.8,40.1,14.5c11.4,9.7,14.4,25.3,19.4,37.6
					C244.8,312.8,252.6,326.8,248.2,340.3z"/>
			</g>
			<g>
				<path class="st0" d="M248,343.6c-4.4,13.5-19.1,20-31.4,27.3c-11.2,6.7-23,17.4-37.9,18.1c-13.2,0.6-26.2-8.4-40.2-13.2
					c-14-4.8-30-5.8-40.1-14.4C87,351.7,84.1,336,79.1,323.7c-5.5-13.5-13.4-27.6-9-41.1s19.1-20,31.4-27.3
					c11.2-6.7,23-17.4,37.9-18.1c13.2-0.6,26.2,8.4,40.2,13.2s30,5.8,40.1,14.4c11.4,9.7,14.3,25.4,19.3,37.7
					C244.5,316.1,252.5,330.2,248,343.6z"/>
			</g>
			<g>
				<path class="st0" d="M247.9,346.9c-4.5,13.4-19.3,19.8-31.7,27.1c-11.3,6.6-23.1,17.4-38,18c-13.2,0.5-26.2-8.7-40.1-13.6
					c-14-4.9-30-5.7-40.2-14.4c-11.4-9.7-14.2-25.6-19.2-37.8c-5.5-13.5-13.5-27.6-9.1-41.1c4.5-13.4,19.3-19.8,31.7-27.1
					c11.3-6.6,23.1-17.4,38-18c13.2-0.5,26.2,8.7,40.1,13.6c14,4.9,30,5.7,40.2,14.4c11.4,9.7,14.2,25.6,19.2,37.8
					C244.3,319.3,252.3,333.4,247.9,346.9z"/>
			</g>
			<g>
				<path class="st0" d="M247.7,350.1c-4.5,13.4-19.5,19.6-32.1,26.8c-11.3,6.5-23.2,17.3-38.1,17.8c-13.2,0.4-26.1-9-40.1-13.9
					s-30.1-5.7-40.2-14.4c-11.4-9.8-14.1-25.7-19-37.9c-5.5-13.6-13.7-27.7-9.1-41.1c4.5-13.4,19.5-19.6,32.1-26.8
					c11.3-6.5,23.2-17.3,38.1-17.8c13.2-0.4,26.1,9,40.1,13.9s30.1,5.7,40.2,14.4c11.4,9.8,14.1,25.7,19,37.9
					C244.1,322.6,252.2,336.7,247.7,350.1z"/>
			</g>
			<g>
				<path class="st0" d="M247.5,353.3c-4.6,13.4-19.7,19.4-32.4,26.5c-11.4,6.4-23.3,17.3-38.3,17.7c-13.2,0.4-26.1-9.3-40-14.3
					c-14-5-30.2-5.7-40.3-14.3c-11.4-9.8-13.9-25.8-18.9-38c-5.5-13.6-13.8-27.7-9.2-41.1c4.6-13.4,19.7-19.4,32.4-26.5
					c11.4-6.4,23.3-17.3,38.3-17.7c13.2-0.4,26.1,9.3,40,14.3c14,5,30.2,5.7,40.3,14.3c11.4,9.8,13.9,25.8,18.9,38
					C243.8,325.8,252.1,339.9,247.5,353.3z"/>
			</g>
			<g>
				<path class="st0" d="M247.2,356.5c-4.7,13.4-20,19.2-32.7,26.2c-11.4,6.3-23.4,17.3-38.4,17.6c-13.2,0.3-26-9.6-40-14.6
					s-30.3-5.6-40.4-14.3c-11.3-9.9-13.7-26-18.7-38.2c-5.5-13.6-13.9-27.8-9.3-41.2c4.7-13.4,20-19.2,32.7-26.2
					c11.4-6.3,23.4-17.3,38.4-17.6c13.2-0.3,26,9.6,40,14.6s30.3,5.6,40.4,14.3c11.4,9.8,13.8,25.9,18.8,38.1
					C243.5,328.9,251.9,343.1,247.2,356.5z"/>
			</g>
			<g>
				<path class="st0" d="M247,359.6c-4.7,13.4-20.2,18.9-33,25.9c-11.5,6.3-23.5,17.3-38.5,17.5c-13.2,0.2-26-9.9-39.9-15
					c-14-5.1-30.3-5.6-40.4-14.3c-11.4-9.9-13.7-26.1-18.6-38.3c-5.5-13.7-14-27.8-9.3-41.2c4.7-13.4,20.2-18.9,33-25.9
					c11.5-6.3,23.5-17.3,38.5-17.5c13.2-0.2,26,9.9,39.9,15c14,5.1,30.3,5.6,40.4,14.3c11.4,9.9,13.7,26.1,18.6,38.3
					C243.2,332,251.7,346.2,247,359.6z"/>
			</g>
			<g>
				<path class="st0" d="M246.7,362.6c-4.8,13.3-20.4,18.7-33.3,25.6c-11.5,6.2-23.6,17.2-38.6,17.4c-13.2,0.1-25.9-10.2-39.9-15.3
					c-14-5.1-30.4-5.5-40.5-14.3c-11.4-9.9-13.5-26.2-18.5-38.4c-5.5-13.7-14.2-27.9-9.4-41.2c4.8-13.3,20.4-18.7,33.3-25.6
					c11.5-6.2,23.6-17.2,38.6-17.4c13.2-0.1,25.9,10.2,39.9,15.3c14,5.1,30.4,5.5,40.5,14.3c11.4,9.9,13.5,26.2,18.5,38.4
					C242.9,335.1,251.5,349.3,246.7,362.6z"/>
			</g>
			<g>
				<path class="st0" d="M246.5,365.6c-4.8,13.3-20.6,18.5-33.6,25.3c-11.6,6.1-23.7,17.2-38.8,17.3c-13.3,0-25.9-10.5-39.8-15.7
					c-14-5.2-30.5-5.5-40.6-14.2c-11.4-9.9-13.4-26.3-18.3-38.5c-5.5-13.7-14.3-27.9-9.4-41.2c4.8-13.3,20.6-18.5,33.6-25.3
					c11.6-6.1,23.7-17.2,38.8-17.3c13.3,0,25.9,10.5,39.8,15.7c14,5.2,30.5,5.5,40.6,14.2c11.4,9.9,13.4,26.3,18.3,38.5
					C242.6,338.1,251.3,352.3,246.5,365.6z"/>
			</g>
			<g>
				<path class="st0" d="M246.2,368.6c-4.9,13.3-20.8,18.3-33.9,25c-11.6,6-23.8,17.2-38.9,17.2c-13.3,0-25.8-10.8-39.8-16
					S103,389.3,93,380.6c-11.5-9.9-13.3-26.4-18.2-38.6c-5.6-13.7-14.4-28-9.5-41.3s20.8-18.3,33.9-25c11.6-6,23.8-17.2,38.9-17.2
					c13.3,0,25.8,10.8,39.8,16s30.6,5.5,40.6,14.2c11.5,9.9,13.3,26.4,18.2,38.6C242.2,341,251.1,355.3,246.2,368.6z"/>
			</g>
			<g>
				<path class="st0" d="M245.9,371.5c-5,13.3-21.1,18.1-34.2,24.7c-11.7,5.9-23.9,17.2-39,17.1c-13.3-0.1-25.8-11.1-39.7-16.4
					c-14-5.3-30.6-5.4-40.7-14.2c-11.5-10-13.2-26.6-18.1-38.7c-5.6-13.8-14.5-28-9.6-41.3c5-13.3,21.1-18.1,34.2-24.7
					c11.7-5.9,23.9-17.2,39-17.1c13.3,0.1,25.8,11.1,39.7,16.4c14,5.3,30.6,5.4,40.7,14.2c11.5,10,13.2,26.6,18.1,38.7
					C241.9,343.9,250.8,358.2,245.9,371.5z"/>
			</g>
			<g>
				<path class="st0" d="M245.5,374.5c-5,13.2-21.3,17.9-34.6,24.4c-11.7,5.8-24,17.2-39.2,17c-13.3-0.2-25.7-11.4-39.7-16.7
					c-14-5.4-30.7-5.4-40.8-14.1c-11.5-10-13-26.7-17.9-38.8c-5.6-13.8-14.6-28.1-9.6-41.3c5-13.2,21.3-17.9,34.6-24.4
					c11.7-5.8,24-17.2,39.2-17c13.3,0.2,25.7,11.4,39.7,16.7c14,5.4,30.7,5.4,40.8,14.1c11.5,10,13,26.7,17.9,38.8
					C241.4,346.9,250.5,361.3,245.5,374.5z"/>
			</g>
			<g>
				<path class="st0" d="M245.1,377.8c-5.1,13.2-21.5,17.7-34.9,24.1c-11.8,5.7-24.1,17.2-39.3,16.9c-13.3-0.3-25.7-11.7-39.6-17.1
					s-30.8-5.3-40.8-14.1c-11.5-10-12.9-26.8-17.8-39c-5.6-13.8-14.8-28.2-9.7-41.4c5.1-13.2,21.5-17.7,34.9-24.1
					c11.8-5.7,24.1-17.2,39.3-16.9c13.3,0.3,25.7,11.7,39.6,17.1c13.9,5.4,30.8,5.3,40.8,14.1c11.5,10,12.9,26.8,17.8,39
					C240.9,350.3,250.1,364.6,245.1,377.8z"/>
			</g>
			<g>
				<path class="st0" d="M244.6,381.1c-5.1,13.2-21.7,17.4-35.2,23.8c-11.8,5.6-24.2,17.1-39.4,16.7c-13.3-0.3-25.6-12-39.6-17.4
					c-13.9-5.5-30.9-5.3-40.9-14.1C78,380,76.7,363.2,71.9,351c-5.6-13.8-14.9-28.2-9.8-41.4c5.1-13.2,21.7-17.4,35.2-23.8
					c11.8-5.6,24.2-17.1,39.4-16.7c13.3,0.3,25.6,12,39.6,17.4c13.9,5.5,30.9,5.3,40.9,14.1c11.5,10.1,12.8,26.9,17.6,39.1
					C240.4,353.5,249.8,367.9,244.6,381.1z"/>
			</g>
			<g>
				<path class="st0" d="M244.2,384.2c-5.2,13.2-21.9,17.2-35.5,23.5c-11.9,5.5-24.3,17.1-39.6,16.6c-13.3-0.4-25.6-12.3-39.5-17.8
					s-31-5.2-41-14c-11.5-10.1-12.6-27.1-17.5-39.2c-5.6-13.9-15-28.3-9.8-41.4c5.2-13.2,21.9-17.2,35.5-23.5
					c11.9-5.5,24.3-17.1,39.6-16.6c13.3,0.4,25.6,12.3,39.5,17.8s31,5.2,41,14c11.5,10.1,12.6,27.1,17.5,39.2
					C240,356.7,249.4,371.1,244.2,384.2z"/>
			</g>
			<g>
				<path class="st0" d="M243.8,387.3c-5.3,13.1-22.1,17-35.8,23.2c-11.9,5.4-24.4,17.1-39.7,16.5c-13.4-0.5-25.5-12.5-39.5-18.1
					c-13.9-5.6-31-5.2-41.1-14c-11.5-10.1-12.5-27.2-17.4-39.3c-5.6-13.9-15.1-28.3-9.9-41.5c5.3-13.1,22.1-17,35.8-23.2
					c11.9-5.4,24.4-17.1,39.7-16.5c13.4,0.5,25.5,12.5,39.5,18.1c13.9,5.6,31,5.2,41.1,14c11.5,10.1,12.5,27.2,17.4,39.3
					C239.5,359.8,249,374.2,243.8,387.3z"/>
			</g>
			<g>
				<path class="st0" d="M243.3,390.3c-5.3,13.1-22.4,16.8-36.1,22.9c-12,5.3-24.5,17.1-39.8,16.4c-13.4-0.6-25.5-12.8-39.4-18.5
					c-13.9-5.6-31.1-5.1-41.1-14c-11.5-10.1-12.4-27.3-17.2-39.4c-5.6-13.9-15.3-28.4-9.9-41.5c5.3-13.1,22.4-16.8,36.1-22.9
					c12-5.3,24.5-17.1,39.8-16.4c13.4,0.6,25.5,12.8,39.4,18.5c13.9,5.6,31.1,5.1,41.1,14c11.5,10.1,12.4,27.3,17.2,39.4
					C239,362.8,248.6,377.2,243.3,390.3z"/>
			</g>
			<g>
				<path class="st0" d="M242.9,393.3c-5.4,13.1-22.6,16.5-36.4,22.6c-12,5.3-24.6,17.1-40,16.3c-13.4-0.6-25.4-13.1-39.3-18.8
					c-13.9-5.7-31.2-5.1-41.2-13.9c-11.5-10.2-12.2-27.4-17.1-39.6c-5.6-14-15.4-28.4-10-41.5s22.6-16.5,36.4-22.6
					c12-5.3,24.6-17.1,40-16.3c13.4,0.6,25.4,13.1,39.3,18.8c13.9,5.7,31.2,5.1,41.2,13.9c11.5,10.2,12.2,27.4,17.1,39.6
					C238.5,365.7,248.3,380.2,242.9,393.3z"/>
			</g>
			<g>
				<path class="st0" d="M242.5,396.1c-5.4,13-22.8,16.3-36.7,22.3c-12,5.2-24.8,17.1-40.1,16.3c-13.4-0.7-25.4-13.4-39.3-19.1
					s-31.3-5-41.3-13.9c-11.5-10.3-12.1-27.7-17-39.8c-5.6-14-15.5-28.5-10.1-41.6c5.4-13,22.8-16.3,36.7-22.3
					c12-5.2,24.8-17.1,40.1-16.3c13.4,0.7,25.4,13.4,39.3,19.1c13.9,5.7,31.3,5,41.3,13.9c11.5,10.2,12.1,27.6,16.9,39.7
					C238,368.6,247.9,383.1,242.5,396.1z"/>
			</g>
			<g>
				<path class="st0" d="M242,398.9c-5.5,13-23,16.1-37,21.9c-12.1,5.1-24.9,17.1-40.3,16.2c-13.4-0.8-25.3-13.7-39.2-19.5
					s-31.4-5-41.4-13.9c-11.5-10.2-11.9-27.7-16.8-39.8c-5.6-14-15.6-28.6-10.1-41.6s23-16.1,37-21.9c12.1-5.1,24.9-17.1,40.3-16.2
					c13.4,0.8,25.3,13.7,39.2,19.5s31.4,5,41.4,13.9c11.5,10.2,11.9,27.7,16.8,39.8C237.5,371.4,247.5,385.9,242,398.9z"/>
			</g>
			<g>
				<path class="st0" d="M241.6,401.7c-5.6,13-23.2,15.8-37.3,21.6c-12.1,5-25,17.1-40.4,16.1c-13.4-0.9-25.2-14-39.2-19.8
					c-13.9-5.8-31.5-4.9-41.4-13.8c-11.5-10.3-11.8-27.8-16.6-39.9c-5.6-14-15.8-28.6-10.2-41.6s23.2-15.8,37.3-21.6
					c12.1-5,25-17.1,40.4-16.1c13.4,0.9,25.2,14,39.2,19.8c13.9,5.8,31.5,4.9,41.4,13.8c11.5,10.3,11.8,27.8,16.6,39.9
					C237,374.1,247.1,388.7,241.6,401.7z"/>
			</g>
			<g>
				<path class="st0" d="M241.1,404.4c-5.6,13-23.4,15.6-37.6,21.3c-12.2,4.9-25.1,17-40.6,16c-13.4-0.9-25.2-14.3-39.1-20.2
					c-13.9-5.9-31.6-4.9-41.5-13.8c-11.5-10.3-11.7-27.9-16.5-40C60.2,353.6,49.9,339,55.5,326s23.4-15.6,37.6-21.3
					c12.2-4.9,25.1-17,40.6-16c13.4,0.9,25.2,14.3,39.1,20.2c13.9,5.9,31.6,4.9,41.5,13.8c11.5,10.3,11.7,27.9,16.5,40
					C236.5,376.8,246.8,391.4,241.1,404.4z"/>
			</g>
			<g>
				<path class="st0" d="M240.7,407c-5.7,12.9-23.6,15.3-37.9,21c-12.2,4.8-25.2,17-40.7,15.9c-13.5-1-25.1-14.6-39-20.5
					s-31.7-4.9-41.6-13.8C70,399.3,70,381.5,65.1,369.4c-5.6-14.1-16-28.8-10.3-41.7c5.7-12.9,23.6-15.3,37.9-21
					c12.2-4.8,25.2-17,40.7-15.9c13.5,1,25.1,14.6,39,20.5s31.7,4.9,41.6,13.8c11.5,10.3,11.5,28.1,16.4,40.2
					C236,379.4,246.4,394.1,240.7,407z"/>
			</g>
			<g>
				<path class="st0" d="M240.2,409.6c-5.7,12.9-23.8,15.1-38.2,20.6c-12.3,4.7-25.3,17-40.8,15.8c-13.5-1.1-25.1-14.9-39-20.9
					s-31.7-4.8-41.7-13.7C69,401,69.2,383.2,64.3,371.1C58.7,357,48.2,342.3,54,329.4c5.7-12.9,23.8-15.1,38.2-20.6
					c12.3-4.7,25.3-17,40.8-15.8c13.5,1.1,25.1,14.9,39,20.9s31.7,4.8,41.7,13.7c11.5,10.4,11.4,28.2,16.2,40.3
					C235.5,382,246,396.7,240.2,409.6z"/>
			</g>
			<g>
				<path class="st0" d="M239.8,412.1c-5.8,12.9-24,14.8-38.5,20.3c-12.3,4.6-25.5,17-41,15.7c-13.5-1.2-25-15.2-38.9-21.2
					s-31.8-4.8-41.8-13.7c-11.5-10.4-11.3-28.3-16.1-40.4c-5.6-14.2-16.3-28.9-10.4-41.8c5.8-12.9,24-14.8,38.5-20.3
					c12.3-4.6,25.5-17,41-15.7c13.5,1.2,25,15.2,38.9,21.2s31.8,4.8,41.8,13.7c11.5,10.4,11.3,28.3,16.1,40.4
					C235,384.5,245.6,399.2,239.8,412.1z"/>
			</g>
			<g>
				<path class="st0" d="M239.3,414.6c-5.9,12.8-24.2,14.6-38.8,19.9c-12.4,4.5-25.6,17-41.1,15.6c-13.5-1.2-24.9-15.5-38.8-21.6
					c-13.8-6.1-31.9-4.7-41.8-13.7c-11.5-10.4-11.1-28.5-15.9-40.5c-5.6-14.2-16.4-29-10.5-41.8s24.2-14.6,38.8-19.9
					c12.4-4.5,25.6-17,41.1-15.6c13.5,1.2,24.9,15.5,38.8,21.6c13.8,6.1,31.9,4.7,41.8,13.7c11.5,10.4,11.1,28.5,15.9,40.5
					C234.4,387,245.2,401.7,239.3,414.6z"/>
			</g>
			<g>
				<path class="st0" d="M238.8,417c-5.9,12.8-24.4,14.3-39.1,19.6c-12.4,4.5-25.7,17-41.3,15.5c-13.5-1.3-24.9-15.8-38.8-21.9
					c-13.8-6.1-32-4.7-41.9-13.6C66.2,406.2,66.8,388,62,376c-5.6-14.2-16.5-29-10.6-41.9c5.9-12.8,24.4-14.3,39.1-19.6
					c12.4-4.5,25.7-17,41.3-15.5c13.5,1.3,24.9,15.8,38.8,21.9c13.8,6.1,32,4.7,41.9,13.6c11.5,10.4,11,28.6,15.8,40.7
					C233.9,389.4,244.7,404.2,238.8,417z"/>
			</g>
			<g>
				<path class="st0" d="M238.3,419.4c-6,12.8-24.6,14.1-39.4,19.3c-12.4,4.4-25.8,17-41.4,15.4c-13.5-1.4-24.8-16-38.7-22.2
					c-13.8-6.2-32.1-4.6-42-13.6c-11.5-10.5-10.8-28.7-15.6-40.8c-5.7-14.3-16.6-29.1-10.6-41.9s24.6-14.1,39.4-19.3
					c12.4-4.4,25.8-17,41.4-15.4c13.5,1.4,24.8,16,38.7,22.2c13.8,6.2,32.1,4.6,42,13.6c11.5,10.5,10.8,28.7,15.6,40.8
					C233.3,391.8,244.3,406.6,238.3,419.4z"/>
			</g>
			<g>
				<path class="st0" d="M237.8,421.8c-6.1,12.7-24.8,13.8-39.7,18.9c-12.5,4.3-26,17-41.6,15.4c-13.5-1.4-24.7-16.3-38.6-22.6
					c-13.8-6.2-32.2-4.6-42.1-13.6c-11.5-10.5-10.7-28.8-15.5-40.9c-5.7-14.3-16.8-29.2-10.7-41.9c6.1-12.7,24.8-13.8,39.7-18.9
					c12.5-4.3,26-17,41.6-15.4c13.5,1.4,24.7,16.3,38.6,22.6c13.8,6.2,32.2,4.6,42.1,13.6c11.5,10.5,10.7,28.8,15.5,40.9
					C232.7,394.2,243.8,409,237.8,421.8z"/>
			</g>
			<g>
				<path class="st0" d="M237.2,424.2c-6.1,12.7-25,13.6-40,18.6c-12.5,4.2-26.1,17-41.7,15.3c-13.6-1.5-24.7-16.6-38.6-22.9
					c-13.8-6.3-32.3-4.5-42.2-13.5c-11.5-10.5-10.5-29-15.3-41c-5.7-14.3-16.9-29.2-10.7-42c6.1-12.7,25-13.6,40-18.6
					c12.5-4.2,26.1-17,41.7-15.3c13.6,1.5,24.7,16.6,38.6,22.9c13.8,6.3,32.3,4.5,42.2,13.5c11.5,10.5,10.5,29,15.3,41
					C232.2,396.5,243.4,411.4,237.2,424.2z"/>
			</g>
			<g>
				<path class="st0" d="M236.7,426.5c-6.2,12.7-25.2,13.3-40.2,18.2c-12.6,4.1-26.2,17-41.9,15.2c-13.6-1.6-24.6-16.9-38.5-23.3
					c-13.8-6.3-32.4-4.4-42.3-13.5C62.3,412.6,63.4,394,58.6,382c-5.7-14.3-17-29.3-10.8-42S73,326.7,88,321.8
					c12.6-4.1,26.2-17,41.9-15.2c13.6,1.6,24.6,16.9,38.5,23.3c13.8,6.3,32.4,4.4,42.3,13.5c11.5,10.6,10.4,29.1,15.2,41.1
					C231.6,398.8,242.9,413.8,236.7,426.5z"/>
			</g>
			<g>
				<path class="st0" d="M236.1,428.8c-6.2,12.6-25.4,13.1-40.5,17.9c-12.6,4-26.4,17-42,15.1c-13.6-1.7-24.5-17.2-38.4-23.6
					c-13.8-6.3-32.5-4.4-42.4-13.4c-11.5-10.6-10.3-29.2-15-41.3C52.1,369,40.6,354,46.9,341.3c6.2-12.6,25.4-13.1,40.5-17.9
					c12.6-4,26.4-17,42-15.1C143,310,154,325.6,167.9,332c13.8,6.3,32.5,4.4,42.4,13.4c11.5,10.6,10.3,29.2,15,41.3
					C230.9,401.1,242.4,416.1,236.1,428.8z"/>
			</g>
			<g>
				<path class="st0" d="M235.5,431c-6.3,12.6-25.6,12.8-40.8,17.5c-12.7,3.9-26.5,17-42.2,15c-13.6-1.7-24.5-17.5-38.4-23.9
					c-13.8-6.4-32.6-4.3-42.4-13.4c-11.5-10.6-10.1-29.4-14.9-41.4c-5.7-14.4-17.3-29.5-10.9-42.1c6.3-12.6,25.6-12.8,40.8-17.5
					c12.7-3.9,26.5-17,42.2-15c13.6,1.7,24.5,17.5,38.4,23.9c13.8,6.4,32.6,4.3,42.4,13.4c11.5,10.6,10.1,29.4,14.9,41.4
					C230.3,403.3,241.9,418.4,235.5,431z"/>
			</g>
			<g>
				<path class="st0" d="M234.9,433.3c-6.4,12.6-25.8,12.5-41.1,17.2c-12.7,3.8-26.6,17-42.4,14.9c-13.6-1.8-24.4-17.8-38.3-24.3
					c-13.8-6.4-32.7-4.3-42.5-13.4c-11.5-10.6-10-29.5-14.7-41.5c-5.7-14.4-17.4-29.5-11-42.2c6.4-12.6,25.8-12.5,41.1-17.2
					c12.7-3.8,26.6-17,42.4-14.9c13.6,1.8,24.4,17.8,38.3,24.3c13.8,6.4,32.7,4.3,42.5,13.4c11.5,10.6,10,29.5,14.7,41.5
					C229.6,405.6,241.3,420.7,234.9,433.3z"/>
			</g>
			<g>
				<path class="st0" d="M234.3,435.6c-6.4,12.5-26,12.3-41.4,16.8c-12.7,3.8-26.8,17-42.5,14.9c-13.6-1.9-24.3-18.1-38.2-24.6
					c-13.8-6.5-32.8-4.2-42.6-13.3C58,418.6,59.7,399.7,55,387.6c-5.7-14.4-17.5-29.6-11-42.2c6.4-12.5,26-12.3,41.4-16.8
					c12.7-3.8,26.8-17,42.5-14.9c13.6,1.9,24.3,18.1,38.2,24.6c13.8,6.5,32.8,4.2,42.6,13.3c11.5,10.7,9.8,29.6,14.5,41.7
					C229,407.8,240.8,423,234.3,435.6z"/>
			</g>
			<g>
				<path class="st0" d="M233.7,437.8c-6.5,12.5-26.2,12-41.7,16.4c-12.8,3.7-26.9,17-42.7,14.8c-13.7-1.9-24.2-18.4-38.2-25
					c-13.8-6.5-32.9-4.2-42.7-13.3C56.9,420.1,58.8,401,54,389c-5.7-14.5-17.6-29.7-11.1-42.3c6.5-12.5,26.2-12,41.7-16.4
					c12.8-3.7,26.9-17,42.7-14.8c13.7,1.9,24.2,18.4,38.2,25c13.8,6.5,32.9,4.2,42.7,13.3c11.5,10.7,9.7,29.8,14.4,41.8
					C228.3,410.1,240.2,425.3,233.7,437.8z"/>
			</g>
			<g>
				<path class="st0" d="M233,440.1c-6.6,12.5-26.4,11.7-41.9,16.1c-12.8,3.6-27,17-42.8,14.7c-13.7-2-24.2-18.6-38.1-25.3
					c-13.8-6.6-33-4.1-42.8-13.2c-11.5-10.7-9.5-29.9-14.2-41.9C47.5,376,35.4,360.7,42,348.2s26.4-11.7,41.9-16.1
					c12.8-3.6,27-17,42.8-14.7c13.7,2,24.2,18.6,38.1,25.3c13.8,6.6,33,4.1,42.8,13.2c11.5,10.7,9.5,29.9,14.2,41.9
					C227.5,412.3,239.6,427.5,233,440.1z"/>
			</g>
			<g>
				<path class="st0" d="M232.3,442.3c-6.6,12.4-26.6,11.4-42.2,15.7c-12.9,3.5-27.2,17-43,14.6c-13.7-2.1-24.1-18.9-38-25.7
					c-13.8-6.6-33.1-4.1-42.9-13.2c-11.5-10.8-9.4-30-14.1-42c-5.7-14.6-17.9-29.9-11.2-42.4C47.4,337,67.4,338,83,333.7
					c12.9-3.5,27.2-17,43-14.6c13.7,2.1,24.1,18.9,38,25.6c13.8,6.6,33.1,4.1,42.9,13.2c11.5,10.8,9.4,30,14.1,42
					C226.8,414.5,238.9,429.8,232.3,442.3z"/>
			</g>
			<g>
				<path class="st0" d="M231.6,444.6c-6.7,12.4-26.8,11.2-42.5,15.3c-12.9,3.4-27.3,17.1-43.2,14.6c-13.7-2.1-24-19.2-38-26
					c-13.7-6.7-33.2-4-43-13.2c-11.6-10.8-9.2-30.1-13.9-42.2c-5.7-14.6-18-29.9-11.3-42.4c6.7-12.4,26.8-11.2,42.5-15.3
					c12.9-3.4,27.3-17.1,43.2-14.6c13.7,2.1,24,19.2,38,26c13.7,6.7,33.2,4,43,13.2c11.6,10.8,9.2,30.1,13.9,42.2
					C226,416.7,238.3,432.1,231.6,444.6z"/>
			</g>
			<g>
				<path class="st0" d="M230.8,446.8c-6.7,12.4-27,10.9-42.8,15c-12.9,3.3-27.4,17.1-43.3,14.5c-13.7-2.2-23.9-19.5-37.9-26.3
					c-13.7-6.7-33.3-4-43.1-13.1c-11.5-10.9-9-30.4-13.7-42.4c-5.7-14.6-18.1-30-11.4-42.5c6.7-12.4,27-10.9,42.8-15
					c12.9-3.3,27.4-17.1,43.3-14.5c13.7,2.2,23.9,19.5,37.9,26.3c13.7,6.7,33.3,4,43.1,13.1c11.6,10.8,9.1,30.3,13.8,42.3
					C225.2,419,237.6,434.4,230.8,446.8z"/>
			</g>
			<g>
				<path class="st0" d="M230,449.1c-6.8,12.3-27.2,10.6-43.1,14.6c-13,3.2-27.6,17.1-43.5,14.4c-13.7-2.3-23.9-19.8-37.8-26.7
					c-13.7-6.8-33.4-3.9-43.2-13.1c-11.6-10.9-8.9-30.4-13.6-42.4c-5.7-14.7-18.3-30.1-11.4-42.5c6.8-12.3,27.2-10.6,43.1-14.6
					c13-3.2,27.6-17.1,43.5-14.4c13.7,2.3,23.9,19.8,37.8,26.7c13.7,6.8,33.4,3.9,43.2,13.1c11.6,10.9,8.9,30.4,13.6,42.4
					C224.4,421.2,236.9,436.7,230,449.1z"/>
			</g>
			<g>
				<path class="st0" d="M229.2,451.4c-6.9,12.3-27.3,10.3-43.3,14.2c-13,3.2-27.7,17.1-43.6,14.4c-13.8-2.4-23.8-20.1-37.7-27
					c-13.7-6.8-33.6-3.9-43.3-13c-11.6-10.9-8.8-30.5-13.4-42.5c-5.7-14.7-18.4-30.2-11.5-42.6c6.9-12.3,27.3-10.3,43.3-14.2
					c13-3.2,27.7-17.1,43.6-14.4c13.8,2.4,23.8,20.1,37.7,27c13.7,6.8,33.6,3.9,43.3,13c11.6,10.9,8.8,30.5,13.4,42.5
					C223.5,423.5,236.1,439,229.2,451.4z"/>
			</g>
			<g>
				<path class="st0" d="M228.4,453.7c-6.9,12.3-27.5,10-43.6,13.8c-13.1,3.1-27.9,17.1-43.8,14.3c-13.8-2.4-23.7-20.4-37.7-27.3
					c-13.7-6.9-33.7-3.8-43.4-13c-11.6-10.9-8.6-30.7-13.3-42.7c-5.7-14.7-18.5-30.3-11.5-42.6c6.9-12.3,27.5-10,43.6-13.8
					c13.1-3.1,27.9-17.1,43.8-14.3c13.8,2.4,23.7,20.4,37.7,27.3c13.7,6.9,33.7,3.8,43.4,13c11.6,10.9,8.6,30.7,13.3,42.7
					C222.6,425.8,235.3,441.3,228.4,453.7z"/>
			</g>
			<g>
				<path class="st0" d="M227.5,456c-7,12.2-27.7,9.8-43.9,13.4c-13.1,3-28,17.1-44,14.2C125.9,481.1,116,463,102,456
					c-13.7-6.9-33.8-3.7-43.5-13c-11.6-10.9-8.5-30.8-13.1-42.8c-5.8-14.8-18.6-30.4-11.6-42.7c7-12.2,27.7-9.8,43.9-13.4
					c13.1-3,28-17.1,44-14.2c13.8,2.5,23.6,20.6,37.6,27.7c13.7,6.9,33.8,3.7,43.5,13c11.6,10.9,8.5,30.8,13.1,42.8
					C221.7,428.1,234.5,443.7,227.5,456z"/>
			</g>
			<g>
				<path class="st0" d="M226.6,458.3c-7.1,12.2-27.9,9.5-44.1,13.1c-13.1,2.9-28.2,17.1-44.1,14.2c-13.8-2.6-23.6-20.9-37.5-28
					c-13.7-7-33.9-3.7-43.6-12.9c-11.6-11-8.3-30.9-13-42.9c-5.8-14.8-18.8-30.5-11.6-42.7c7.1-12.2,27.9-9.5,44.1-13.1
					c13.1-2.9,28.2-17.1,44.1-14.2c13.8,2.6,23.6,20.9,37.5,28c13.7,7,33.9,3.7,43.6,12.9c11.6,11,8.3,30.9,13,42.9
					C220.7,430.4,233.7,446.1,226.6,458.3z"/>
			</g>
			<g>
				<path class="st0" d="M225.6,460.7c-7.1,12.2-28.1,9.2-44.4,12.7c-13.2,2.8-28.3,17.1-44.3,14.1c-13.8-2.6-23.5-21.2-37.5-28.4
					c-13.7-7-34-3.6-43.7-12.9c-11.6-11-8.1-31.1-12.8-43.1c-5.8-14.8-18.9-30.5-11.7-42.8c7.1-12.2,28.1-9.2,44.4-12.7
					c13.2-2.8,28.3-17.1,44.3-14.1c13.8,2.6,23.5,21.2,37.5,28.4c13.7,7,34,3.6,43.7,12.9c11.6,11,8.1,31.1,12.8,43.1
					C219.7,432.7,232.8,448.5,225.6,460.7z"/>
			</g>
			<g>
				<path class="st0" d="M224.6,463.1c-7.2,12.1-28.2,8.9-44.7,12.3c-13.2,2.7-28.5,17.1-44.5,14c-13.8-2.7-23.4-21.5-37.4-28.7
					c-13.7-7-34.1-3.6-43.8-12.8c-11.6-11-8-31.2-12.6-43.2c-5.8-14.9-19-30.6-11.8-42.8C37,349.8,58,353,74.5,349.6
					c13.2-2.7,28.5-17.1,44.5-14c13.8,2.7,23.4,21.5,37.4,28.7c13.7,7,34.1,3.6,43.8,12.8c11.6,11,8,31.2,12.6,43.2
					C218.7,435.1,231.9,450.9,224.6,463.1z"/>
			</g>
			<g>
				<path class="st0" d="M223.6,465.6c-7.3,12.1-28.4,8.6-44.9,11.9c-13.3,2.6-28.6,17.2-44.7,14c-13.9-2.8-23.3-21.8-37.3-29
					c-13.7-7.1-34.2-3.5-43.9-12.8c-11.6-11.1-7.8-31.3-12.5-43.3c-5.8-14.9-19.1-30.7-11.8-42.9c7.3-12.1,28.4-8.6,44.9-11.9
					c13.3-2.6,28.6-17.2,44.7-14c13.9,2.8,23.3,21.8,37.3,29c13.7,7.1,34.2,3.5,43.9,12.8c11.6,11.1,7.8,31.3,12.5,43.3
					C217.6,437.6,230.9,453.4,223.6,465.6z"/>
			</g>
			<g>
				<path class="st0" d="M222.6,468c-7.3,12-28.6,8.3-45.2,11.5c-13.3,2.6-28.8,17.2-44.8,13.9c-13.9-2.8-23.2-22.1-37.2-29.4
					c-13.7-7.1-34.3-3.5-44-12.7c-11.6-11.1-7.7-31.5-12.3-43.5c-5.8-14.9-19.2-30.8-11.9-43c7.3-12,28.6-8.3,45.2-11.5
					c13.3-2.6,28.8-17.2,44.8-13.9c13.9,2.8,23.2,22.1,37.2,29.4c13.7,7.1,34.3,3.5,44,12.7c11.6,11.1,7.7,31.5,12.3,43.5
					C216.5,440,229.9,455.9,222.6,468z"/>
			</g>
			<g>
				<path class="st0" d="M221.5,470.6c-7.4,12-28.8,8-45.5,11.1c-13.3,2.5-28.9,17.2-45,13.8c-13.9-2.9-23.2-22.4-37.1-29.7
					c-13.7-7.2-34.5-3.4-44.1-12.7c-11.6-11.1-7.5-31.6-12.2-43.6c-5.8-15-19.4-30.9-11.9-43c7.4-12,28.8-8,45.5-11.1
					c13.3-2.5,28.9-17.2,45-13.8c13.9,2.9,23.2,22.4,37.1,29.7c13.7,7.2,34.5,3.4,44.1,12.7c11.6,11.1,7.5,31.6,12.2,43.6
					C215.3,442.5,228.9,458.5,221.5,470.6z"/>
			</g>
			<g>
				<path class="st0" d="M220.3,473.2c-7.4,12-28.9,7.7-45.7,10.7c-13.4,2.4-29.1,17.2-45.2,13.8c-13.9-3-23.1-22.6-37.1-30.1
					c-13.7-7.2-34.6-3.3-44.2-12.7c-11.6-11.2-7.4-31.8-12-43.7c-5.8-15-19.5-31-12-43.1c7.4-12,28.9-7.7,45.7-10.7
					c13.4-2.4,29.1-17.2,45.2-13.8c13.9,3,23.1,22.6,37.1,30.1c13.7,7.2,34.6,3.3,44.2,12.7c11.6,11.2,7.4,31.8,12,43.7
					C214.1,445.1,227.8,461.1,220.3,473.2z"/>
			</g>
		</g>
	</g>
</g>
<g>
	<g>
		
			<ellipse transform="matrix(0.1636 -0.9865 0.9865 0.1636 -89.6082 446.7357)" class="st0" cx="218.7" cy="276.2" rx="29.5" ry="28.8"/>
		
			<ellipse transform="matrix(0.1586 -0.9873 0.9873 0.1586 -88.7962 448.4736)" class="st0" cx="218.7" cy="276.3" rx="29.3" ry="28.6"/>
		
			<ellipse transform="matrix(0.1535 -0.9881 0.9881 0.1535 -87.8869 450.3605)" class="st0" cx="218.9" cy="276.5" rx="29" ry="28.4"/>
		
			<ellipse transform="matrix(0.1484 -0.9889 0.9889 0.1484 -87.0021 452.476)" class="st0" cx="219.2" cy="276.8" rx="28.8" ry="28.2"/>
		
			<ellipse transform="matrix(0.1432 -0.9897 0.9897 0.1432 -86.2111 454.8749)" class="st0" cx="219.6" cy="277.2" rx="28.6" ry="28"/>
		
			<ellipse transform="matrix(0.1379 -0.9904 0.9904 0.1379 -85.3971 457.2925)" class="st0" cx="220" cy="277.7" rx="28.4" ry="27.8"/>
		
			<ellipse transform="matrix(0.1325 -0.9912 0.9912 0.1325 -84.4156 460.042)" class="st0" cx="220.6" cy="278.2" rx="28.2" ry="27.6"/>
		
			<ellipse transform="matrix(0.1271 -0.9919 0.9919 0.1271 -83.4439 463.0017)" class="st0" cx="221.3" cy="278.9" rx="28" ry="27.4"/>
		
			<ellipse transform="matrix(0.1215 -0.9926 0.9926 0.1215 -82.4388 466.0405)" class="st0" cx="222.1" cy="279.6" rx="27.8" ry="27.2"/>
		
			<ellipse transform="matrix(0.1159 -0.9933 0.9933 0.1159 -81.4724 469.3734)" class="st0" cx="222.9" cy="280.5" rx="27.6" ry="27"/>
		
			<ellipse transform="matrix(0.1101 -0.9939 0.9939 0.1101 -80.413 472.8784)" class="st0" cx="223.9" cy="281.3" rx="27.4" ry="26.8"/>
		
			<ellipse transform="matrix(0.1043 -0.9945 0.9945 0.1043 -79.2184 476.4102)" class="st0" cx="224.9" cy="282.2" rx="27.2" ry="26.6"/>
		
			<ellipse transform="matrix(9.842238e-02 -0.9951 0.9951 9.842238e-02 -78.068 480.1075)" class="st0" cx="225.9" cy="283.1" rx="27" ry="26.4"/>
		
			<ellipse transform="matrix(9.242019e-02 -0.9957 0.9957 9.242019e-02 -76.8551 484.0715)" class="st0" cx="227.1" cy="284.2" rx="26.8" ry="26.2"/>
		
			<ellipse transform="matrix(8.632134e-02 -0.9963 0.9963 8.632134e-02 -75.351 488.1397)" class="st0" cx="228.5" cy="285.2" rx="26.6" ry="26"/>
		
			<ellipse transform="matrix(8.013264e-02 -0.9968 0.9968 8.013264e-02 -73.9684 492.2455)" class="st0" cx="229.7" cy="286.2" rx="26.4" ry="25.8"/>
		
			<ellipse transform="matrix(7.384376e-02 -0.9973 0.9973 7.384376e-02 -72.4521 496.4204)" class="st0" cx="231" cy="287.2" rx="26.2" ry="25.6"/>
		
			<ellipse transform="matrix(6.746037e-02 -0.9977 0.9977 6.746037e-02 -70.8557 500.8409)" class="st0" cx="232.5" cy="288.3" rx="26" ry="25.4"/>
		
			<ellipse transform="matrix(6.097341e-02 -0.9981 0.9981 6.097341e-02 -69.0877 505.3196)" class="st0" cx="234" cy="289.4" rx="25.8" ry="25.2"/>
		
			<ellipse transform="matrix(5.438188e-02 -0.9985 0.9985 5.438188e-02 -67.3246 509.8331)" class="st0" cx="235.5" cy="290.5" rx="25.6" ry="25"/>
		
			<ellipse transform="matrix(4.768488e-02 -0.9989 0.9989 4.768488e-02 -65.2656 514.4972)" class="st0" cx="237.2" cy="291.5" rx="25.4" ry="24.8"/>
		
			<ellipse transform="matrix(4.088565e-02 -0.9992 0.9992 4.088565e-02 -63.2281 519.1779)" class="st0" cx="238.8" cy="292.5" rx="25.2" ry="24.6"/>
		
			<ellipse transform="matrix(3.398138e-02 -0.9994 0.9994 3.398138e-02 -61.0933 523.7795)" class="st0" cx="240.4" cy="293.5" rx="25" ry="24.4"/>
		
			<ellipse transform="matrix(2.696656e-02 -0.9996 0.9996 2.696656e-02 -58.7077 528.6015)" class="st0" cx="242.2" cy="294.5" rx="24.8" ry="24.2"/>
		
			<ellipse transform="matrix(1.984058e-02 -0.9998 0.9998 1.984058e-02 -56.1353 533.3353)" class="st0" cx="243.9" cy="295.3" rx="24.6" ry="24.1"/>
		
			<ellipse transform="matrix(1.260420e-02 -0.9999 0.9999 1.260420e-02 -53.5162 538.0627)" class="st0" cx="245.7" cy="296.1" rx="24.4" ry="23.9"/>
		
			<ellipse transform="matrix(5.254293e-03 -1 1 5.254293e-03 -50.6798 542.8844)" class="st0" cx="247.5" cy="296.9" rx="24.2" ry="23.7"/>
		
			<ellipse transform="matrix(1 -2.209652e-03 2.209652e-03 1 -0.657 0.5516)" class="st0" cx="249.3" cy="297.6" rx="23.5" ry="24.1"/>
		
			<ellipse transform="matrix(1 -9.789074e-03 9.789074e-03 1 -2.9074 2.4727)" class="st0" cx="251.1" cy="298.2" rx="23.3" ry="23.9"/>
		
			<ellipse transform="matrix(0.9998 -1.748749e-02 1.748749e-02 0.9998 -5.185 4.4649)" class="st0" cx="252.7" cy="298.7" rx="23.1" ry="23.7"/>
		
			<ellipse transform="matrix(0.9997 -2.530188e-02 2.530188e-02 0.9997 -7.4896 6.5333)" class="st0" cx="254.4" cy="299.2" rx="23" ry="23.5"/>
		
			<ellipse transform="matrix(0.9994 -3.323957e-02 3.323957e-02 0.9994 -9.8174 8.6785)" class="st0" cx="256.1" cy="299.6" rx="22.8" ry="23.3"/>
		
			<ellipse transform="matrix(0.9991 -4.129665e-02 4.129665e-02 0.9991 -12.1694 10.9066)" class="st0" cx="257.9" cy="300" rx="22.6" ry="23.1"/>
		
			<ellipse transform="matrix(0.9988 -4.947251e-02 4.947251e-02 0.9988 -14.545 13.2172)" class="st0" cx="259.7" cy="300.4" rx="22.4" ry="23"/>
		
			<ellipse transform="matrix(0.9983 -5.777789e-02 5.777789e-02 0.9983 -16.9435 15.6123)" class="st0" cx="261.5" cy="300.8" rx="22.3" ry="22.8"/>
		
			<ellipse transform="matrix(0.9978 -6.620355e-02 6.620355e-02 0.9978 -19.3577 18.0934)" class="st0" cx="263.3" cy="301.1" rx="22.1" ry="22.6"/>
		
			<ellipse transform="matrix(0.9972 -7.475568e-02 7.475568e-02 0.9972 -21.7907 20.6703)" class="st0" cx="265.2" cy="301.4" rx="21.9" ry="22.4"/>
		
			<ellipse transform="matrix(0.9965 -8.343538e-02 8.343538e-02 0.9965 -24.2348 23.3302)" class="st0" cx="267" cy="301.6" rx="21.8" ry="22.3"/>
		
			<ellipse transform="matrix(0.9957 -9.224355e-02 9.224355e-02 0.9957 -26.7028 26.0929)" class="st0" cx="268.9" cy="301.9" rx="21.6" ry="22.1"/>
		
			<ellipse transform="matrix(0.9949 -0.1012 0.1012 0.9949 -29.1833 28.9591)" class="st0" cx="270.8" cy="302.1" rx="21.4" ry="21.9"/>
		
			<ellipse transform="matrix(0.9939 -0.1102 0.1102 0.9939 -31.6572 31.8838)" class="st0" cx="272.6" cy="302.3" rx="21.3" ry="21.8"/>
		
			<ellipse transform="matrix(0.9928 -0.1194 0.1194 0.9928 -34.1464 34.9404)" class="st0" cx="274.5" cy="302.4" rx="21.1" ry="21.6"/>
		
			<ellipse transform="matrix(0.9917 -0.1287 0.1287 0.9917 -36.6501 38.0913)" class="st0" cx="276.4" cy="302.6" rx="21" ry="21.4"/>
		
			<ellipse transform="matrix(0.9904 -0.1382 0.1382 0.9904 -39.1667 41.3557)" class="st0" cx="278.2" cy="302.7" rx="20.8" ry="21.3"/>
		
			<ellipse transform="matrix(0.989 -0.1478 0.1478 0.989 -41.6784 44.7291)" class="st0" cx="280.1" cy="302.8" rx="20.6" ry="21.1"/>
		
			<ellipse transform="matrix(0.9875 -0.1575 0.1575 0.9875 -44.1901 48.1851)" class="st0" cx="281.9" cy="302.9" rx="20.5" ry="21"/>
		
			<ellipse transform="matrix(0.9859 -0.1673 0.1673 0.9859 -46.681 51.7346)" class="st0" cx="283.7" cy="302.9" rx="20.3" ry="20.8"/>
		
			<ellipse transform="matrix(0.9842 -0.1773 0.1773 0.9842 -49.2003 55.425)" class="st0" cx="285.5" cy="303" rx="20.2" ry="20.7"/>
		<ellipse transform="matrix(0.9823 -0.1874 0.1874 0.9823 -51.697 59.1946)" class="st0" cx="287.2" cy="303" rx="20" ry="20.5"/>
		
			<ellipse transform="matrix(0.9803 -0.1976 0.1976 0.9803 -54.1818 63.0652)" class="st0" cx="288.9" cy="303" rx="19.9" ry="20.4"/>
		<ellipse transform="matrix(0.9781 -0.208 0.208 0.9781 -56.6686 67.0783)" class="st0" cx="290.6" cy="303" rx="19.8" ry="20.2"/>
		
			<ellipse transform="matrix(0.9759 -0.2184 0.2184 0.9759 -59.1301 71.1352)" class="st0" cx="292.2" cy="303.1" rx="19.6" ry="20.1"/>
		<ellipse transform="matrix(0.9734 -0.229 0.229 0.9734 -61.5876 75.3378)" class="st0" cx="293.8" cy="303" rx="19.5" ry="19.9"/>
		
			<ellipse transform="matrix(0.9708 -0.2397 0.2397 0.9708 -64.0238 79.6471)" class="st0" cx="295.4" cy="303" rx="19.3" ry="19.8"/>
		
			<ellipse transform="matrix(0.9681 -0.2506 0.2506 0.9681 -66.4348 84.0738)" class="st0" cx="296.9" cy="302.9" rx="19.2" ry="19.7"/>
		
			<ellipse transform="matrix(0.9652 -0.2615 0.2615 0.9652 -68.8383 88.5521)" class="st0" cx="298.3" cy="302.9" rx="19.1" ry="19.5"/>
		
			<ellipse transform="matrix(0.9621 -0.2726 0.2726 0.9621 -71.1993 93.1708)" class="st0" cx="299.7" cy="302.8" rx="19" ry="19.4"/>
		
			<ellipse transform="matrix(0.9589 -0.2838 0.2838 0.9589 -73.5643 97.884)" class="st0" cx="301" cy="302.8" rx="18.8" ry="19.3"/>
		
			<ellipse transform="matrix(0.9555 -0.2951 0.2951 0.9555 -75.8668 102.6953)" class="st0" cx="302.3" cy="302.7" rx="18.7" ry="19.1"/>
		
			<ellipse transform="matrix(0.9519 -0.3065 0.3065 0.9519 -78.1694 107.6033)" class="st0" cx="303.5" cy="302.7" rx="18.6" ry="19"/>
		
			<ellipse transform="matrix(0.9481 -0.318 0.318 0.9481 -80.416 112.5798)" class="st0" cx="304.6" cy="302.6" rx="18.5" ry="18.9"/>
		
			<ellipse transform="matrix(0.9441 -0.3296 0.3296 0.9441 -82.632 117.6367)" class="st0" cx="305.6" cy="302.5" rx="18.4" ry="18.8"/>
		
			<ellipse transform="matrix(0.94 -0.3413 0.3413 0.94 -84.8307 122.8189)" class="st0" cx="306.7" cy="302.5" rx="18.2" ry="18.7"/>
		
			<ellipse transform="matrix(0.9356 -0.353 0.353 0.9356 -86.9763 127.9888)" class="st0" cx="307.4" cy="302.4" rx="18.1" ry="18.6"/>
		
			<ellipse transform="matrix(0.931 -0.3649 0.3649 0.931 -89.0702 133.3118)" class="st0" cx="308.2" cy="302.3" rx="18" ry="18.4"/>
		
			<ellipse transform="matrix(0.9263 -0.3769 0.3769 0.9263 -91.1579 138.7306)" class="st0" cx="308.9" cy="302.3" rx="17.9" ry="18.3"/>
		
			<ellipse transform="matrix(0.9213 -0.3889 0.3889 0.9213 -93.1671 144.159)" class="st0" cx="309.5" cy="302.2" rx="17.8" ry="18.2"/>
		<ellipse transform="matrix(0.9161 -0.401 0.401 0.9161 -95.1651 149.683)" class="st0" cx="310" cy="302.2" rx="17.7" ry="18.1"/>
		
			<ellipse transform="matrix(0.9107 -0.4131 0.4131 0.9107 -97.1184 155.233)" class="st0" cx="310.4" cy="302.2" rx="17.6" ry="18"/>
		
			<ellipse transform="matrix(0.9051 -0.4253 0.4253 0.9051 -98.9893 160.8267)" class="st0" cx="310.7" cy="302.1" rx="17.5" ry="18"/>
		
			<ellipse transform="matrix(0.8992 -0.4375 0.4375 0.8992 -100.871 166.4327)" class="st0" cx="310.8" cy="302.2" rx="17.5" ry="17.9"/>
		
			<ellipse transform="matrix(0.8931 -0.4498 0.4498 0.8931 -102.6721 172.1383)" class="st0" cx="310.9" cy="302.1" rx="17.4" ry="17.8"/>
	</g>
</g>
<g>
	
		<ellipse transform="matrix(6.176089e-02 -0.9981 0.9981 6.176089e-02 -179.0094 356.9683)" class="st0" cx="100.4" cy="273.7" rx="28.8" ry="29.5"/>
	
		<ellipse transform="matrix(6.679665e-02 -0.9978 0.9978 6.679665e-02 -179.5127 355.5517)" class="st0" cx="100.3" cy="273.7" rx="28.6" ry="29.3"/>
	
		<ellipse transform="matrix(7.190897e-02 -0.9974 0.9974 7.190897e-02 -180.0169 353.9093)" class="st0" cx="100.2" cy="273.7" rx="28.4" ry="29"/>
	
		<ellipse transform="matrix(7.709227e-02 -0.997 0.997 7.709227e-02 -180.6934 352.2386)" class="st0" cx="99.9" cy="273.7" rx="28.2" ry="28.8"/>
	
		<ellipse transform="matrix(8.234710e-02 -0.9966 0.9966 8.234710e-02 -181.4323 350.4592)" class="st0" cx="99.6" cy="273.8" rx="28" ry="28.6"/>
	
		<ellipse transform="matrix(8.768273e-02 -0.9961 0.9961 8.768273e-02 -182.2399 348.3674)" class="st0" cx="99.1" cy="273.7" rx="27.8" ry="28.4"/>
	
		<ellipse transform="matrix(9.308268e-02 -0.9957 0.9957 9.308268e-02 -182.9825 346.3081)" class="st0" cx="98.6" cy="273.6" rx="27.6" ry="28.2"/>
	
		<ellipse transform="matrix(9.857520e-02 -0.9951 0.9951 9.857520e-02 -183.8453 344.1181)" class="st0" cx="98" cy="273.5" rx="27.4" ry="28"/>
	
		<ellipse transform="matrix(0.1041 -0.9946 0.9946 0.1041 -184.7883 341.7555)" class="st0" cx="97.3" cy="273.4" rx="27.2" ry="27.8"/>
	<ellipse transform="matrix(0.1098 -0.994 0.994 0.1098 -185.8296 339.2988)" class="st0" cx="96.5" cy="273.4" rx="27" ry="27.6"/>
	
		<ellipse transform="matrix(0.1155 -0.9933 0.9933 0.1155 -186.9214 336.743)" class="st0" cx="95.6" cy="273.3" rx="26.8" ry="27.4"/>
	
		<ellipse transform="matrix(0.1213 -0.9926 0.9926 0.1213 -187.9412 334.0456)" class="st0" cx="94.7" cy="273.2" rx="26.6" ry="27.2"/>
	<ellipse transform="matrix(0.1272 -0.9919 0.9919 0.1272 -189.0684 331.1803)" class="st0" cx="93.6" cy="273" rx="26.4" ry="27"/>
	
		<ellipse transform="matrix(0.1332 -0.9911 0.9911 0.1332 -190.1839 328.3486)" class="st0" cx="92.6" cy="272.9" rx="26.2" ry="26.8"/>
	
		<ellipse transform="matrix(0.1392 -0.9903 0.9903 0.1392 -191.3728 325.3543)" class="st0" cx="91.5" cy="272.8" rx="26" ry="26.6"/>
	
		<ellipse transform="matrix(0.1454 -0.9894 0.9894 0.1454 -192.5299 322.2281)" class="st0" cx="90.3" cy="272.6" rx="25.8" ry="26.4"/>
	
		<ellipse transform="matrix(0.1516 -0.9884 0.9884 0.1516 -193.6019 318.9692)" class="st0" cx="89" cy="272.3" rx="25.6" ry="26.2"/>
	<ellipse transform="matrix(0.158 -0.9874 0.9874 0.158 -194.8896 315.6428)" class="st0" cx="87.6" cy="272.1" rx="25.4" ry="26"/>
	
		<ellipse transform="matrix(0.1644 -0.9864 0.9864 0.1644 -195.9404 312.1539)" class="st0" cx="86.3" cy="271.7" rx="25.2" ry="25.8"/>
	
		<ellipse transform="matrix(0.1709 -0.9853 0.9853 0.1709 -197.1398 308.6898)" class="st0" cx="84.9" cy="271.5" rx="25" ry="25.6"/>
	
		<ellipse transform="matrix(0.1775 -0.9841 0.9841 0.1775 -198.151 305.0601)" class="st0" cx="83.4" cy="271.1" rx="24.8" ry="25.4"/>
	
		<ellipse transform="matrix(0.1842 -0.9829 0.9829 0.1842 -199.2244 301.315)" class="st0" cx="81.9" cy="270.7" rx="24.6" ry="25.2"/>
	<ellipse transform="matrix(0.191 -0.9816 0.9816 0.191 -200.3241 297.5451)" class="st0" cx="80.3" cy="270.3" rx="24.4" ry="25"/>
	
		<ellipse transform="matrix(0.1978 -0.9802 0.9802 0.1978 -201.3718 293.5816)" class="st0" cx="78.7" cy="269.8" rx="24.2" ry="24.8"/>
	
		<ellipse transform="matrix(0.2048 -0.9788 0.9788 0.2048 -202.3186 289.574)" class="st0" cx="77.1" cy="269.3" rx="24.1" ry="24.6"/>
	
		<ellipse transform="matrix(0.2119 -0.9773 0.9773 0.2119 -203.2813 285.5597)" class="st0" cx="75.4" cy="268.8" rx="23.9" ry="24.4"/>
	
		<ellipse transform="matrix(0.2191 -0.9757 0.9757 0.2191 -204.2004 281.3752)" class="st0" cx="73.7" cy="268.3" rx="23.7" ry="24.2"/>
	<ellipse transform="matrix(0.2264 -0.974 0.974 0.2264 -205.0158 277.1407)" class="st0" cx="72" cy="267.6" rx="23.5" ry="24.1"/>
	
		<ellipse transform="matrix(0.2337 -0.9723 0.9723 0.2337 -205.7894 272.9427)" class="st0" cx="70.3" cy="267" rx="23.3" ry="23.9"/>
	
		<ellipse transform="matrix(0.2412 -0.9705 0.9705 0.2412 -206.416 268.5465)" class="st0" cx="68.5" cy="266.3" rx="23.1" ry="23.7"/>
	
		<ellipse transform="matrix(0.2488 -0.9686 0.9686 0.2488 -207.0929 264.0612)" class="st0" cx="66.7" cy="265.5" rx="23" ry="23.5"/>
	
		<ellipse transform="matrix(0.2565 -0.9665 0.9665 0.2565 -207.6548 259.5555)" class="st0" cx="64.9" cy="264.8" rx="22.8" ry="23.3"/>
	
		<ellipse transform="matrix(0.2643 -0.9644 0.9644 0.2643 -208.1006 255.0374)" class="st0" cx="63.1" cy="263.9" rx="22.6" ry="23.1"/>
	<ellipse transform="matrix(0.2721 -0.9623 0.9623 0.2721 -208.4542 250.4033)" class="st0" cx="61.3" cy="263" rx="22.4" ry="23"/>
	<ellipse transform="matrix(0.2801 -0.96 0.96 0.2801 -208.8202 245.814)" class="st0" cx="59.5" cy="262.1" rx="22.3" ry="22.8"/>
	
		<ellipse transform="matrix(0.2882 -0.9576 0.9576 0.2882 -208.9945 241.0797)" class="st0" cx="57.7" cy="261.1" rx="22.1" ry="22.6"/>
	
		<ellipse transform="matrix(0.2964 -0.9551 0.9551 0.2964 -209.0849 236.2522)" class="st0" cx="55.8" cy="260" rx="21.9" ry="22.4"/>
	
		<ellipse transform="matrix(0.3047 -0.9524 0.9524 0.3047 -209.0722 231.4223)" class="st0" cx="54" cy="258.9" rx="21.8" ry="22.3"/>
	
		<ellipse transform="matrix(0.3131 -0.9497 0.9497 0.3131 -208.9123 226.6552)" class="st0" cx="52.2" cy="257.8" rx="21.6" ry="22.1"/>
	
		<ellipse transform="matrix(0.3217 -0.9468 0.9468 0.3217 -208.7148 221.7041)" class="st0" cx="50.4" cy="256.5" rx="21.4" ry="21.9"/>
	
		<ellipse transform="matrix(0.3303 -0.9439 0.9439 0.3303 -208.392 216.775)" class="st0" cx="48.6" cy="255.2" rx="21.3" ry="21.8"/>
	
		<ellipse transform="matrix(0.339 -0.9408 0.9408 0.339 -207.942 211.9017)" class="st0" cx="46.8" cy="253.9" rx="21.1" ry="21.6"/>
	
		<ellipse transform="matrix(0.3478 -0.9376 0.9376 0.3478 -207.3707 206.9658)" class="st0" cx="45.1" cy="252.5" rx="21" ry="21.4"/>
	
		<ellipse transform="matrix(0.3567 -0.9342 0.9342 0.3567 -206.6107 201.5592)" class="st0" cx="43.1" cy="250.8" rx="20.8" ry="21.3"/>
	
		<ellipse transform="matrix(0.3658 -0.9307 0.9307 0.3658 -205.7588 196.2458)" class="st0" cx="41.1" cy="249.1" rx="20.6" ry="21.1"/>
	
		<ellipse transform="matrix(0.3749 -0.9271 0.9271 0.3749 -204.896 191.0545)" class="st0" cx="39.2" cy="247.5" rx="20.5" ry="21"/>
	
		<ellipse transform="matrix(0.3841 -0.9233 0.9233 0.3841 -203.8177 186.0123)" class="st0" cx="37.5" cy="245.8" rx="20.3" ry="20.8"/>
	
		<ellipse transform="matrix(0.3934 -0.9194 0.9194 0.3934 -202.7525 181.0827)" class="st0" cx="35.8" cy="244.2" rx="20.2" ry="20.7"/>
	
		<ellipse transform="matrix(0.4029 -0.9153 0.9153 0.4029 -201.6233 176.208)" class="st0" cx="34.2" cy="242.6" rx="20" ry="20.5"/>
	
		<ellipse transform="matrix(0.4124 -0.911 0.911 0.4124 -200.3864 171.5027)" class="st0" cx="32.8" cy="241.1" rx="19.9" ry="20.4"/>
	
		<ellipse transform="matrix(0.422 -0.9066 0.9066 0.422 -199.0773 166.777)" class="st0" cx="31.3" cy="239.5" rx="19.8" ry="20.2"/>
	
		<ellipse transform="matrix(0.4317 -0.902 0.902 0.4317 -197.7753 162.3327)" class="st0" cx="29.9" cy="238.1" rx="19.6" ry="20.1"/>
	
		<ellipse transform="matrix(0.4414 -0.8973 0.8973 0.4414 -196.3913 157.8677)" class="st0" cx="28.6" cy="236.7" rx="19.5" ry="19.9"/>
	
		<ellipse transform="matrix(0.4513 -0.8924 0.8924 0.4513 -194.9333 153.6587)" class="st0" cx="27.5" cy="235.3" rx="19.3" ry="19.8"/>
	
		<ellipse transform="matrix(0.4613 -0.8873 0.8873 0.4613 -193.4205 149.3944)" class="st0" cx="26.3" cy="234" rx="19.2" ry="19.7"/>
	
		<ellipse transform="matrix(0.4713 -0.882 0.882 0.4713 -191.821 145.3898)" class="st0" cx="25.4" cy="232.7" rx="19.1" ry="19.5"/>
	
		<ellipse transform="matrix(0.4814 -0.8765 0.8765 0.4814 -190.2697 141.333)" class="st0" cx="24.3" cy="231.5" rx="19" ry="19.4"/>
	
		<ellipse transform="matrix(0.4916 -0.8708 0.8708 0.4916 -188.6532 137.5224)" class="st0" cx="23.5" cy="230.3" rx="18.8" ry="19.3"/>
	
		<ellipse transform="matrix(0.5018 -0.865 0.865 0.5018 -186.9628 133.7866)" class="st0" cx="22.7" cy="229.2" rx="18.7" ry="19.1"/>
	
		<ellipse transform="matrix(0.5121 -0.8589 0.8589 0.5121 -185.3258 130.0607)" class="st0" cx="21.8" cy="228.2" rx="18.6" ry="19"/>
	
		<ellipse transform="matrix(0.5225 -0.8527 0.8527 0.5225 -183.6282 126.4993)" class="st0" cx="21.1" cy="227.2" rx="18.5" ry="18.9"/>
	
		<ellipse transform="matrix(0.5329 -0.8462 0.8462 0.5329 -181.881 123.0464)" class="st0" cx="20.5" cy="226.3" rx="18.4" ry="18.8"/>
	
		<ellipse transform="matrix(0.5433 -0.8395 0.8395 0.5433 -180.0817 119.7282)" class="st0" cx="20" cy="225.4" rx="18.2" ry="18.7"/>
	
		<ellipse transform="matrix(0.5538 -0.8326 0.8326 0.5538 -178.3296 116.4336)" class="st0" cx="19.5" cy="224.6" rx="18.1" ry="18.6"/>
	<ellipse transform="matrix(0.5644 -0.8255 0.8255 0.5644 -176.6415 113.3441)" class="st0" cx="19.1" cy="224" rx="18" ry="18.4"/>
	
		<ellipse transform="matrix(0.5749 -0.8182 0.8182 0.5749 -174.7985 110.2989)" class="st0" cx="18.8" cy="223.4" rx="17.9" ry="18.3"/>
	
		<ellipse transform="matrix(0.5855 -0.8106 0.8106 0.5855 -173.0051 107.238)" class="st0" cx="18.4" cy="222.8" rx="17.8" ry="18.2"/>
	
		<ellipse transform="matrix(0.5961 -0.8029 0.8029 0.5961 -171.2708 104.3967)" class="st0" cx="18.1" cy="222.4" rx="17.7" ry="18.1"/>
	<ellipse transform="matrix(0.6068 -0.7949 0.7949 0.6068 -169.5108 101.6311)" class="st0" cx="18" cy="222.1" rx="17.6" ry="18"/>
	
		<ellipse transform="matrix(0.6174 -0.7867 0.7867 0.6174 -167.6915 98.8905)" class="st0" cx="17.8" cy="221.8" rx="17.5" ry="18"/>
	
		<ellipse transform="matrix(0.628 -0.7782 0.7782 0.628 -165.9453 96.2914)" class="st0" cx="17.7" cy="221.7" rx="17.5" ry="17.9"/>
	
		<ellipse transform="matrix(0.6386 -0.7695 0.7695 0.6386 -164.1469 93.7064)" class="st0" cx="17.7" cy="221.6" rx="17.4" ry="17.8"/>
</g>
<g>
	<g>
		<g id="XMLID_9_">
			<g id="XMLID_10_">
				<path id="XMLID_16_" class="st1" d="M43.7,57.4C112.9-9,222.8-6.7,289.2,62.5"/>
				<path id="XMLID_15_" class="st1" d="M82.4,97.7c46.9-45,121.4-43.4,166.4,3.5"/>
			</g>
		</g>
	</g>
</g>
<path class="st2" d="M249.9,257.5c0.6,11.9,3.5,15.8,10.1,18.8c6.2,2.8-11,2.8-11,2.8l-6.6-6.4C242.3,272.7,249.7,252.4,249.9,257.5
	z"/>
<g>
	<g>
		<g>
			<g>
				<g>
					
						<ellipse transform="matrix(3.944141e-02 -0.9992 0.9992 3.944141e-02 -49.0107 317.2706)" cx="140.5" cy="184.1" rx="15" ry="12.2"/>
					<g>
						
							<ellipse transform="matrix(3.923856e-02 -0.9992 0.9992 3.923856e-02 -39.0098 319.4252)" class="st3" cx="146.6" cy="180" rx="2.6" ry="2.6"/>
					</g>
				</g>
				<g>
					<g>
						<g>
							
								<ellipse transform="matrix(3.944141e-02 -0.9992 0.9992 3.944141e-02 -2.341 369.5739)" cx="191.1" cy="186" rx="15" ry="12.2"/>
						</g>
					</g>
					
						<ellipse transform="matrix(3.926079e-02 -0.9992 0.9992 3.926079e-02 7.5281 371.9063)" class="st3" cx="197.2" cy="182" rx="2.6" ry="2.6"/>
				</g>
			</g>
		</g>
	</g>
	<path d="M163.4,242.6c23.1,0.9,39.8-16.7,32.1-26.1c-5.5-6.7-14.3,0.1-31-0.6c-16.7-0.7-24.9-8.1-31-1.9
		C125,222.8,140.3,241.7,163.4,242.6z"/>
</g>
<path class="st4" d="M237.9,319c0,0,2.4,9,4.3,23.4c2.5,19.1,2.7,40.2,2.7,40.2s3-21.8,4.2-37.8c0.7-9.4,0.8-22.1,0.8-22.1
	s-1.5-0.2-5.8-1.5C239.3,319.7,237.9,319,237.9,319z"/>
</svg>
