<?xml version="1.0" encoding="utf-8"?>
<!-- Generator: Adobe Illustrator 21.0.2, SVG Export Plug-In . SVG Version: 6.00 Build 0)  -->
<svg version="1.1" id="Слой_1" xmlns="http://www.w3.org/2000/svg" xmlns:xlink="http://www.w3.org/1999/xlink" x="0px" y="0px"
	 viewBox="0 0 25.6 28.2" style="enable-background:new 0 0 25.6 28.2;" xml:space="preserve">
<style type="text/css">
	.st0{fill:#FFD200;}
</style>
<g>
	<polygon class="st0" points="0,28.2 25.5,28.2 24.9,21.6 23.6,20.1 17.8,16.8 15.7,18.2 13,17.8 10.4,18.3 7.7,16.8 1.9,20.7 
		0.7,21.6 	"/>
	<rect x="4.9" y="25" width="1" height="3.2"/>
	<polygon class="st0" points="10.4,14.8 12.8,15.8 15.2,15.3 15.2,13.7 17,10.2 17.1,6.7 15.2,3.6 12.8,3.2 9.3,4.9 8.4,9.5 
		10.4,14.1 	"/>
	<path d="M25.5,22c-0.1-1.6-2-2.7-2.2-2.8l-4.7-2.7l0,0l-0.2-0.1l-2.6-1.5v-1.4c0.6-0.7,1.4-1.9,1.7-3.8c0.1-0.6,0.1-1.3,0-2.1l0,0
		c1.1-2.5,0.1-6.6,0-6.8l-0.1-0.3l-0.3-0.1c-0.2,0-4.3-1-7.3-0.1C8.7,0.9,7.9,2,7.9,3.8c0,1,0.2,1.9,0.3,2.3C7.9,7.3,7.8,8.7,8,9.7
		c0.3,1.8,1.2,3.1,1.7,3.8v1.4l-2.4,1.4L7,16.5l0,0l-4.7,2.7C2.1,19.3,0.1,20.5,0,22C0,23.4,0,28,0,28.2l1,0c0,0-0.1-4.7,0-6
		c0.1-0.9,1.3-1.7,1.8-2l4.8-2.8c0.5,0.5,1.5,1.5,2.5,1.5c0.1,0,0.2,0,0.3,0c0.8,0,1.4-0.2,1.9-0.5v6.9h1v-6.9
		c0.5,0.2,1.1,0.4,1.7,0.4c0.1,0,0.2,0,0.3,0c1-0.1,2-1,2.5-1.5l4.9,2.8c0.5,0.3,1.7,1.1,1.7,2c0.1,1.3,0,6,0,6l1,0
		C25.5,28,25.6,23.4,25.5,22z M12.8,15.4c-0.9-0.1-1.7-0.3-2.1-0.5v-0.7h2h0.2h2v0.7C14.4,15.1,13.6,15.3,12.8,15.4z M8.9,3.8
		c0-1.3,0.5-2.2,1.4-2.5c2.2-0.7,5.4-0.2,6.4,0c0.1,0.7,0.5,2.4,0.3,4.1c-0.3-0.9-0.9-1.6-1.5-2c-1.2-0.7-2.3-0.8-2.7-0.8l0,0
		c0,0,0,0-0.1,0c0,0-0.1,0-0.1,0l0,0c-0.4,0-1.5,0.2-2.7,0.8c-0.4,0.2-0.7,0.6-1,1C8.9,4.3,8.9,4,8.9,3.8z M10.4,4.3
		c1.1-0.6,2-0.7,2.3-0.7c0.3,0,1.3,0.2,2.3,0.7c1.1,0.6,1.8,3.5,1.5,5.2c-0.4,2.1-1.5,3.3-1.9,3.7h-1.9h-0.2h-1.9
		c-0.4-0.4-1.5-1.6-1.9-3.7C8.6,7.8,9.3,4.9,10.4,4.3z M10.2,17.8c-0.5,0-1.2-0.6-1.7-1l1.7-1c0.4,0.1,1.1,0.4,1.9,0.5v1
		C11.8,17.6,11.1,17.9,10.2,17.8z M15.3,17.8c-0.8,0.1-1.5-0.3-1.9-0.5v-1c0.9-0.1,1.6-0.4,1.9-0.5l1.7,1
		C16.5,17.2,15.8,17.8,15.3,17.8z"/>
	<rect x="19.7" y="25" width="1" height="3.2"/>
</g>
</svg>
