<?xml version="1.0" encoding="utf-8"?>
<!-- Generator: Adobe Illustrator 21.0.2, SVG Export Plug-In . SVG Version: 6.00 Build 0)  -->
<svg version="1.1" id="Слой_1" xmlns="http://www.w3.org/2000/svg" xmlns:xlink="http://www.w3.org/1999/xlink" x="0px" y="0px"
	 viewBox="0 0 34.3 27.9" style="enable-background:new 0 0 34.3 27.9;" xml:space="preserve">
<style type="text/css">
	.st0{clip-path:url(#SVGID_2_);}
</style>
<g>
	<path d="M16.8,26.6c-1.6,0-2.9-1.3-2.9-2.9c0-1.6,1.3-2.9,2.9-2.9c1.6,0,2.9,1.3,2.9,2.9C19.8,25.3,18.5,26.6,16.8,26.6L16.8,26.6z
		 M16.8,21.8"/>
	<g>
		<defs>
			<rect id="SVGID_1_" x="0" width="34.3" height="27.9"/>
		</defs>
		<clipPath id="SVGID_2_">
			<use xlink:href="#SVGID_1_"  style="overflow:visible;"/>
		</clipPath>
		<path class="st0" d="M28.4,12.7c-0.1,0-0.3,0-0.4-0.1c-6.2-6.2-16.2-6.2-22.4,0c-0.2,0.2-0.5,0.2-0.7,0c-0.2-0.2-0.2-0.5,0-0.7
			c6.6-6.6,17.2-6.6,23.8,0c0.2,0.2,0.2,0.5,0,0.7C28.6,12.6,28.5,12.7,28.4,12.7L28.4,12.7z M28.4,12.7"/>
		<path class="st0" d="M33.2,7.9c-0.1,0-0.3,0-0.4-0.1C24-1.1,9.7-1.1,0.9,7.7c-0.2,0.2-0.5,0.2-0.7,0C0,7.5,0,7.2,0.1,7
			c9.2-9.2,24.2-9.2,33.4,0c0.2,0.2,0.2,0.5,0,0.7C33.4,7.8,33.3,7.9,33.2,7.9L33.2,7.9z M33.2,7.9"/>
		<path class="st0" d="M23.6,17.5c-0.1,0-0.3,0-0.4-0.1c-1.7-1.7-4-2.6-6.4-2.6c-2.4,0-4.7,0.9-6.4,2.6c-0.2,0.2-0.5,0.2-0.7,0
			c-0.2-0.2-0.2-0.5,0-0.7c1.9-1.9,4.4-2.9,7.1-2.9c2.7,0,5.2,1,7.1,2.9c0.2,0.2,0.2,0.5,0,0.7C23.8,17.4,23.7,17.5,23.6,17.5
			L23.6,17.5z M23.6,17.5"/>
	</g>
</g>
</svg>
