<?xml version="1.0" encoding="utf-8"?>
<!-- Generator: Adobe Illustrator 21.0.2, SVG Export Plug-In . SVG Version: 6.00 Build 0)  -->
<svg version="1.1" id="Isolation_Mode" xmlns="http://www.w3.org/2000/svg" xmlns:xlink="http://www.w3.org/1999/xlink" x="0px"
	 y="0px" viewBox="0 0 94.8 30.2" style="enable-background:new 0 0 94.8 30.2;" xml:space="preserve">
<g>
	<g>
		<g>
			<g>
				<path d="M16.4,21.9c0-1.3,1-2.3,2.2-2.3s2.2,1,2.2,2.3v3c0,1.3-0.9,2.3-2.1,2.3c-0.4,0-0.7,0.3-0.7,0.8c0,1.3-0.9,2.3-2.2,2.3
					H5.3c-1.3,0-2.3-1-2.3-2.3c0-0.4-0.3-0.8-0.8-0.8c-1.3,0-2.3-1-2.3-2.3V8.3C0,7,1,6,2.3,6C2.7,6,3,5.9,3,5.4
					c0-1.3,1-2.1,2.3-2.1h12.1c1.3,0,2.3,1,2.3,2.2s-1,2.2-2.3,2.2H5.3c-0.4,0-0.8,0.1-0.8,0.5v16.6c0,0.4,0.4,0.8,0.8,0.8h10.6
					c0.4,0,0.6-0.4,0.6-0.8V21.9z M18.9,14.5c1.3,0,2.3,1,2.3,2.2c0,1.3-1,2.2-2.3,2.2h-7.6c-1.3,0-2.3-1-2.3-2.2
					c0-1.3,1-2.2,2.3-2.2H18.9z"/>
				<path d="M25.4,2.3c0-1.3,1-2.3,2.2-2.3c1.3,0,2.2,1,2.2,2.3v25.7c0,1.3-1,2.3-2.2,2.3c-1.3,0-2.2-1-2.2-2.3V2.3z M38.8,14.3
					c0-0.4-0.3-0.6-0.7-0.6h-5.3c-1.3,0-2.3-1-2.3-2.2s1-2.2,2.3-2.2h5.3c1.3,0,2.3,0.9,2.3,2.1c0,0.4,0.3,0.7,0.7,0.7
					c1.3,0,2.2,0.9,2.2,2.2v13.6c0,1.3-1,2.3-2.2,2.3c-1.3,0-2.2-1-2.2-2.3V14.3z"/>
				<path d="M47.8,14.3c0-1.3,1.1-2.3,2.4-2.3c0.4,0,0.8-0.2,0.8-0.6c0-1.3,1.1-2.1,2.3-2.1h7.6c1.3,0,2.3,0.9,2.3,2.1
					c0,0.4,0.5,0.7,0.9,0.7c1.3,0,2.4,0.9,2.4,2.2v10.6c0,1.3-1.2,2.3-2.4,2.3c-0.4,0-0.8,0.3-0.8,0.8c0,1.3-1.1,2.3-2.4,2.3h-7.6
					c-1.3,0-2.3-1-2.3-2.3c0-0.4-0.4-0.8-0.9-0.8c-1.3,0-2.4-1-2.4-2.3V14.3z M61.2,14.5c0-0.4-0.3-0.8-0.8-0.8H53
					c-0.4,0-0.8,0.3-0.8,0.8V25c0,0.4,0.3,0.8,0.8,0.8h7.4c0.4,0,0.8-0.3,0.8-0.8V14.5z"/>
				<path d="M70.9,5.3c0-1.3,1-2.3,2.2-2.3c1.3,0,2.2,1,2.2,2.3v22.7c0,1.3-1,2.3-2.2,2.3c-1.3,0-2.2-1-2.2-2.3V5.3z M85,3.3
					c1.3,0,2.3,1,2.3,2.2s-1,2.2-2.3,2.2h-6.8c-1.3,0-2.3-1-2.3-2.2s1-2.2,2.3-2.2H85z M83.5,14.5c1.3,0,2.3,1,2.3,2.2
					c0,1.3-1,2.2-2.3,2.2h-5.3c-1.3,0-2.3-1-2.3-2.2c0-1.3,1-2.2,2.3-2.2H83.5z"/>
				<path d="M90.3,2.3c0-1.3,1-2.3,2.2-2.3c1.3,0,2.2,1,2.2,2.3v1.5c0,1.3-1,2.3-2.2,2.3c-1.3,0-2.2-1-2.2-2.3V2.3z M90.3,11.3
					c0-1.3,1-2.3,2.2-2.3c1.3,0,2.2,1,2.2,2.3v16.6c0,1.3-1,2.3-2.2,2.3c-1.3,0-2.2-1-2.2-2.3V11.3z"/>
			</g>
		</g>
	</g>
</g>
</svg>
