<?xml version="1.0" encoding="utf-8"?>
<!-- Generator: Adobe Illustrator 21.0.2, SVG Export Plug-In . SVG Version: 6.00 Build 0)  -->
<svg version="1.1" id="Слой_1" xmlns="http://www.w3.org/2000/svg" xmlns:xlink="http://www.w3.org/1999/xlink" x="0px" y="0px"
	 viewBox="0 0 42.4 30.5" style="enable-background:new 0 0 42.4 30.5;" xml:space="preserve">
<style type="text/css">
	.st0{fill:#FFD200;}
</style>
<g>
	<g>
		<polygon points="42.4,27.5 3.5,27.5 3.5,3.3 6.8,3.3 6.8,4.3 4.5,4.3 4.5,26.5 41.4,26.5 41.4,4.3 15.9,4.3 15.9,3.3 42.4,3.3 		
			"/>
	</g>
	<g>
		<path d="M39.4,13H18.1V0h21.3V13z M19.1,12h19.3V1H19.1V12z"/>
	</g>
	<g>
		<g>
			<rect x="21.9" y="3.8" class="st0" width="13.9" height="6"/>
		</g>
		<g>
			<path d="M36.3,10.3H21.4v-7h14.9V10.3z M22.4,9.3h12.9v-5H22.4V9.3z"/>
		</g>
	</g>
	<g>
		<path d="M13.8,24.1H8.9c-1.4,0-2.6-1.2-2.6-2.6V2.6C6.3,1.2,7.4,0,8.9,0h4.9c1.4,0,2.6,1.2,2.6,2.6v18.9
			C16.4,22.9,15.2,24.1,13.8,24.1z M8.9,1C8,1,7.3,1.7,7.3,2.6v18.9c0,0.9,0.7,1.6,1.6,1.6h4.9c0.9,0,1.6-0.7,1.6-1.6V2.6
			c0-0.9-0.7-1.6-1.6-1.6H8.9z"/>
	</g>
	<g>
		<path d="M6.9,30.5H4.9c-2.7,0-4.9-2.2-4.9-4.9V11.1c0-2.3,1.6-4.3,3.9-4.8l0.2,1C2.3,7.7,1,9.3,1,11.1v14.5c0,2.1,1.7,3.9,3.9,3.9
			h2.1c1.6,0,3.1-1,3.7-2.6v-3.3h1l0,3.5C10.9,29.2,9,30.5,6.9,30.5z"/>
	</g>
	<g>
		<path d="M30.1,15.9H18.6c-0.3,0-0.5-0.2-0.5-0.5s0.2-0.5,0.5-0.5h11.5c0.3,0,0.5,0.2,0.5,0.5S30.4,15.9,30.1,15.9z"/>
	</g>
	<g>
		<path d="M33.6,7.2h-9.2c-0.2,0-0.4-0.2-0.4-0.4s0.2-0.4,0.4-0.4h9.2c0.2,0,0.4,0.2,0.4,0.4S33.8,7.2,33.6,7.2z"/>
	</g>
	<g>
		<path d="M30.1,18.9H18.6c-0.3,0-0.5-0.2-0.5-0.5s0.2-0.5,0.5-0.5h11.5c0.3,0,0.5,0.2,0.5,0.5S30.4,18.9,30.1,18.9z"/>
	</g>
	<g>
		<path d="M30.1,21.7H18.6c-0.3,0-0.5-0.2-0.5-0.5s0.2-0.5,0.5-0.5h11.5c0.3,0,0.5,0.2,0.5,0.5S30.4,21.7,30.1,21.7z"/>
	</g>
	<g>
		<path d="M30.1,24.4H18.6c-0.3,0-0.5-0.2-0.5-0.5s0.2-0.5,0.5-0.5h11.5c0.3,0,0.5,0.2,0.5,0.5S30.4,24.4,30.1,24.4z"/>
	</g>
</g>
</svg>
