<?xml version="1.0" encoding="utf-8"?>
<!-- Generator: Adobe Illustrator 21.0.2, SVG Export Plug-In . SVG Version: 6.00 Build 0)  -->
<svg version="1.1" id="Слой_1" xmlns="http://www.w3.org/2000/svg" xmlns:xlink="http://www.w3.org/1999/xlink" x="0px" y="0px"
	 viewBox="0 0 39.1 28.6" style="enable-background:new 0 0 39.1 28.6;" xml:space="preserve">
<g>
	<g>
		<g>
			<path d="M0,15.9h4.9v10.6H0V15.9z M7.3,15.9h2.4v10.6H7.3V15.9z M12.2,15.9h2.4v10.6h-2.4V15.9z M19.6,15.9H22v10.6h-2.4V15.9z
				 M29.4,15.9h2.4v10.6h-2.4V15.9z M36.7,15.9h2.4v10.6h-2.4V15.9z M24.5,15.9h1.2v10.6h-1.2V15.9z M17.1,15.9h1.2v10.6h-1.2V15.9z
				 M33,15.9h1.2v10.6H33V15.9z M0,27.6h2.4v1.1H0V27.6z M7.3,27.6h2.4v1.1H7.3V27.6z M12.2,27.6h2.4v1.1h-2.4V27.6z M24.5,27.6h2.4
				v1.1h-2.4V27.6z M36.7,27.6h2.4v1.1h-2.4V27.6z M29.4,27.6h4.9v1.1h-4.9V27.6z M17.1,27.6H22v1.1h-4.9V27.6z M17.1,27.6"/>
		</g>
	</g>
	<g>
		<rect y="13.4" width="39.1" height="1"/>
	</g>
	<g>
		<rect x="13" width="1" height="11"/>
	</g>
	<g>
		<rect x="34.3" width="1" height="11"/>
	</g>
	<g>
		<path d="M7.8,11.5H6.6c-1.7,0-3.1-1.4-3.1-3.1V3.3c0-1.7,1.4-3.1,3.1-3.1h1.3c1.7,0,3.1,1.4,3.1,3.1v5.1
			C10.9,10.1,9.5,11.5,7.8,11.5z M6.6,1.2c-1.1,0-2.1,0.9-2.1,2.1v5.1c0,1.1,0.9,2.1,2.1,2.1h1.3c1.1,0,2.1-0.9,2.1-2.1V3.3
			c0-1.1-0.9-2.1-2.1-2.1H6.6z"/>
	</g>
	<g>
		<path d="M20.2,11.5h-1.3c-1.7,0-3.1-1.4-3.1-3.1V3.3c0-1.7,1.4-3.1,3.1-3.1h1.3c1.7,0,3.1,1.4,3.1,3.1v5.1
			C23.3,10.1,21.9,11.5,20.2,11.5z M18.9,1.2c-1.1,0-2.1,0.9-2.1,2.1v5.1c0,1.1,0.9,2.1,2.1,2.1h1.3c1.1,0,2.1-0.9,2.1-2.1V3.3
			c0-1.1-0.9-2.1-2.1-2.1H18.9z"/>
	</g>
	<g>
		<path d="M29.4,11.5h-1.3c-1.7,0-3.1-1.4-3.1-3.1V3.3c0-1.7,1.4-3.1,3.1-3.1h1.3c1.7,0,3.1,1.4,3.1,3.1v5.1
			C32.5,10.1,31.1,11.5,29.4,11.5z M28.1,1.2c-1.1,0-2.1,0.9-2.1,2.1v5.1c0,1.1,0.9,2.1,2.1,2.1h1.3c1.1,0,2.1-0.9,2.1-2.1V3.3
			c0-1.1-0.9-2.1-2.1-2.1H28.1z"/>
	</g>
	<g>
		<rect x="0.3" y="1" width="1" height="0.9"/>
	</g>
	<g>
		<rect x="0.3" y="4" width="1" height="0.9"/>
	</g>
	<g>
		<rect x="0.3" y="7" width="1" height="0.9"/>
	</g>
	<g>
		<rect x="0.3" y="9.9" width="1" height="0.9"/>
	</g>
	<g>
		<rect x="37.9" y="1" width="1" height="0.9"/>
	</g>
	<g>
		<rect x="37.9" y="4" width="1" height="0.9"/>
	</g>
	<g>
		<rect x="37.9" y="7" width="1" height="0.9"/>
	</g>
	<g>
		<rect x="37.9" y="9.9" width="1" height="0.9"/>
	</g>
</g>
</svg>
