<?xml version="1.0" encoding="utf-8"?>
<!-- Generator: Adobe Illustrator 21.0.2, SVG Export Plug-In . SVG Version: 6.00 Build 0)  -->
<svg version="1.1" id="Слой_1" xmlns="http://www.w3.org/2000/svg" xmlns:xlink="http://www.w3.org/1999/xlink" x="0px" y="0px"
	 viewBox="0 0 41.2 29.6" style="enable-background:new 0 0 41.2 29.6;" xml:space="preserve">
<style type="text/css">
	.st0{fill:#FFD200;}
	.st1{fill:#FFFFFF;}
</style>
<g>
	<g>
		<line class="st0" x1="0.5" y1="17.6" x2="0.5" y2="29.1"/>
		<path d="M0.5,29.6c-0.3,0-0.5-0.2-0.5-0.5V17.6c0-0.3,0.2-0.5,0.5-0.5S1,17.3,1,17.6v11.5C1,29.4,0.8,29.6,0.5,29.6z"/>
	</g>
	<g>
		<line class="st0" x1="0.5" y1="22.5" x2="12.5" y2="22.5"/>
		<path d="M12.5,23h-12C0.2,23,0,22.7,0,22.5S0.2,22,0.5,22h12c0.3,0,0.5,0.2,0.5,0.5S12.8,23,12.5,23z"/>
	</g>
	<g>
		<line class="st0" x1="0.5" y1="25.2" x2="12.5" y2="25.2"/>
		<path d="M12.5,25.7h-12c-0.3,0-0.5-0.2-0.5-0.5s0.2-0.5,0.5-0.5h12c0.3,0,0.5,0.2,0.5,0.5S12.8,25.7,12.5,25.7z"/>
	</g>
	<g>
		<path d="M15.5,27.5c-1.9,0-3.4-1.5-3.4-3.4s1.5-3.4,3.4-3.4s3.4,1.5,3.4,3.4S17.4,27.5,15.5,27.5z M15.5,21.6
			c-1.4,0-2.5,1.1-2.5,2.5s1.1,2.5,2.5,2.5s2.5-1.1,2.5-2.5S16.8,21.6,15.5,21.6z"/>
	</g>
	<g>
		<path d="M15.5,21.6c0,0-0.1,0-0.1,0C15.1,21.5,15,21.2,15,21l1.4-5.5c0.1-0.3,0.3-0.4,0.6-0.3c0.2,0.1,0.4,0.3,0.3,0.6l-1.4,5.5
			C15.9,21.4,15.7,21.6,15.5,21.6z"/>
	</g>
	<g>
		<path d="M18,22.9c0,0-0.1,0-0.1,0c-0.2-0.1-0.4-0.3-0.3-0.6l1.9-5.9c0.1-0.2,0.3-0.4,0.6-0.3c0.2,0.1,0.4,0.3,0.3,0.6l-1.9,5.9
			C18.4,22.8,18.2,22.9,18,22.9z"/>
	</g>
	<g>
		<path d="M29.5,20.3c-0.1,0-0.1,0-0.2,0l-24-9c-0.2-0.1-0.4-0.4-0.3-0.6L8.9,0.3C9,0.1,9.3-0.1,9.5,0l28.8,10.4
			c0.1,0.1,0.3,0.2,0.3,0.3c0,0.2,0,0.3-0.1,0.4l-8.7,9C29.7,20.3,29.6,20.3,29.5,20.3z M6.1,10.6l23.2,8.7l8-8.3L9.6,1.1L6.1,10.6z
			"/>
	</g>
	<g>
		<path d="M23.4,14.9c-0.1,0-0.1,0-0.2,0L6.3,8.6C6.1,8.5,6,8.2,6.1,8c0.1-0.2,0.4-0.4,0.6-0.3L23.5,14c0.2,0.1,0.4,0.4,0.3,0.6
			C23.7,14.8,23.6,14.9,23.4,14.9z"/>
	</g>
	<g>
		<polygon class="st1" points="31.6,17.6 36.8,19.7 38.9,15.3 35.4,13.7 		"/>
		<path d="M36.8,20.1c-0.1,0-0.1,0-0.2,0L31.4,18c-0.1-0.1-0.3-0.2-0.3-0.3c0-0.2,0-0.3,0.1-0.4l3.7-3.9c0.1-0.1,0.3-0.2,0.5-0.1
			l3.5,1.6c0.1,0.1,0.2,0.1,0.2,0.3c0,0.1,0,0.2,0,0.4l-2.1,4.4C37.1,20,37,20.1,36.8,20.1z M32.4,17.4l4.1,1.6l1.7-3.5l-2.8-1.3
			L32.4,17.4z"/>
	</g>
	<g>
		<line class="st1" x1="40.8" y1="15.9" x2="38.5" y2="20.6"/>
		<path d="M38.5,21.1c-0.1,0-0.1,0-0.2,0c-0.2-0.1-0.3-0.4-0.2-0.6l2.3-4.7c0.1-0.2,0.4-0.3,0.6-0.2c0.2,0.1,0.3,0.4,0.2,0.6
			l-2.3,4.7C38.8,21,38.6,21.1,38.5,21.1z"/>
	</g>
	<g>
		<path d="M30.9,13.3c-0.7,0-1.2-0.5-1.2-1.2s0.5-1.2,1.2-1.2c0.7,0,1.2,0.5,1.2,1.2S31.5,13.3,30.9,13.3z M30.9,11.8
			c-0.2,0-0.3,0.1-0.3,0.3s0.1,0.3,0.3,0.3c0.2,0,0.3-0.1,0.3-0.3S31,11.8,30.9,11.8z"/>
	</g>
</g>
</svg>
