<?xml version="1.0" encoding="utf-8"?>
<!-- Generator: Adobe Illustrator 21.0.2, SVG Export Plug-In . SVG Version: 6.00 Build 0)  -->
<svg version="1.1" id="Layer_1" xmlns="http://www.w3.org/2000/svg" xmlns:xlink="http://www.w3.org/1999/xlink" x="0px" y="0px"
	 viewBox="0 0 135 40" style="enable-background:new 0 0 135 40;" xml:space="preserve">
<style type="text/css">
	.st0{fill:#E1E1E1;}
	.st1{fill:#FFFFFF;}
	.st2{clip-path:url(#SVGID_2_);fill:url(#SVGID_3_);}
	.st3{clip-path:url(#SVGID_2_);fill:url(#SVGID_4_);}
	.st4{clip-path:url(#SVGID_2_);fill:url(#SVGID_5_);}
	.st5{clip-path:url(#SVGID_2_);fill:url(#SVGID_6_);}
</style>
<g>
	<path d="M134,35.3c0,2.1-1.7,3.8-3.8,3.8H4.7c-2.1,0-3.8-1.7-3.8-3.8V4.7c0-2.1,1.7-3.8,3.8-3.8h125.5c2.1,0,3.8,1.7,3.8,3.8
		L134,35.3L134,35.3z"/>
	<path d="M130.2,40H4.7C2.1,40,0,37.9,0,35.3V4.7C0,2.1,2.1,0,4.7,0h125.5c2.6,0,4.7,2.1,4.7,4.7v30.5C134.9,37.9,132.8,40,130.2,40
		L130.2,40z"/>
	<path d="M134,35.3c0,2.1-1.7,3.8-3.8,3.8H4.7c-2.1,0-3.8-1.7-3.8-3.8V4.7c0-2.1,1.7-3.8,3.8-3.8h125.5c2.1,0,3.8,1.7,3.8,3.8
		L134,35.3L134,35.3z"/>
</g>
<g>
	<path class="st0" d="M46.9,6.7c0.9,0,1.5,0.4,1.9,0.8l-0.6,0.7c-0.3-0.3-0.7-0.5-1.3-0.5c-1.2,0-1.9,0.9-1.9,2.4
		c0,1.5,0.7,2.4,2,2.4c0.4,0,0.7-0.1,0.9-0.3v-1.4h-1.2V9.9h2.3v2.9c-0.4,0.4-1.2,0.8-2.1,0.8c-1.7,0-3.1-1.2-3.1-3.4
		C43.7,8,45.1,6.7,46.9,6.7z"/>
	<path class="st0" d="M52.2,8.4c1.3,0,2,1,2,2.3c0,0.2,0,0.4,0,0.5H51c0.1,0.9,0.7,1.4,1.4,1.4c0.4,0,0.8-0.1,1.1-0.4L54,13
		c-0.5,0.3-1.1,0.5-1.7,0.5c-1.4,0-2.4-0.9-2.4-2.6C49.9,9.3,51,8.4,52.2,8.4z M53.2,10.5c0-0.8-0.3-1.2-1-1.2
		c-0.6,0-1.1,0.4-1.2,1.2H53.2z"/>
	<path class="st0" d="M55.3,9.4h-0.7V8.5l0.8,0l0.1-1.3h1v1.3h1.2v0.9h-1.2v2.3c0,0.6,0.2,0.9,0.7,0.9c0.2,0,0.4,0,0.5-0.1l0.2,0.8
		c-0.3,0.1-0.6,0.2-1,0.2c-1.1,0-1.6-0.7-1.6-1.8V9.4z"/>
	<path class="st0" d="M60.7,7c0-0.4,0.3-0.7,0.7-0.7c0.4,0,0.7,0.3,0.7,0.7c0,0.4-0.3,0.6-0.7,0.6C61,7.6,60.7,7.4,60.7,7z
		 M60.8,8.5H62v4.9h-1.1V8.5z"/>
	<path class="st0" d="M63.6,9.4h-0.7V8.5l0.8,0l0.1-1.3h1v1.3H66v0.9h-1.2v2.3c0,0.6,0.2,0.9,0.7,0.9c0.2,0,0.4,0,0.5-0.1l0.2,0.8
		c-0.3,0.1-0.6,0.2-1,0.2c-1.1,0-1.6-0.7-1.6-1.8V9.4z"/>
	<path class="st0" d="M71.1,8.4c1.2,0,2.3,0.9,2.3,2.6c0,1.6-1.1,2.6-2.3,2.6c-1.2,0-2.3-0.9-2.3-2.6C68.8,9.3,69.9,8.4,71.1,8.4z
		 M71.1,12.6c0.7,0,1.2-0.6,1.2-1.6c0-1-0.4-1.6-1.2-1.6c-0.7,0-1.1,0.6-1.1,1.6C70,11.9,70.4,12.6,71.1,12.6z"/>
	<path class="st0" d="M74.6,8.5h0.9l0.1,0.7h0c0.4-0.4,0.9-0.8,1.6-0.8c1.1,0,1.5,0.7,1.5,1.9v3.1h-1.2v-2.9c0-0.8-0.2-1.1-0.8-1.1
		c-0.4,0-0.7,0.2-1.1,0.6v3.4h-1.1V8.5z"/>
</g>
<g>
	<path class="st1" d="M101.2,30.6c-0.5,0-1-0.1-1.4-0.3c-0.4-0.2-0.8-0.5-1.1-0.9h-0.1c0.1,0.5,0.1,0.9,0.1,1.3v3.3h-1.2V22.5h1
		l0.2,1.1h0.1c0.3-0.4,0.7-0.8,1.1-0.9c0.4-0.2,0.9-0.3,1.4-0.3c1.1,0,1.9,0.4,2.5,1.1c0.6,0.7,0.9,1.7,0.9,3.1
		c0,1.3-0.3,2.3-0.9,3.1C103.1,30.3,102.3,30.6,101.2,30.6z M101.1,23.4c-0.8,0-1.4,0.2-1.8,0.7c-0.4,0.5-0.6,1.2-0.6,2.2v0.3
		c0,1.1,0.2,1.9,0.6,2.4c0.4,0.5,1,0.7,1.8,0.7c0.7,0,1.2-0.3,1.6-0.8c0.4-0.6,0.6-1.3,0.6-2.3c0-1-0.2-1.8-0.6-2.3
		C102.3,23.6,101.8,23.4,101.1,23.4z"/>
	<path class="st1" d="M107.4,30.5h-1.2V19.1h1.2V30.5z"/>
	<path class="st1" d="M114.3,30.5l-0.2-1.1H114c-0.4,0.5-0.8,0.8-1.2,1c-0.4,0.2-0.9,0.3-1.5,0.3c-0.8,0-1.4-0.2-1.9-0.6
		c-0.4-0.4-0.7-1-0.7-1.7c0-1.6,1.3-2.5,3.9-2.5l1.4,0v-0.5c0-0.6-0.1-1.1-0.4-1.4c-0.3-0.3-0.7-0.4-1.3-0.4c-0.7,0-1.4,0.2-2.3,0.6
		l-0.4-0.9c0.4-0.2,0.8-0.4,1.3-0.5c0.5-0.1,0.9-0.2,1.4-0.2c1,0,1.7,0.2,2.1,0.6c0.5,0.4,0.7,1.1,0.7,2v5.5H114.3z M111.6,29.6
		c0.8,0,1.3-0.2,1.8-0.6c0.4-0.4,0.6-1,0.6-1.7v-0.7l-1.2,0c-1,0-1.7,0.2-2.1,0.4c-0.4,0.3-0.6,0.7-0.6,1.2c0,0.4,0.1,0.8,0.4,1
		C110.8,29.5,111.1,29.6,111.6,29.6z"/>
	<path class="st1" d="M115.9,22.5h1.3l1.8,4.6c0.4,1,0.6,1.8,0.7,2.3h0.1c0.1-0.3,0.2-0.7,0.4-1.3c0.2-0.6,0.9-2.4,2-5.5h1.3
		l-3.4,9.1c-0.3,0.9-0.7,1.5-1.2,1.9c-0.5,0.4-1,0.6-1.7,0.6c-0.4,0-0.7,0-1.1-0.1v-1c0.3,0.1,0.6,0.1,0.9,0.1
		c0.8,0,1.4-0.5,1.8-1.4l0.4-1.1L115.9,22.5z"/>
</g>
<g>
	<path class="st1" d="M78.8,23.2c0.4,0.3,1.2,1,1.2,2.3c0,1.2-0.7,1.8-1.4,2.4c-0.2,0.2-0.5,0.5-0.5,0.8c0,0.4,0.3,0.6,0.4,0.7
		l0.6,0.5c0.7,0.6,1.4,1.2,1.4,2.3c0,1.6-1.5,3.2-4.4,3.2c-2.4,0-3.6-1.2-3.6-2.4c0-0.6,0.3-1.5,1.3-2c1-0.6,2.4-0.7,3.2-0.8
		c-0.2-0.3-0.5-0.6-0.5-1.1c0-0.3,0.1-0.5,0.2-0.7c-0.2,0-0.4,0-0.5,0c-1.8,0-2.8-1.3-2.8-2.6c0-0.8,0.4-1.6,1.1-2.2
		c1-0.8,2.1-0.9,3-0.9h3.4l-1.1,0.6H78.8z M77.6,30.7c-0.1,0-0.2,0-0.4,0c-0.2,0-1.1,0-1.8,0.3c-0.4,0.1-1.4,0.5-1.4,1.7
		c0,1.2,1.2,2,2.9,2c1.6,0,2.5-0.8,2.5-1.8C79.5,32,78.9,31.6,77.6,30.7z M78.1,27.5c0.4-0.4,0.4-0.9,0.4-1.2c0-1.2-0.7-3.1-2.1-3.1
		c-0.4,0-0.9,0.2-1.2,0.6c-0.3,0.4-0.4,0.8-0.4,1.2c0,1.1,0.7,3,2.1,3C77.4,28,77.8,27.8,78.1,27.5z"/>
	<path class="st1" d="M68.3,30.4c-2.7,0-4.1-2.1-4.1-3.9c0-2.2,1.8-4.1,4.3-4.1c2.5,0,4,1.9,4,3.9C72.5,28.3,71,30.4,68.3,30.4z
		 M70.4,29c0.4-0.5,0.5-1.2,0.5-1.9c0-1.5-0.7-4.3-2.8-4.3c-0.6,0-1.1,0.2-1.5,0.6c-0.7,0.6-0.8,1.3-0.8,2c0,1.7,0.8,4.4,2.8,4.4
		C69.3,29.9,70,29.6,70.4,29z"/>
	<path class="st1" d="M59.2,30.4c-2.7,0-4.1-2.1-4.1-3.9c0-2.2,1.8-4.1,4.3-4.1c2.5,0,4,1.9,4,3.9C63.5,28.3,62,30.4,59.2,30.4z
		 M61.3,29c0.4-0.5,0.5-1.2,0.5-1.9c0-1.5-0.7-4.3-2.8-4.3c-0.6,0-1.1,0.2-1.5,0.6c-0.7,0.6-0.8,1.3-0.8,2c0,1.7,0.8,4.4,2.8,4.4
		C60.3,29.9,60.9,29.6,61.3,29z"/>
	<path class="st1" d="M53.9,30.1l-2.4,0.6c-1,0.2-1.8,0.3-2.8,0.3c-4.6,0-6.4-3.4-6.4-6.1c0-3.3,2.5-6.3,6.8-6.3
		c0.9,0,1.8,0.1,2.6,0.4c1.3,0.4,1.8,0.8,2.2,1l-1.4,1.3l-0.6,0.1l0.4-0.7c-0.6-0.6-1.6-1.6-3.6-1.6c-2.7,0-4.6,2-4.6,5
		c0,3.2,2.3,6.1,5.9,6.1c1.1,0,1.6-0.2,2.1-0.4v-2.7l-2.5,0.1l1.3-0.7h3.6L54.1,27c-0.1,0.1-0.1,0.1-0.2,0.3c0,0.2,0,0.6,0,0.8V30.1
		z"/>
	<path class="st1" d="M84.1,29.7c-0.6-0.1-0.7-0.2-0.7-0.8v-0.2v-9.3c0,0,0-0.1,0-0.1c0.1-0.6,0.2-0.7,0.8-1h-2.4l-1.3,0.6h1.3v0v0
		v9.8v0.6c0,0.3-0.1,0.4-0.5,0.9h3l0.6-0.4C84.7,29.7,84.4,29.7,84.1,29.7z"/>
	<path class="st1" d="M91,29.8c-0.2,0.1-0.4,0.2-0.5,0.3c-0.6,0.3-1.1,0.3-1.6,0.3c-0.5,0-1.4,0-2.2-0.7c-1.2-0.8-1.7-2.3-1.7-3.5
		c0-2.6,2.1-3.9,3.8-3.9c0.6,0,1.2,0.2,1.7,0.5c0.8,0.5,1,1.3,1.2,1.6l-3.9,1.6l-1.3,0.1c0.4,2.1,1.9,3.3,3.4,3.3
		c0.9,0,1.5-0.3,2-0.6L91,29.8z M89.4,24.8c0.3-0.1,0.5-0.2,0.5-0.4c0-0.7-0.7-1.4-1.7-1.4c-0.7,0-1.9,0.5-1.9,2.3
		c0,0.3,0,0.6,0.1,0.9L89.4,24.8z"/>
	<g>
		<path class="st1" d="M92.6,22.5v1.1h-0.1v-1.1h-0.4v-0.1h0.9v0.1H92.6z"/>
		<path class="st1" d="M94.1,23.6v-1.1h0l-0.3,1.1h-0.1l-0.3-1.1h0v1.1h-0.1v-1.2h0.2l0.3,1h0l0.3-1h0.2v1.2H94.1z"/>
	</g>
</g>
<g id="PLAY">
	<defs>
		<path id="SVGID_1_" d="M28.7,15.2l-5.6-3.1c0,0-10.2-5.7-10.8-6C11.6,5.8,11,6,11,6.7c0,1.2,0,12.1,0,12.1s0,11.8,0,12.3
			c0,0.5,0.4,0.7,1,0.5c0.5-0.3,11.1-6.1,11.1-6.1l5.6-3.1c0,0,4.8-2.6,5.4-3c0.6-0.4,0.6-0.8,0-1.1C33.6,18,28.7,15.2,28.7,15.2z"
			/>
	</defs>
	<clipPath id="SVGID_2_">
		<use xlink:href="#SVGID_1_"  style="overflow:visible;"/>
	</clipPath>
	<linearGradient id="SVGID_3_" gradientUnits="userSpaceOnUse" x1="17.99" y1="5.5566" x2="17.99" y2="32.0244">
		<stop  offset="0" style="stop-color:#207CB0"/>
		<stop  offset="0.3757" style="stop-color:#3CB2BF"/>
		<stop  offset="0.7961" style="stop-color:#58E9CE"/>
		<stop  offset="1" style="stop-color:#63FFD4"/>
	</linearGradient>
	<polygon class="st2" points="11,5.6 11,18.8 11,32 24.9,18.8 	"/>
	<linearGradient id="SVGID_4_" gradientUnits="userSpaceOnUse" x1="11.0327" y1="12.125" x2="28.6841" y2="12.125">
		<stop  offset="0" style="stop-color:#4BC3AE"/>
		<stop  offset="1" style="stop-color:#DEE999"/>
	</linearGradient>
	<polygon class="st3" points="28.7,15.2 23.1,12.1 11,5.5 11,5.6 24.9,18.8 	"/>
	<linearGradient id="SVGID_5_" gradientUnits="userSpaceOnUse" x1="19.8584" y1="18.79" x2="19.8584" y2="32.1191">
		<stop  offset="0" style="stop-color:#EC403D"/>
		<stop  offset="0.384" style="stop-color:#C93B75"/>
		<stop  offset="0.7988" style="stop-color:#A636AC"/>
		<stop  offset="1" style="stop-color:#9934C2"/>
	</linearGradient>
	<polygon class="st4" points="11,32 11,32.1 23.1,25.5 28.7,22.3 24.9,18.8 	"/>
	<linearGradient id="SVGID_6_" gradientUnits="userSpaceOnUse" x1="30.0249" y1="15.2358" x2="30.0249" y2="22.3447">
		<stop  offset="0" style="stop-color:#FF8877"/>
		<stop  offset="0.6121" style="stop-color:#FFB175"/>
		<stop  offset="1" style="stop-color:#FFC774"/>
	</linearGradient>
	<polygon class="st5" points="28.7,15.2 24.9,18.8 28.7,22.3 35.1,18.8 	"/>
</g>
</svg>
