<?xml version="1.0" encoding="utf-8"?>
<!-- Generator: Adobe Illustrator 21.0.2, SVG Export Plug-In . SVG Version: 6.00 Build 0)  -->
<svg version="1.1" id="Слой_1" xmlns="http://www.w3.org/2000/svg" xmlns:xlink="http://www.w3.org/1999/xlink" x="0px" y="0px"
	 viewBox="0 0 88.5 48.5" style="enable-background:new 0 0 88.5 48.5;" xml:space="preserve">
<style type="text/css">
	.st0{fill:#FFD200;}
</style>
<g>
	<g>
		<path d="M40.7,47.8l0-9.7c0-0.2-0.8-4.9-8.1-6.5c-5.6-1.2-7-3.7-7.3-4.5c2.3-1.4,3.3-5.2,3.4-5.4c0,0,0-0.1,0-0.1V11.1h-0.8v2
			h-1.4c-0.2-1.2-1.3-2.2-2.6-2.2c-1.5,0-2.7,1.2-2.7,2.7s1.2,2.7,2.7,2.7c1.4,0,2.5-1,2.6-2.3h1.4v3.2c-0.5,1.2-2,4-3.5,4
			c-0.4,0-0.7-0.1-0.9-0.4c-0.5-0.6-0.5-1.8-0.4-2.2c0-0.1,0-0.2-0.1-0.3c-0.1-0.1-0.2-0.1-0.3-0.1h-2.2h-2.2
			c-0.1,0-0.2,0.1-0.3,0.1c-0.1,0.1-0.1,0.2-0.1,0.3c0.1,0.4,0.1,1.6-0.4,2.2c-0.2,0.3-0.5,0.4-0.9,0.4c-1.5,0-3.1-2.8-3.5-4V14h1.4
			c0.2,1.3,1.3,2.3,2.6,2.3c1.5,0,2.7-1.2,2.7-2.7S18.3,11,16.9,11c-1.3,0-2.4,0.9-2.6,2.2h-1.4v-2H12v10.6c0,0,0,0.1,0,0.1
			c0.1,0.2,1.1,3.9,3.4,5.4c-0.3,0.8-1.8,3.3-7.3,4.5C0.8,33.2,0,38,0,38.2v9.6h0.8l0-9.6c0-0.2,0.7-4.2,6.9-5.7v15.2h0.8V32.4
			c0.5-0.1,1-0.3,1.5-0.4v15.8h0.8V31.7c3.2-1.2,4.5-2.8,5.1-3.8l4.4,4.4l4.4-4.4c0.5,1,1.9,2.6,5.1,3.8v16.1h0.8V32
			c0.5,0.1,1,0.3,1.5,0.4v15.4h0.8V32.6c6.2,1.5,6.9,5.5,6.9,5.6v9.6H40.7z M23.8,15.5c-1,0-1.8-0.8-1.8-1.8s0.8-1.8,1.8-1.8
			c1,0,1.8,0.8,1.8,1.8S24.8,15.5,23.8,15.5z M16.9,11.8c1,0,1.8,0.8,1.8,1.8s-0.8,1.8-1.8,1.8c-1,0-1.8-0.8-1.8-1.8
			S15.8,11.8,16.9,11.8z M20.3,31.2l-3.4-3.4c2.1,0.3,3,0.3,3.3,0.3c0.1,0,0.1,0,0.1,0c0,0,0.1,0,0.1,0c0.3,0,1.2,0,3.3-0.3
			L20.3,31.2z M23.8,26.9c-2.1,0.3-3.2,0.3-3.5,0.3l0,0c0,0,0,0,0,0c0,0,0,0,0,0l0,0c-0.2,0-0.9,0-3.3-0.3c-2.5-0.3-3.9-4.7-4.1-5.2
			V19c0.8,1.3,2,3,3.5,3c0.6,0,1.2-0.2,1.5-0.7c0.6-0.7,0.7-1.8,0.6-2.4h1.8h1.8c0,0.6,0,1.7,0.6,2.4c0.4,0.4,0.9,0.7,1.5,0.7
			c1.5,0,2.8-1.7,3.5-3v2.6C27.7,22.2,26.3,26.5,23.8,26.9z"/>
		<path d="M20.2,27.2L20.2,27.2C20.2,27.2,20.2,27.2,20.2,27.2z"/>
	</g>
	<polygon class="st0" points="13.5,32.8 13.5,36.9 17.2,37.2 20.2,34.9 23.3,37.1 27.1,37.2 27.1,32.8 23.5,32.8 20.2,34.7 
		17.2,32.5 	"/>
	<path d="M27.2,32.2h-3.8c-0.1,0-0.2,0-0.2,0.1l-2.8,2.1l-2.8-2.1c-0.1-0.1-0.2-0.1-0.2-0.1h-3.8c-0.2,0-0.4,0.2-0.4,0.4v4.5
		c0,0.2,0.2,0.4,0.4,0.4h3.8c0.1,0,0.2,0,0.2-0.1l2.8-2.1l2.8,2.1c0.1,0.1,0.2,0.1,0.2,0.1h3.8c0.2,0,0.4-0.2,0.4-0.4v-4.5
		C27.6,32.4,27.4,32.2,27.2,32.2z M17.1,36.7h-3.2V33h3.2l2.5,1.8L17.1,36.7z M26.7,36.7h-3.2L21,34.9l2.5-1.8h3.2V36.7z"/>
	<rect x="19.9" y="37.7" width="0.8" height="0.8"/>
	<rect x="19.9" y="40.3" width="0.8" height="0.9"/>
	<rect x="19.9" y="43.1" width="0.8" height="2.1"/>
	<path d="M12.2,5.8v3.2c0,0.2,0.2,0.4,0.4,0.4h1.8c0.1,0,0.2,0,0.3-0.1l1.2-1.3l1.1,1.1c0.1,0.1,0.2,0.1,0.3,0.1h8.5v0.7
		c0,0.2,0.2,0.4,0.4,0.4h2c0.2,0,0.4-0.2,0.4-0.4V3.5c0-0.1,0-0.2-0.1-0.3L27.4,2c-0.1-0.1-0.2-0.1-0.3-0.1L11,1.8c0,0,0,0,0,0
		c-0.1,0-0.2,0-0.3,0.1c-0.1,0.1-0.1,0.2-0.1,0.3V4c0,0.1,0,0.2,0.1,0.3L12.2,5.8z M11.4,2.7l15.5,0.1l0.9,0.9v5.9h-1.2V8.8
		c0-0.2-0.2-0.4-0.4-0.4h-8.7l-1.3-1.3C16.1,7,16,6.9,15.9,6.9c-0.1,0-0.2,0-0.3,0.1l-1.4,1.5H13V5.6c0-0.1,0-0.2-0.1-0.3l-1.4-1.4
		V2.7z"/>
</g>
<g>
	<path d="M67.6,26.2L67.6,26.2C67.5,26.2,67.5,26.2,67.6,26.2z"/>
	<rect x="66.8" y="40.3" width="0.9" height="0.9"/>
	<rect x="66.8" y="43.1" width="0.9" height="1"/>
	<rect x="66.8" y="34.6" width="0.9" height="0.9"/>
	<rect x="66.8" y="37.3" width="0.9" height="1"/>
	<rect x="66.8" y="46.2" width="0.9" height="2.3"/>
	<rect x="52.6" y="44.4" width="0.9" height="3.9"/>
	<path d="M79.8,31c-5-1.1-6.8-3.1-7.5-4.3v-4.8h-0.1c0,0,0,0,0,0c1.9-2.7,2.1-4.5,2.1-7.9V9.7h-0.1l0-0.1c-0.4-0.2-0.7-0.8-0.7-1
		c-0.1-0.2-0.2-0.2-0.4-0.3c0,0-4.9,0-6.4-0.1c-1.2-0.1-2.8-1.5-3.4-2c-0.1-0.1-0.3-0.1-0.4-0.1c-0.2,0-0.3,0.2-0.3,0.3
		c-0.1,0.8-1.6,2.2-2.5,2.8C60.1,9.4,60,9.6,60,9.7V14c0,3.4,0.2,5.1,2.1,7.9c0,0,0,0,0,0H62v4.8c-0.7,1.2-2.5,3.2-7.5,4.2
		c-7.8,1.7-8.6,6.7-8.7,7v10.3h0.9l0-10.3c0-0.2,0.8-4.5,7.4-6.1l0.9-0.2c0.6-0.1,1.1-0.3,1.6-0.4l0.9-0.3c2.5-0.9,3.8-2,4.6-3
		l3,3.2c0,0,0.8,0.8,1.9,0.9v0c0,0,0,0,0,0c0,0,0,0,0,0v0c1.1,0,1.9-0.8,1.9-0.9l3.1-3.2c0.8,1,2.2,2.1,4.6,3l0.9,0.3
		c0.5,0.2,1,0.3,1.6,0.4l0.9,0.2c6.7,1.6,7.4,5.9,7.4,6.1l0,10.3h0.9V38C88.5,37.7,87.7,32.6,79.8,31z M60.9,14V9.9
		c0.5-0.4,1.8-1.5,2.4-2.6C64,7.9,65.4,9,66.7,9.1c1.4,0.1,5.1,0.2,6.2,0.1c0.1,0.2,0.3,0.5,0.6,0.8v4c0,3.5-0.3,5-1.9,7.4
		c-1.5,2.2-3.9,2.5-4.4,2.6c-0.5-0.1-2.9-0.4-4.4-2.6C61.2,19,60.9,17.5,60.9,14z M68.5,30.6c0,0-0.6,0.6-1.4,0.6
		c-0.8,0-1.4-0.6-1.4-0.6l-3.2-3.3c0.1-0.1,0.1-0.2,0.2-0.3h0v-4.1c1.8,1.8,4,2,4.3,2l0,0c0,0,0,0,0,0c0,0,0,0,0,0l0,0
		c0.3,0,2.5-0.3,4.3-2V27h0c0.1,0.1,0.1,0.2,0.2,0.3L68.5,30.6z"/>
	<path d="M66.8,26.2C66.8,26.2,66.8,26.2,66.8,26.2L66.8,26.2z"/>
	<rect x="80.9" y="44.4" width="0.9" height="3.9"/>
	<path d="M59.2,18.6l0.4-0.8c-1.3-0.7-4.7-3-4.7-4.9c0-2,2-3.4,2.4-3.7h1.7V8.4h-1.6c-0.3-0.6-1.1-2.6,1.6-4.7c4-3.1,6-3.6,7.3-1.9
		C66.5,1.9,66.6,2,66.7,2h2.6c0.1,0,0.3-0.1,0.3-0.2c0,0,1-1.2,2.1-0.7c1.4,0.5,4.4,2.8,5,4.9C77.3,7.7,77,8.1,77,8.1
		c-0.1,0.1-0.1,0.1-0.2,0.2H75v0.9h2.5c0.9,0.8,1.9,1.9,2,2.4c0.2,1,0.3,3.9-1.1,4.7c-1.6,0.9-3.7,1.8-3.7,1.8l0.4,0.8
		c0.1,0,2.1-0.9,3.8-1.9c1.9-1.1,1.8-4.5,1.5-5.6c-0.2-0.9-1.8-2.4-2.5-3.1c0.2-0.4,0.2-1.2-0.3-2.7c-0.8-2.4-4.1-4.8-5.6-5.4
		c-1.4-0.5-2.6,0.4-2.9,0.8h-2.2c-2.2-2.5-5.4-0.4-8.4,1.9c-3,2.3-2.3,4.7-1.9,5.7C55.8,9.2,54,10.8,54,13
		C54,15.8,58.9,18.5,59.2,18.6z"/>
	<g>
		<g>
			<path class="st0" d="M74.2,41.2H71v3c0,0,1,2.5,3.1,2.5c2.1,0,3.1-2.5,3.1-2.5v-3H74.2z"/>
		</g>
		<g>
			<path d="M74.2,47.2c-2.4,0-3.5-2.7-3.5-2.8c0-0.1,0-0.1,0-0.2v-3c0-0.2,0.2-0.4,0.4-0.4h6.3c0.2,0,0.4,0.2,0.4,0.4v3
				c0,0.1,0,0.1,0,0.2C77.6,44.5,76.5,47.2,74.2,47.2z M71.5,44.1c0.2,0.4,1.1,2.1,2.7,2.1c1.6,0,2.5-1.8,2.7-2.1v-2.5h-5.4V44.1z"
				/>
		</g>
	</g>
</g>
</svg>
