<?xml version="1.0" encoding="utf-8"?>
<!-- Generator: Adobe Illustrator 21.0.2, SVG Export Plug-In . SVG Version: 6.00 Build 0)  -->
<svg version="1.1" id="Слой_1" xmlns="http://www.w3.org/2000/svg" xmlns:xlink="http://www.w3.org/1999/xlink" x="0px" y="0px"
	 viewBox="0 0 56.9 42.6" style="enable-background:new 0 0 56.9 42.6;" xml:space="preserve">
<style type="text/css">
	.st0{fill:#FFD200;}
</style>
<g>
	<g>
		<g>
			<path d="M0,42.6v-31h44.7v31H0z M2.1,41.3h40.5L28.1,27.9L24,31.7c-0.5,0.4-1.1,0.9-1.7,0.9c-0.6,0-1.2-0.5-1.7-0.9l-4.1-3.8
				L2.1,41.3z M1.1,40.6l14.6-13.5L1.1,13.5V40.6z M29,27.1l14.6,13.5V13.5L29,27.1z M23,31l19.6-18.2H2.1L21.7,31
				C22.1,31.4,22.6,31.4,23,31z"/>
		</g>
	</g>
	<g>
		<g>
			<circle class="st0" cx="45" cy="11.9" r="11.4"/>
		</g>
		<g>
			<path d="M45,23.9c-6.6,0-11.9-5.4-11.9-11.9S38.4,0,45,0s11.9,5.4,11.9,11.9S51.6,23.9,45,23.9z M45,1c-6,0-10.9,4.9-10.9,10.9
				S39,22.9,45,22.9S55.9,18,55.9,11.9S51,1,45,1z"/>
		</g>
	</g>
	<g>
		<g>
			<path d="M50.2,17.2c-1.4,2-4.5,2.4-5.9,2.4c-3.5,0-6.4-2.5-6.4-6.6c0-4.3,3-8.1,7.7-8.1c3.7,0,6.1,2.6,6.1,6.1c0,3.2-1.8,5-3.7,5
				c-0.8,0-1.6-0.6-1.6-1.9h-0.1c-0.7,1.2-1.7,1.9-3,1.9c-1.2,0-2.3-1-2.3-2.7c0-2.6,2.1-5,5-5c0.9,0,1.7,0.2,2.3,0.4l-0.7,3.8
				c-0.3,1.6-0.1,2.3,0.6,2.4c1.1,0,2.3-1.4,2.3-3.9c0-3.1-1.8-5.2-5.1-5.2c-3.4,0-6.3,2.7-6.3,7c0,3.5,2.3,5.7,5.4,5.7
				c1.2,0,3.9-0.6,5.3-2.3L50.2,17.2z M47,9.6c-0.2-0.1-0.6-0.1-1.1-0.1c-1.9,0-3.3,1.7-3.3,3.8c0,0.9,0.5,1.6,1.4,1.6
				c1.2,0,2.3-1.6,2.6-2.9L47,9.6z"/>
		</g>
	</g>
</g>
</svg>
