<?xml version="1.0" encoding="utf-8"?>
<!-- Generator: Adobe Illustrator 21.0.2, SVG Export Plug-In . SVG Version: 6.00 Build 0)  -->
<svg version="1.1" id="Слой_1" xmlns="http://www.w3.org/2000/svg" xmlns:xlink="http://www.w3.org/1999/xlink" x="0px" y="0px"
	 viewBox="0 0 10.2 17" style="enable-background:new 0 0 10.2 17;" xml:space="preserve">
<style type="text/css">
	.st0{fill-rule:evenodd;clip-rule:evenodd;}
</style>
<g>
	<path class="st0" d="M7.4,2.6C7.8,3.2,8,3.8,8,4.6c0,0.5-0.2,1-0.5,1.5C7.4,6.4,7.2,6.6,6.9,6.9L6,7.8c-0.9,0.9-1.4,1.6-1.7,2.3
		c-0.3,0.7-0.4,1.5-0.4,2.6h2c0-1,0.1-1.7,0.3-2.2c0.2-0.5,0.7-1.1,1.4-1.8c1-1,1.7-1.7,2-2.2c0.3-0.5,0.5-1.2,0.5-2
		c0-1.3-0.5-2.4-1.4-3.3C7.9,0.4,6.7,0,5.2,0C3.6,0,2.3,0.5,1.4,1.5C0.5,2.5,0,3.8,0,5.5h2c0-1,0.2-1.7,0.5-2.3
		C3,2.3,3.9,1.8,5.1,1.8C6.2,1.8,6.9,2.1,7.4,2.6L7.4,2.6z M7.4,2.6"/>
	<rect x="3.8" y="14.6" class="st0" width="2.3" height="2.4"/>
</g>
</svg>
