<?xml version="1.0" encoding="utf-8"?>
<!-- Generator: Adobe Illustrator 21.0.2, SVG Export Plug-In . SVG Version: 6.00 Build 0)  -->
<svg version="1.1" id="Слой_1" xmlns="http://www.w3.org/2000/svg" xmlns:xlink="http://www.w3.org/1999/xlink" x="0px" y="0px"
	 viewBox="0 0 49.7 56.2" style="enable-background:new 0 0 49.7 56.2;" xml:space="preserve">
<style type="text/css">
	.st0{fill:#FFD200;}
</style>
<g>
	<g>
		<path d="M49.7,56.2l0-11.8c0-0.2-0.9-6-9.9-7.9c-6.8-1.4-8.5-4.5-9-5.5c2.8-1.8,4.1-6.3,4.1-6.5c0,0,0-0.1,0-0.1V11.4h-1v2.5h-1.7
			c-0.3-1.5-1.6-2.7-3.2-2.7c-1.8,0-3.3,1.5-3.3,3.3s1.5,3.3,3.3,3.3c1.6,0,3-1.2,3.2-2.8H34v3.9c-0.6,1.4-2.5,4.9-4.3,4.9
			c-0.5,0-0.9-0.1-1.1-0.5c-0.6-0.7-0.6-2.2-0.5-2.7c0-0.1,0-0.3-0.1-0.4c-0.1-0.1-0.2-0.2-0.4-0.2h-2.7h-2.7
			c-0.1,0-0.3,0.1-0.4,0.2c-0.1,0.1-0.1,0.3-0.1,0.4c0.1,0.5,0.1,2-0.5,2.7c-0.3,0.3-0.6,0.5-1.1,0.5c-1.9,0-3.7-3.4-4.3-4.9v-3.9
			h1.7c0.2,1.6,1.6,2.8,3.2,2.8c1.8,0,3.3-1.5,3.3-3.3s-1.5-3.3-3.3-3.3c-1.6,0-2.9,1.2-3.2,2.7h-1.7v-2.5h-1v12.9c0,0,0,0.1,0,0.1
			c0.1,0.2,1.4,4.8,4.1,6.5c-0.4,1-2.2,4.1-9,5.5c-8.9,1.9-9.8,7.7-9.9,8v11.8h1l0-11.7c0-0.2,0.9-5.1,8.5-6.9v18.6h1V37.3
			c0.7-0.1,1.3-0.3,1.8-0.5v19.3h1V36.5c3.9-1.4,5.5-3.4,6.2-4.6l5.4,5.3l5.3-5.3c0.7,1.2,2.3,3.2,6.2,4.6v19.7h1V36.8
			c0.6,0.2,1.2,0.3,1.8,0.5v18.9h1V37.6c7.6,1.9,8.4,6.7,8.5,6.9v11.8H49.7z M29.1,16.7c-1.2,0-2.3-1-2.3-2.3s1-2.3,2.3-2.3
			s2.3,1,2.3,2.3S30.3,16.7,29.1,16.7z M20.6,12.2c1.2,0,2.3,1,2.3,2.3s-1,2.3-2.3,2.3s-2.3-1-2.3-2.3S19.3,12.2,20.6,12.2z
			 M24.8,35.8l-4.2-4.2c2.6,0.4,3.6,0.4,4,0.4c0.1,0,0.1,0,0.1,0c0,0,0.1,0,0.1,0c0.4,0,1.5-0.1,4-0.4L24.8,35.8z M29,30.6
			C26.5,31,25.2,31,24.8,31l0,0c0,0,0,0,0,0c0,0,0,0,0,0l0,0c-0.2,0-1.2,0-4.1-0.4c-3.1-0.4-4.8-5.8-5-6.4V21
			c0.9,1.6,2.5,3.6,4.3,3.6c0.8,0,1.4-0.3,1.9-0.8c0.7-0.9,0.8-2.2,0.8-2.9h2.2H27c0,0.8,0,2.1,0.8,2.9c0.5,0.5,1.1,0.8,1.9,0.8
			c1.9,0,3.4-2,4.3-3.6v3.2C33.8,24.8,32.1,30.2,29,30.6z"/>
		<path d="M24.7,31L24.7,31C24.7,31,24.7,31,24.7,31z"/>
	</g>
	<polygon class="st0" points="16.4,37.8 16.4,42.9 21,43.2 24.7,40.4 28.4,43 33.1,43.2 33.1,37.8 28.7,37.8 24.7,40.2 21,37.4 	"/>
	<path d="M33.2,37.1h-4.6c-0.1,0-0.2,0-0.3,0.1l-3.5,2.5l-3.5-2.5c-0.1-0.1-0.2-0.1-0.3-0.1h-4.6c-0.3,0-0.5,0.2-0.5,0.5v5.5
		c0,0.3,0.2,0.5,0.5,0.5h4.6c0.1,0,0.2,0,0.3-0.1l3.5-2.5l3.5,2.5c0.1,0.1,0.2,0.1,0.3,0.1h4.6c0.3,0,0.5-0.2,0.5-0.5v-5.5
		C33.7,37.3,33.4,37.1,33.2,37.1z M20.9,42.6H17v-4.5h3.9l3.1,2.3L20.9,42.6z M32.7,42.6h-3.9l-3.1-2.3l3.1-2.3h3.9V42.6z"/>
	<rect x="24.3" y="43.8" width="1" height="1"/>
	<rect x="24.3" y="46.9" width="1" height="1.1"/>
	<rect x="24.3" y="50.4" width="1" height="2.6"/>
	<path d="M14.8,4.8v3.9c0,0.3,0.2,0.5,0.5,0.5h2.2c0.1,0,0.3-0.1,0.4-0.2l1.5-1.6l1.4,1.4C20.9,9,21,9,21.2,9h10.4v0.9
		c0,0.3,0.2,0.5,0.5,0.5h2.4c0.3,0,0.5-0.2,0.5-0.5V2c0-0.1-0.1-0.3-0.1-0.4l-1.4-1.4c-0.1-0.1-0.2-0.1-0.4-0.1L13.4,0c0,0,0,0,0,0
		c-0.1,0-0.3,0.1-0.4,0.1c-0.1,0.1-0.1,0.2-0.1,0.4v2.2c0,0.1,0.1,0.3,0.1,0.4L14.8,4.8z M13.9,1l18.9,0.1L34,2.2v7.2h-1.4V8.5
		c0-0.3-0.2-0.5-0.5-0.5H21.4l-1.6-1.6c-0.1-0.1-0.2-0.2-0.4-0.1c-0.1,0-0.3,0.1-0.4,0.2l-1.7,1.8h-1.5V4.6c0-0.1-0.1-0.3-0.1-0.4
		l-1.8-1.8V1z"/>
</g>
</svg>
