<?xml version="1.0" encoding="utf-8"?>
<!-- Generator: Adobe Illustrator 21.0.2, SVG Export Plug-In . SVG Version: 6.00 Build 0)  -->
<svg version="1.1" id="Слой_1" xmlns="http://www.w3.org/2000/svg" xmlns:xlink="http://www.w3.org/1999/xlink" x="0px" y="0px"
	 viewBox="0 0 17 17.2" style="enable-background:new 0 0 17 17.2;" xml:space="preserve">
<g>
	<path d="M1.4,8.9c-0.2-2.6,1.1-5,3.3-6.4c2.7-1.7,6.4-1.3,8.6,0.9l-1.5-0.2c-0.4-0.1-0.8,0.2-0.8,0.6c-0.1,0.4,0.2,0.7,0.6,0.8
		l3.3,0.5c0.4,0,0.7-0.2,0.8-0.6l0.5-3.3c0.1-0.4-0.2-0.8-0.6-0.8c-0.4-0.1-0.8,0.2-0.8,0.6l-0.2,1.6c-1.1-1.2-2.6-2-4.2-2.4
		C8.2-0.3,5.9,0.1,4,1.3C1.3,2.9-0.2,5.9,0,9c0,0.3,0.3,0.6,0.6,0.7c0,0,0.1,0,0.1,0c0,0,0,0,0.1,0c0.2,0,0.4-0.1,0.5-0.2
		C1.4,9.3,1.4,9.1,1.4,8.9z"/>
	<path d="M17,8.2c0-0.4-0.4-0.7-0.8-0.7c-0.2,0-0.4,0.1-0.5,0.2c-0.1,0.1-0.2,0.3-0.2,0.5c0.2,2.6-1.1,5-3.3,6.4
		c-1.5,0.9-3.2,1.3-5,1c-1.4-0.3-2.8-1-3.8-2l1.6,0.1c0.2,0,0.4,0,0.5-0.2c0.1-0.1,0.2-0.3,0.3-0.5c0-0.4-0.3-0.7-0.6-0.8L2,12.1
		c-0.2,0-0.4,0-0.5,0.2c-0.1,0.1-0.2,0.3-0.3,0.5L0.9,16c0,0.4,0.2,0.7,0.6,0.8l0.1,0c0.4,0,0.7-0.3,0.8-0.6l0.1-1.5
		c1.1,1.2,2.6,2,4.2,2.3C6.8,17,6.9,17,7.1,17c0.5,0.1,1,0.1,1.5,0.1c1.6,0,3.1-0.4,4.5-1.3C15.7,14.2,17.2,11.3,17,8.2L17,8.2z"/>
</g>
</svg>
