<?xml version="1.0" encoding="utf-8"?>
<!-- Generator: Adobe Illustrator 21.0.2, SVG Export Plug-In . SVG Version: 6.00 Build 0)  -->
<svg version="1.1" id="Слой_1" xmlns="http://www.w3.org/2000/svg" xmlns:xlink="http://www.w3.org/1999/xlink" x="0px" y="0px"
	 viewBox="0 0 48.6 55.2" style="enable-background:new 0 0 48.6 55.2;" xml:space="preserve">
<style type="text/css">
	.st0{fill:#FFD200;}
</style>
<g>
	<path d="M24.7,29.8L24.7,29.8C24.7,29.8,24.7,29.8,24.7,29.8z"/>
	<rect x="23.8" y="45.9" width="1" height="1"/>
	<rect x="23.8" y="49.1" width="1" height="1.1"/>
	<rect x="23.8" y="39.3" width="1" height="1"/>
	<rect x="23.8" y="42.5" width="1" height="1.1"/>
	<rect x="23.8" y="52.6" width="1" height="2.6"/>
	<rect x="7.7" y="50.5" width="1" height="4.5"/>
	<path d="M38.7,35.3c-5.7-1.2-7.8-3.5-8.5-4.9V25h-0.1c0,0,0,0,0,0c2.1-3.1,2.3-5.1,2.3-9V11h-0.1l0-0.1c-0.4-0.2-0.8-0.9-0.8-1.1
		c-0.1-0.2-0.3-0.3-0.5-0.3c-0.1,0-5.5,0-7.3-0.2c-1.3-0.1-3.2-1.7-3.8-2.2C19.8,7,19.6,7,19.5,7s-0.3,0.2-0.3,0.4
		c-0.2,0.9-1.8,2.5-2.8,3.2c-0.1,0.1-0.2,0.2-0.2,0.4V16c0,3.8,0.2,5.9,2.3,9c0,0,0,0,0,0h-0.1v5.5c-0.8,1.3-2.8,3.6-8.5,4.8
		c-8.9,1.9-9.8,7.7-9.9,8V55h1l0-11.7c0-0.2,0.9-5.1,8.5-6.9l1-0.2c0.7-0.1,1.3-0.3,1.8-0.5l1-0.3c2.8-1,4.3-2.3,5.2-3.4l3.5,3.6
		c0,0,0.9,0.9,2.2,1v0c0,0,0,0,0.1,0c0,0,0,0,0.1,0v0c1.3-0.1,2.2-0.9,2.2-1l3.5-3.6c0.9,1.1,2.5,2.4,5.2,3.4l1,0.3
		c0.6,0.2,1.2,0.3,1.8,0.5l1,0.2c7.6,1.9,8.4,6.7,8.5,6.9l0,11.7h1V43.3C48.5,42.9,47.6,37.1,38.7,35.3z M17.1,16v-4.7
		c0.6-0.5,2.1-1.7,2.7-2.9c0.8,0.7,2.5,1.9,3.9,2c1.6,0.2,5.8,0.2,7.1,0.2c0.1,0.3,0.4,0.6,0.7,0.9V16c0,4-0.3,5.7-2.2,8.4
		c-1.7,2.4-4.5,2.9-5,3c-0.5-0.1-3.3-0.5-5-3C17.4,21.6,17.1,20,17.1,16z M25.8,34.9c0,0-0.7,0.7-1.5,0.7c-0.9,0-1.5-0.7-1.5-0.7
		l-3.6-3.8c0.1-0.1,0.2-0.3,0.2-0.4h0V26c2,2,4.6,2.3,4.9,2.3l0,0c0,0,0,0,0,0c0,0,0,0,0,0l0,0c0.3,0,2.9-0.3,4.9-2.3v4.7h0
		c0.1,0.1,0.1,0.2,0.2,0.4L25.8,34.9z"/>
	<path d="M23.8,29.8C23.9,29.8,23.9,29.8,23.8,29.8L23.8,29.8z"/>
	<rect x="39.9" y="50.5" width="1" height="4.5"/>
	<path d="M15.1,21.2l0.5-0.9c-1.5-0.8-5.3-3.4-5.3-5.5c0-2.3,2.2-3.9,2.8-4.3h2v-1h-1.8c-0.4-0.7-1.2-3,1.8-5.3
		c4.6-3.5,6.8-4,8.4-2.1c0.1,0.1,0.2,0.2,0.4,0.2h2.9c0.1,0,0.3-0.1,0.4-0.2c0,0,1.1-1.3,2.4-0.9c1.5,0.6,5,3.2,5.7,5.5
		c0.7,2,0.3,2.5,0.3,2.5c-0.1,0.1-0.1,0.2-0.2,0.3h-2.1v1H36c1,0.9,2.2,2.2,2.3,2.7c0.2,1.1,0.3,4.4-1.3,5.3
		c-1.9,1.1-4.2,2.1-4.2,2.1l0.4,0.9c0.1,0,2.4-1.1,4.3-2.1c2.2-1.3,2-5.1,1.8-6.4c-0.2-1.1-2.1-2.8-2.9-3.5c0.2-0.5,0.2-1.4-0.3-3.1
		c-0.9-2.7-4.7-5.5-6.3-6.1c-1.6-0.6-2.9,0.5-3.4,1H24c-2.5-2.8-6.1-0.5-9.6,2.1C11,6,11.8,8.8,12.3,9.9c-0.9,0.6-3,2.4-3,4.9
		C9.3,17.9,14.9,21.1,15.1,21.2z"/>
	<g>
		<g>
			<path class="st0" d="M32.2,46.9h-3.6v3.4c0,0,1.2,2.8,3.6,2.8c2.4,0,3.6-2.8,3.6-2.8v-3.4H32.2z"/>
		</g>
		<g>
			<path d="M32.2,53.7c-2.7,0-4-3-4-3.1c0-0.1,0-0.1,0-0.2v-3.4c0-0.3,0.2-0.5,0.5-0.5h7.1c0.3,0,0.5,0.2,0.5,0.5v3.4
				c0,0.1,0,0.1,0,0.2C36.2,50.7,34.9,53.7,32.2,53.7z M29.2,50.3c0.2,0.4,1.2,2.4,3.1,2.4c1.8,0,2.9-2,3.1-2.4v-2.8h-6.1V50.3z"/>
		</g>
	</g>
</g>
</svg>
