<?xml version="1.0" encoding="utf-8"?>
<!-- Generator: Adobe Illustrator 21.0.2, SVG Export Plug-In . SVG Version: 6.00 Build 0)  -->
<svg version="1.1" id="Слой_1" xmlns="http://www.w3.org/2000/svg" xmlns:xlink="http://www.w3.org/1999/xlink" x="0px" y="0px"
	 viewBox="0 0 30.9 30.9" style="enable-background:new 0 0 30.9 30.9;" xml:space="preserve">
<style type="text/css">
	.st0{fill:#D2D2D2;}
	.st1{clip-path:url(#SVGID_2_);}
</style>
<g>
	<rect x="7.3" y="6" class="st0" width="16.4" height="18.3"/>
	<g>
		<g>
			<path d="M22,0H9C7.7,0,6.7,1,6.7,2.3v26.4c0,1.3,1,2.3,2.3,2.3h13c1.3,0,2.3-1,2.3-2.3V2.3C24.2,1,23.2,0,22,0L22,0z M7.7,6.7
				h15.5v17H7.7V6.7z M9,1h13c0.7,0,1.2,0.6,1.2,1.2v3.4H7.7V2.3C7.7,1.6,8.3,1,9,1L9,1z M22,29.9H9c-0.7,0-1.2-0.6-1.2-1.2v-3.9
				h15.5v3.9C23.2,29.3,22.6,29.9,22,29.9L22,29.9z M22,29.9"/>
		</g>
		<g>
			<path d="M15.8,3.9h2.1c0.3,0,0.5-0.2,0.5-0.5c0-0.3-0.2-0.5-0.5-0.5h-2.1c-0.3,0-0.5,0.2-0.5,0.5C15.3,3.6,15.5,3.9,15.8,3.9
				L15.8,3.9z M15.8,3.9"/>
		</g>
		<g>
			<defs>
				<rect id="SVGID_1_" width="30.9" height="30.9"/>
			</defs>
			<clipPath id="SVGID_2_">
				<use xlink:href="#SVGID_1_"  style="overflow:visible;"/>
			</clipPath>
			<g class="st1">
				<path d="M12.9,3.9h0.5c0.3,0,0.5-0.2,0.5-0.5c0-0.3-0.2-0.5-0.5-0.5h-0.5c-0.3,0-0.5,0.2-0.5,0.5C12.4,3.6,12.6,3.9,12.9,3.9
					L12.9,3.9z M12.9,3.9"/>
			</g>
		</g>
		<g>
			<path d="M4.6,3.4"/>
		</g>
		<g>
			<g>
				<path d="M17.4,28.8h-2.9c-0.6,0-1.1-0.5-1.1-1.1v-1c0-0.6,0.5-1.1,1.1-1.1h2.9c0.6,0,1.1,0.5,1.1,1.1v1
					C18.4,28.3,18,28.8,17.4,28.8z M14.5,26.6l-0.1,1.1l3,0.1c0,0,0.1,0,0.1-0.1v-1L14.5,26.6z"/>
			</g>
		</g>
	</g>
	<g>
		<path d="M11.2,10.7c-0.1,0-0.3,0-0.4-0.1c-0.2-0.2-0.2-0.5,0-0.7l3.8-3.7c0.2-0.2,0.5-0.2,0.7,0s0.2,0.5,0,0.7l-3.8,3.7
			C11.4,10.6,11.3,10.7,11.2,10.7z"/>
	</g>
	<g>
		<path d="M13.1,15.3c-0.1,0-0.3,0-0.4-0.1c-0.2-0.2-0.2-0.5,0-0.7l3.8-3.8c0.2-0.2,0.5-0.2,0.7,0s0.2,0.5,0,0.7l-3.8,3.8
			C13.3,15.2,13.2,15.3,13.1,15.3z"/>
	</g>
	<g>
		<path d="M19.6,14.1c-0.1,0-0.3,0-0.4-0.1c-0.2-0.2-0.2-0.5,0-0.7l1.8-1.8c0.2-0.2,0.5-0.2,0.7,0s0.2,0.5,0,0.7L19.9,14
			C19.8,14.1,19.7,14.1,19.6,14.1z"/>
	</g>
	<g>
		<path d="M9,24.7c-0.1,0-0.3,0-0.4-0.1c-0.2-0.2-0.2-0.5,0-0.7l8.6-8.6c0.2-0.2,0.5-0.2,0.7,0s0.2,0.5,0,0.7l-8.6,8.6
			C9.3,24.6,9.1,24.7,9,24.7z"/>
	</g>
	<g>
		<path d="M16.4,24.7c-0.1,0-0.3,0-0.4-0.1c-0.2-0.2-0.2-0.5,0-0.7l7.3-7.3c0.2-0.2,0.8-0.3,0.7,0v0.7l-7.3,7.3
			C16.7,24.6,16.6,24.7,16.4,24.7z"/>
	</g>
</g>
</svg>
