<svg id="Слой_1" data-name="Слой 1" xmlns="http://www.w3.org/2000/svg" viewBox="0 0 47.99 30.99"><defs><style>.cls-1{fill:#ffd200;}</style></defs><title>Монтажная область 1</title><path d="M2.63,31a2.14,2.14,0,0,1-1.19-.36L1,30.31a2.14,2.14,0,0,1-1-1.78V27.23a.53.53,0,0,1,.52-.53H4V2.14A2.15,2.15,0,0,1,6.19,0H41.8a2.15,2.15,0,0,1,2.14,2.14V26.71h3.52a.53.53,0,0,1,.53.53v1.29a2.13,2.13,0,0,1-1,1.78l-.49.33a2.12,2.12,0,0,1-1.19.36Zm26.05-1.05H45.35a1.08,1.08,0,0,0,.61-.18l.49-.33a1.09,1.09,0,0,0,.49-.91v-.77H30.33ZM1.05,28.52a1.09,1.09,0,0,0,.49.91l.49.33a1.09,1.09,0,0,0,.61.18H19.3l-1.64-2.19H1.05ZM6.19,1.05A1.09,1.09,0,0,0,5.1,2.14V26.71H42.89V2.14A1.1,1.1,0,0,0,41.8,1.05Z"/><rect class="cls-1" x="8.34" y="4.29" width="31.91" height="22.63"/><path d="M7.81,27.76a.52.52,0,0,1-.37-.15.53.53,0,0,1-.15-.37V3.76a.53.53,0,0,1,.15-.37.52.52,0,0,1,.37-.15H40.18a.53.53,0,0,1,.53.53V27.23a.53.53,0,0,1-.53.53Zm.53-1.05H39.65V4.29H8.34Z"/><path d="M22.38,21.46a.53.53,0,0,1-.37-.9l.81-.81a.53.53,0,0,1,.74,0,.53.53,0,0,1,0,.74l-.81.81A.53.53,0,0,1,22.38,21.46Z"/><path d="M9.68,11.82a.53.53,0,0,1-.37-.9L15,5.26a.53.53,0,0,1,.74,0,.53.53,0,0,1,0,.74L10,11.67A.53.53,0,0,1,9.68,11.82Z"/><path d="M13.32,18.07a.53.53,0,0,1-.37-.9l5.66-5.66a.53.53,0,0,1,.74,0,.53.53,0,0,1,0,.74l-5.66,5.66A.53.53,0,0,1,13.32,18.07Z"/><path d="M13.32,23.45a.53.53,0,0,1-.37-.9L26.81,8.68a.53.53,0,0,1,.74,0,.53.53,0,0,1,0,.74L13.69,23.29A.53.53,0,0,1,13.32,23.45Z"/><path d="M32.43,17.1a.53.53,0,0,1-.37-.9l7.3-7.3a.53.53,0,0,1,.74,0,.53.53,0,0,1,0,.74l-7.3,7.3A.53.53,0,0,1,32.43,17.1Z"/><path d="M26.4,27.5a.53.53,0,0,1-.37-.9l8.06-8.06a.53.53,0,0,1,.74,0,.53.53,0,0,1,0,.74l-8.06,8.06A.52.52,0,0,1,26.4,27.5Z"/></svg>