<?xml version="1.0" encoding="utf-8"?>
<!-- Generator: Adobe Illustrator 21.0.2, SVG Export Plug-In . SVG Version: 6.00 Build 0)  -->
<svg version="1.1" id="Слой_1" xmlns="http://www.w3.org/2000/svg" xmlns:xlink="http://www.w3.org/1999/xlink" x="0px" y="0px"
	 viewBox="0 0 30.4 27.2" style="enable-background:new 0 0 30.4 27.2;" xml:space="preserve">
<style type="text/css">
	.st0{fill:#FFD200;}
	.st1{fill:none;stroke:#000000;stroke-linecap:round;stroke-miterlimit:10;}
</style>
<g>
	<path class="st0" d="M29.9,23H0.6c-0.1,0-0.1-0.1-0.1-0.1v-5.6c0-1.7,1.4-3.1,3.1-3.1H27c1.6,0,2.9,1.3,2.9,2.9V23z"/>
	<path class="st1" d="M27.9,26.7H2.5c-1.1,0-2-0.9-2-2v-8.4c0-1.1,0.9-2,2-2h25.4c1.1,0,2,0.9,2,2v8.4C29.9,25.8,29,26.7,27.9,26.7z
		"/>
	<line class="st1" x1="0.5" y1="23" x2="29.9" y2="23"/>
	<path class="st1" d="M9.3,5.7c0,0,0.3,8.6,6.3,8.6V0.5"/>
	<path class="st1" d="M22,5.7c0,0-0.3,8.6-6.3,8.6"/>
	<line class="st1" x1="4" y1="18.5" x2="4" y2="19.7"/>
	<line class="st1" x1="6.3" y1="18.5" x2="6.3" y2="19.7"/>
	<line class="st1" x1="9" y1="18.5" x2="9" y2="19.7"/>
	<line class="st1" x1="11.4" y1="18.5" x2="11.4" y2="19.7"/>
	<line class="st1" x1="13.7" y1="18.5" x2="13.7" y2="19.7"/>
	<line class="st1" x1="16.4" y1="18.5" x2="16.4" y2="19.7"/>
	<line class="st1" x1="18.9" y1="18.5" x2="18.9" y2="19.7"/>
	<line class="st1" x1="21.2" y1="18.5" x2="21.2" y2="19.7"/>
	<line class="st1" x1="23.9" y1="18.5" x2="23.9" y2="19.7"/>
	<line class="st1" x1="26.4" y1="18.5" x2="26.4" y2="19.7"/>
</g>
</svg>
