<?xml version="1.0" encoding="utf-8"?>
<!-- Generator: Adobe Illustrator 21.0.2, SVG Export Plug-In . SVG Version: 6.00 Build 0)  -->
<svg version="1.1" id="Слой_1" xmlns="http://www.w3.org/2000/svg" xmlns:xlink="http://www.w3.org/1999/xlink" x="0px" y="0px"
	 viewBox="0 0 40.9 35.3" style="enable-background:new 0 0 40.9 35.3;" xml:space="preserve">
<style type="text/css">
	.st0{fill:#FFD200;}
</style>
<g>
	<rect x="9.5" y="7" class="st0" width="21.2" height="20.2"/>
	<g>
		<g>
			<path d="M29,0H11.9c-1.7,0-3,1.2-3,2.6v30.1c0,1.4,1.3,2.6,3,2.6H29c1.7,0,3-1.2,3-2.6V2.6C32,1.2,30.7,0,29,0L29,0z M10.2,7.6
				h20.4v19.5H10.2V7.6z M11.9,1.2H29c0.9,0,1.6,0.6,1.6,1.4v3.9H10.2V2.6C10.2,1.8,11,1.2,11.9,1.2L11.9,1.2z M29,34.1H11.9
				c-0.9,0-1.6-0.6-1.6-1.4v-4.5h20.4v4.5C30.7,33.5,29.9,34.1,29,34.1L29,34.1z M29,34.1"/>
		</g>
		<g>
			<path d="M19.7,4.4h2.7c0.4,0,0.7-0.3,0.7-0.6c0-0.3-0.3-0.6-0.7-0.6h-2.7c-0.4,0-0.7,0.3-0.7,0.6C19,4.1,19.3,4.4,19.7,4.4
				L19.7,4.4z M19.7,4.4"/>
		</g>
		<g>
			<path d="M18.5,31.8h4c0.4,0,0.7-0.3,0.7-0.6c0-0.3-0.3-0.6-0.7-0.6h-4c-0.4,0-0.7,0.3-0.7,0.6C17.8,31.5,18.1,31.8,18.5,31.8
				L18.5,31.8z M18.5,31.8"/>
		</g>
		<g>
			<defs>
				<rect id="SVGID_1_" width="40.9" height="35.3"/>
			</defs>
			<clipPath id="SVGID_2_">
				<use xlink:href="#SVGID_1_"  style="overflow:visible;"/>
			</clipPath>
		</g>
		<g>
			<path d="M6.1,3.9"/>
		</g>
	</g>
	<g>
		<path d="M13.9,12.2c-0.1,0-0.3-0.1-0.4-0.2c-0.2-0.2-0.2-0.6,0-0.8l4.3-4.3c0.2-0.2,0.6-0.2,0.8,0c0.2,0.2,0.2,0.6,0,0.8L14.3,12
			C14.2,12.1,14,12.2,13.9,12.2z"/>
	</g>
	<g>
		<path d="M13.8,19.6c-0.1,0-0.3-0.1-0.4-0.2c-0.2-0.2-0.2-0.6,0-0.8l8.9-8.9c0.2-0.2,0.6-0.2,0.8,0c0.2,0.2,0.2,0.6,0,0.8l-8.9,8.9
			C14.1,19.6,14,19.6,13.8,19.6z"/>
	</g>
	<g>
		<path d="M22.7,17.7c-0.1,0-0.3-0.1-0.4-0.2c-0.2-0.2-0.2-0.6,0-0.8l1.4-1.4c0.2-0.2,0.6-0.2,0.8,0c0.2,0.2,0.2,0.6,0,0.8l-1.4,1.4
			C23,17.6,22.9,17.7,22.7,17.7z"/>
	</g>
	<g>
		<path d="M11.4,28.2c-0.1,0-0.3-0.1-0.4-0.2c-0.2-0.2-0.2-0.6,0-0.8l7.5-7.5c0.2-0.2,0.6-0.2,0.8,0c0.2,0.2,0.2,0.6,0,0.8L11.8,28
			C11.7,28.1,11.5,28.2,11.4,28.2z"/>
	</g>
	<g>
		<path d="M19.9,28.2c-0.1,0-0.3-0.1-0.4-0.2c-0.2-0.2-0.2-0.6,0-0.8l11.4-11.4c0.2-0.2,0.9-0.3,0.8,0v0.8L20.3,28
			C20.2,28.1,20,28.2,19.9,28.2z"/>
	</g>
</g>
</svg>
