<?xml version="1.0" encoding="utf-8"?>
<!-- Generator: Adobe Illustrator 21.0.2, SVG Export Plug-In . SVG Version: 6.00 Build 0)  -->
<svg version="1.1" id="Слой_1" xmlns="http://www.w3.org/2000/svg" xmlns:xlink="http://www.w3.org/1999/xlink" x="0px" y="0px"
	 viewBox="0 0 39.7 35.8" style="enable-background:new 0 0 39.7 35.8;" xml:space="preserve">
<style type="text/css">
	.st0{fill:#D2D2D2;}
</style>
<g>
	<g>
		<rect x="0.5" y="4.6" class="st0" width="38.7" height="20.6"/>
		<path d="M13.8,35.8c-0.3,0-0.5-0.2-0.5-0.5s0.2-0.5,0.5-0.5h1.3l0-3.8H2.4c-1.3,0-2.4-1.2-2.4-2.6V2.6C0,1.2,1.1,0,2.4,0h34.9
			c1.3,0,2.4,1.2,2.4,2.6l0,25.9c0,1.4-1.1,2.6-2.4,2.6H24.6v3.8h1.3c0.3,0,0.5,0.2,0.5,0.5s-0.2,0.5-0.5,0.5H13.8z M16.2,34.8h7.4
			v-3.8h-7.4V34.8z M1,28.5C1,29.3,1.6,30,2.4,30h34.9c0.7,0,1.4-0.7,1.4-1.6v-3.3H1V28.5z M2.4,1C1.6,1,1,1.7,1,2.6v21.6h37.6V2.6
			c0-0.9-0.6-1.6-1.4-1.6H2.4z"/>
		<path d="M5.2,13.2c-0.1,0-0.3-0.1-0.4-0.2c-0.1-0.1-0.2-0.2-0.2-0.4s0.1-0.3,0.2-0.4L12.2,5c0.1-0.1,0.2-0.2,0.4-0.2
			s0.3,0.1,0.4,0.2c0.2,0.2,0.2,0.5,0,0.7l-7.3,7.3C5.5,13.2,5.4,13.2,5.2,13.2z"/>
		<path d="M2.1,25c-0.1,0-0.3-0.1-0.4-0.1c-0.1-0.1-0.2-0.2-0.2-0.4s0.1-0.3,0.2-0.4L9,16.8c0.1-0.1,0.2-0.2,0.4-0.2
			s0.3,0.1,0.4,0.2c0.2,0.2,0.2,0.5,0,0.7l-7.3,7.3C2.3,24.9,2.2,25,2.1,25z"/>
		<path d="M13.5,20.3c-0.1,0-0.3-0.1-0.4-0.2c-0.2-0.2-0.2-0.5,0-0.7L24,8.6c0.1-0.1,0.2-0.2,0.4-0.2c0.1,0,0.2,0,0.3,0.1l0.1,0.1
			c0.2,0.2,0.2,0.5,0,0.7L13.9,20.2C13.8,20.3,13.6,20.3,13.5,20.3z"/>
		<path d="M27.2,18.1c-0.1,0-0.3-0.1-0.4-0.2c-0.2-0.2-0.2-0.5,0-0.7l6.9-6.9c0.1-0.1,0.2-0.1,0.4-0.1s0.3,0.1,0.4,0.1
			c0.1,0.1,0.2,0.2,0.2,0.4s-0.1,0.3-0.2,0.4L27.5,18C27.4,18.1,27.3,18.1,27.2,18.1z"/>
		<path d="M27.2,25c-0.1,0-0.3-0.1-0.4-0.2c-0.2-0.2-0.2-0.5,0-0.7l5.2-5.2c0.1-0.1,0.2-0.2,0.4-0.2s0.3,0.1,0.4,0.2
			c0.1,0.1,0.2,0.2,0.2,0.4s-0.1,0.3-0.2,0.4l-5.2,5.2C27.4,24.9,27.3,25,27.2,25z"/>
		<path d="M19.1,8.5c-0.1,0-0.3-0.1-0.4-0.2c-0.1-0.1-0.2-0.2-0.2-0.4s0.1-0.3,0.2-0.4L21.4,5c0.1-0.1,0.2-0.2,0.4-0.2
			c0.1,0,0.3,0.1,0.4,0.2c0.1,0.1,0.2,0.2,0.2,0.4s-0.1,0.3-0.2,0.4l-2.7,2.7C19.4,8.5,19.2,8.5,19.1,8.5z"/>
		<path d="M22,16.1c-0.1,0-0.3-0.1-0.4-0.2c-0.2-0.2-0.2-0.5,0-0.7l2.2-2.2c0.1-0.1,0.2-0.2,0.4-0.2s0.3,0.1,0.4,0.2
			c0.1,0.1,0.2,0.2,0.2,0.4s-0.1,0.3-0.2,0.4L22.4,16C22.3,16.1,22.1,16.1,22,16.1z"/>
		<path d="M18.3,27.7c-0.3,0-0.5-0.2-0.5-0.5s0.2-0.5,0.5-0.5h3.1c0.3,0,0.5,0.2,0.5,0.5s-0.2,0.5-0.5,0.5H18.3z"/>
	</g>
	<g>
		<rect x="0.5" y="4.6" width="38.7" height="1"/>
	</g>
</g>
</svg>
