<?xml version="1.0" standalone="no"?>
<!DOCTYPE svg PUBLIC "-//W3C//DTD SVG 20010904//EN"
 "http://www.w3.org/TR/2001/REC-SVG-20010904/DTD/svg10.dtd">
<svg version="1.0" xmlns="http://www.w3.org/2000/svg"
 width="526.000000pt" height="526.000000pt" viewBox="0 0 526.000000 526.000000"
 preserveAspectRatio="xMidYMid meet">
<metadata>
Created by potrace 1.11, written by Peter Selinger 2001-2013
</metadata>
<g transform="translate(0.000000,526.000000) scale(0.100000,-0.100000)"
fill="#000000" stroke="none">
<path d="M2538 5115 c-1 -1 -28 -5 -58 -8 -30 -3 -68 -8 -85 -12 -44 -8 -99
-18 -105 -20 -3 -1 -21 -5 -40 -9 -81 -18 -298 -98 -370 -136 -14 -7 -32 -17
-40 -21 -85 -43 -256 -160 -329 -224 -56 -48 -101 -94 -102 -102 0 -4 -2 -16
-4 -27 -6 -31 13 -65 46 -85 42 -26 75 -14 154 54 53 46 177 139 230 172 80
51 309 154 370 167 6 1 35 10 65 19 52 15 73 19 153 32 17 3 45 8 62 11 58 12
313 11 411 -2 135 -17 148 -20 250 -50 49 -15 106 -32 127 -37 20 -6 37 -15
37 -19 0 -4 6 -8 14 -8 40 0 317 -162 401 -235 17 -14 41 -35 55 -47 14 -11
48 -43 76 -70 55 -53 92 -63 139 -38 33 18 50 77 32 115 -14 30 -139 146 -232
216 -117 88 -315 203 -386 224 -13 4 -37 13 -54 21 -80 35 -266 86 -371 100
-27 3 -53 9 -59 12 -9 6 -380 13 -387 7z"/>
<path d="M2569 4556 c-2 -2 -26 -6 -54 -9 -27 -4 -61 -9 -75 -12 -14 -2 -35
-7 -48 -9 -22 -5 -64 -18 -127 -39 -51 -17 -198 -89 -213 -103 -7 -8 -18 -14
-23 -14 -15 0 -155 -106 -197 -149 -26 -27 -38 -49 -40 -73 -3 -45 32 -85 79
-92 32 -5 43 0 100 48 130 107 245 174 369 216 73 24 78 25 173 44 68 13 333
16 353 4 5 -4 29 -9 52 -13 23 -3 60 -12 82 -20 22 -8 42 -15 45 -15 14 -2 48
-16 125 -53 97 -45 175 -99 273 -186 71 -64 112 -77 150 -48 25 19 45 65 39
92 -6 36 -146 172 -203 199 -10 5 -19 13 -19 18 0 4 -7 8 -15 8 -8 0 -15 4
-15 8 0 10 -163 93 -237 121 -47 18 -148 47 -198 57 -11 2 -31 7 -45 10 -29 7
-324 16 -331 10z"/>
<path d="M2605 3912 c-159 -31 -270 -76 -369 -150 -130 -99 -210 -202 -279
-362 -15 -34 -41 -113 -39 -117 0 -2 -4 -17 -9 -35 -12 -42 -41 -224 -54 -338
-8 -74 -19 -149 -29 -205 -11 -63 -219 54 -357 201 -130 138 -146 152 -182
164 -95 30 -203 -24 -223 -111 -2 -10 -6 -28 -8 -38 -9 -40 37 -162 80 -212 8
-8 14 -20 14 -26 0 -6 3 -13 8 -15 4 -1 27 -29 51 -60 114 -151 321 -315 484
-384 35 -15 38 -19 32 -48 -22 -102 -161 -431 -194 -456 -4 -3 -18 -21 -31
-40 -28 -40 -42 -57 -89 -108 -76 -83 -115 -134 -126 -160 -24 -60 -7 -125 76
-288 65 -128 69 -141 84 -289 15 -150 48 -232 109 -274 58 -39 93 -50 232 -66
156 -19 207 -46 343 -181 134 -134 171 -161 238 -170 26 -3 51 -8 56 -11 4 -2
7 -1 7 4 0 4 14 9 32 10 17 1 36 7 42 13 5 5 16 10 23 10 7 0 59 22 116 49 57
28 116 52 130 55 15 4 37 8 50 10 12 3 65 8 117 11 208 12 254 24 298 73 22
25 52 75 53 87 0 3 8 25 19 51 51 119 127 366 145 477 3 18 8 39 10 47 2 8 7
35 10 60 3 25 8 52 11 61 2 9 6 36 9 60 2 24 6 55 9 69 7 37 24 177 31 260 5
64 16 233 19 305 l2 50 44 -4 c75 -7 331 -6 405 1 222 22 281 47 320 137 29
65 13 140 -42 194 -41 42 -86 57 -182 62 -89 4 -217 15 -244 21 -12 2 -35 7
-52 10 -102 18 -187 55 -214 93 -30 41 -36 89 -46 331 -3 80 -8 170 -11 200
-10 126 -13 157 -18 190 -3 19 -8 51 -10 70 -21 139 -53 226 -127 349 -48 81
-167 196 -262 254 -43 26 -77 44 -77 41 0 -4 -6 -2 -12 3 -15 12 -126 48 -178
59 -39 8 -214 12 -245 6z"/>
</g>
</svg>
